<svg width="1024" height="1024" viewBox="0 0 1024 1024" version="1.1" xmlns="http://www.w3.org/2000/svg"><path d="M680.77037 247.466667L438.992593 738.607407s0.948148 0 0.948148 0.948149C575.525926 805.925926 739.555556 749.985185 805.925926 613.451852c67.318519-135.585185 10.42963-299.614815-125.155556-365.985185z" fill="#1E2D4F" /><path d="M680.77037 247.466667c-135.585185-66.37037-299.614815-10.42963-365.985185 125.155555-66.37037 135.585185-10.42963 298.666667 124.207408 365.985185l241.777777-491.14074z" fill="#2D4375" /><path d="M665.6 279.703704c-118.518519-57.837037-260.740741-9.481481-318.577778 109.037037-57.837037 117.57037-9.481481 259.792593 108.088889 317.629629l210.488889-426.666666z" fill="#F2F2F2" /><path d="M665.6 279.703704L455.111111 706.37037s0.948148 0 0.948148 0.948149c118.518519 57.837037 260.740741 8.533333 318.577778-109.037038 57.837037-118.518519 8.533333-260.740741-109.037037-318.577777z" fill="#E1EDF7" /><path d="M405.807407 399.17037l-19.911111-9.481481c-3.792593-1.896296-8.533333 0-10.429629 3.792592l-9.481482 19.911112c-1.896296 3.792593 0 8.533333 3.792593 10.429629l19.911111 9.481482c3.792593 1.896296 8.533333 0 10.42963-3.792593l9.481481-19.911111c1.896296-3.792593 0-8.533333-3.792593-10.42963z" fill="#F12A3F" /><path d="M753.777778 564.148148l-19.911111-9.481481c-3.792593-1.896296-8.533333 0-10.42963 3.792592l-9.481481 19.911111c-1.896296 3.792593 0 8.533333 3.792592 10.42963l19.911111 9.481481c3.792593 1.896296 8.533333 0 10.42963-3.792592l9.481481-19.911111c1.896296-3.792593 0-8.533333-3.792592-10.42963z" fill="#C92334" /><path d="M646.637037 288.237037c-3.792593-1.896296-8.533333 0-10.42963 3.792593l-9.481481 19.911111c-1.896296 3.792593 0 8.533333 3.792593 10.429629l11.377777 5.688889 17.066667-34.133333-12.325926-5.688889z" fill="#F12A3F" /><path d="M666.548148 297.718519l-8.533333-3.792593-17.066667 34.133333 8.533333 3.792593c3.792593 1.896296 8.533333 0 10.42963-3.792593l9.481482-19.911111c2.844444-3.792593 0.948148-8.533333-2.844445-10.429629zM473.125926 691.2c3.792593 1.896296 8.533333 0 10.42963-3.792593l9.481481-19.911111c1.896296-3.792593 0-8.533333-3.792593-10.429629l-9.481481-4.740741-15.17037 35.081481 8.533333 3.792593z" fill="#C92334" /><path d="M459.851852 651.377778l-9.481482 19.911111c-1.896296 3.792593 0 8.533333 3.792593 10.42963l10.42963 4.74074 17.066666-34.133333-10.429629-4.740741c-4.740741-0.948148-9.481481 0-11.377778 3.792593z" fill="#F12A3F" /><path d="M692.148148 406.755556l-120.414815 69.214814c-5.688889 2.844444-7.585185 10.42963-3.792592 15.170371 2.844444 5.688889 10.42963 7.585185 15.17037 3.792592l120.414815-69.214814c5.688889-2.844444 7.585185-10.42963 3.792593-15.170371-2.844444-5.688889-10.42963-7.585185-15.170371-3.792592z" fill="#2C3E50" /><path d="M567.940741 476.918519l-70.162963-34.133334c-7.585185-3.792593-16.118519-0.948148-19.911111 6.637037-3.792593 7.585185-0.948148 16.118519 6.637037 19.911111l70.162963 34.133334c7.585185 3.792593 16.118519 0.948148 19.911111-6.637037 3.792593-7.585185 0-16.118519-6.637037-19.911111z" fill="#2C3E50" /><path d="M561.303704 491.140741c-0.948148 0-2.844444 0.948148-2.844445 1.896296l-41.718518 169.718519c0 0.948148 0 1.896296 0.948148 2.844444h0.948148c0.948148 0 2.844444 0 2.844444-1.896296l41.718519-169.718519c0-0.948148-0.948148-2.844444-1.896296-2.844444z" fill="#F12A3F" /><path d="M551.376381 512.654246a23.703704 23.703704 0 1 0 20.843743-42.579346 23.703704 23.703704 0 1 0-20.843743 42.579346Z" fill="#22313F" /></svg>
