<svg width="1024" height="1024" viewBox="0 0 1024 1024" version="1.1" xmlns="http://www.w3.org/2000/svg"><path d="M499.752592 524.344987m-499.655003 0a499.655003 499.655003 0 1 0 999.310007 0 499.655003 499.655003 0 1 0-999.310007 0Z" fill="#C6C6C6" /><path d="M738.74773 746.847606l-8.099876 8.490231c-11.125131 11.613075-29.764605 11.905842-41.37768 0.780711L260.562277 343.317637c-11.613075-11.125131-11.905842-29.764605-0.780711-41.37768l8.099876-8.490231c11.125131-11.613075 29.764605-11.905842 41.37768-0.780711l428.707897 412.800911c11.613075 11.125131 12.003431 29.764605 0.780711 41.37768z" fill="#FFFFFF" /><path d="M276.762029 763.925657l-8.490231-8.099876c-11.613075-11.125131-11.905842-29.764605-0.780711-41.37768l412.800911-428.707896c11.125131-11.613075 29.764605-11.905842 41.37768-0.780711l8.490231 8.099876c11.613075 11.125131 11.905842 29.764605 0.780711 41.37768L318.237298 763.144947c-11.22272 11.613075-29.862194 11.905842-41.475269 0.78071z" fill="#FFFFFF" /></svg>
