<svg style="width: 1em;height: 1em;vertical-align: middle;fill: #78ABD4;overflow: hidden;" viewBox="0 0 1024 1024" version="1.1" xmlns="http://www.w3.org/2000/svg"><path d="M639.25 105.63c57.49-5.999 118.266-1.529 177.535 9.525 0.508 0.094 1.015 0.19 1.521 0.285l3.016 0.575 2.978 0.58 1.475 0.292 2.922 0.588 1.446 0.295 2.864 0.595 2.824 0.597c0.935 0.2 1.863 0.4 2.784 0.602l2.744 0.604c0.454 0.1 0.906 0.202 1.356 0.303l2.682 0.608 2.64 0.61 2.597 0.61 2.555 0.613c0.844 0.205 1.681 0.41 2.51 0.614l0.817 0.202 2.374 0.594 2.261 0.577 1.445 0.374 2.072 0.546 1.955 0.525 2.221 0.612 1.492 0.422 0.971 0.287a32 32 0 0 1 20.309 18.907l0.044 0.114 0.768 2.028 0.68 1.85 0.426 1.181 0.495 1.39 0.766 2.184 0.793 2.304 0.818 2.423 0.558 1.68 0.712 2.173a560.664 560.664 0 0 1 7.211 24.039l0.829 3.03a619.58 619.58 0 0 1 3.247 12.515c15.389 61.95 21.69 125.518 13.495 185.852-8.54 62.876-32.515 117.412-74.616 160.04-1.258 51.564-9.632 108.023-23.216 155.257-7.908 27.497-17.4 51.312-28.282 70.085a183.868 183.868 0 0 1-3.076 5.115l-0.894 1.418c-12.565 19.705-27.183 33.575-44.963 40.042-18.113 6.587-36.966 3.54-54.248-6.696-13.282-7.866-25.748-19.989-37.462-35.623-10.162-13.563-19.768-29.832-28.426-47.932l-1.077-2.271c-6.255-13.308-11.997-27.57-17.073-42.447l-0.864-2.556a454.538 454.538 0 0 1-3.732-11.678c-58.147 16.085-119.73 28.05-181.273 36.544l-2.005 0.275c-1.333 0.183-2.661 0.363-3.983 0.54l-3.95 0.525-3.913 0.511-3.878 0.497-3.842 0.482-3.805 0.468-3.767 0.455-3.729 0.44-1.85 0.215-3.67 0.42-3.63 0.406c-1.204 0.133-2.4 0.264-3.59 0.393l-3.55 0.38-2.888 0.3c5.939 59.603-5.9 126.893-30.81 167.12-9.023 14.57-19.819 25.824-32.81 32.748-16.261 8.665-34.576 9.61-51.922 2.246-25.966-11.024-47.41-39.296-66.64-84.788l-0.374-0.891-0.893-0.374c-45.002-19.01-73.156-40.187-84.438-65.765l-0.37-0.854c-7.368-17.347-6.423-35.665 2.248-51.927 6.926-12.99 18.183-23.782 32.757-32.802 40.354-24.973 107.934-36.803 167.68-30.74l0.466-3.973 0.423-3.52 0.436-3.561 0.449-3.602 0.46-3.642 0.475-3.682 0.486-3.72 0.5-3.758 0.512-3.795 0.793-5.762 0.27-1.939 0.553-3.903 0.564-3.939c8.99-62.224 21.031-124.483 36.595-182.828l0.361-1.354 0.28 0.085a458.034 458.034 0 0 1-3.914-1.198l-2.596-0.817c-18.998-6.038-37.132-13.174-53.728-21.108l-2.253-1.087a344.019 344.019 0 0 1-12.036-6.146l-2.12-1.147c-11.601-6.33-22.207-13.052-31.534-20.036-15.639-11.71-27.765-24.173-35.634-37.452-10.241-17.282-13.291-36.138-6.7-54.254 7.163-19.683 23.402-35.487 46.59-48.922 18.777-10.879 42.598-20.366 70.102-28.271 47.388-13.62 104.06-22.001 155.764-23.219 43.132-38.548 100.502-59.682 168.052-66.732z m140.706 495.655l-1.113 0.664c-32.657 19.394-70.622 36.36-113.186 51.171l0.458 1.504 0.701 2.252c0.236 0.748 0.474 1.495 0.714 2.24l0.724 2.23c0.73 2.223 1.476 4.428 2.238 6.614l0.767 2.18c0.643 1.81 1.297 3.606 1.96 5.388l0.802 2.13 0.81 2.115c0.408 1.054 0.82 2.102 1.234 3.145l0.833 2.076a333.297 333.297 0 0 0 6.956 15.989l0.902 1.915c0.453 0.952 0.909 1.897 1.367 2.834l0.919 1.864c0.307 0.618 0.615 1.233 0.925 1.843l0.93 1.822c5.76 11.166 11.842 21.088 18.022 29.336 0.565 0.754 1.127 1.489 1.686 2.205l0.835 1.059c0.278 0.348 0.555 0.691 0.831 1.03l0.825 1a98.838 98.838 0 0 0 5.194 5.783l0.769 0.776c3.186 3.173 6.135 5.55 8.717 7.079 0.389 0.23 0.738 0.424 1.047 0.585l0.234 0.119 0.045-0.03c0.879-0.638 1.875-1.498 2.965-2.59l0.33-0.334c3.301-3.39 6.902-8.32 10.578-14.66 6.134-10.582 12.063-24.356 17.465-40.564l0.687-2.083 0.341-1.05 0.678-2.122 0.672-2.147c0.557-1.8 1.108-3.626 1.652-5.477l0.649-2.234c7.519-26.144 13.287-55.83 16.837-85.657z m61.21-45.39l-0.04 0.035c-1.031 0.97-2.072 1.933-3.123 2.89a297.547 297.547 0 0 1-3.139 2.815 32.135 32.135 0 0 0 6.301-5.74zM507.396 226.186c-13.014 13.01-25.51 30.15-37.364 51.054 8.72 28.129 19.587 56.007 32.886 82.545 17.983 35.886 39.417 67.214 64.822 92.613 25.406 25.398 56.743 46.824 92.638 64.802 26.08 13.06 53.453 23.775 81.086 32.415 20.705-11.899 38.614-24.619 53.465-38.132a188.382 188.382 0 0 0 10.997-10.86l-0.577-0.126-2.301-0.513a479.53 479.53 0 0 1-1.165-0.264l-2.36-0.544-2.396-0.565a508.8 508.8 0 0 1-1.212-0.291l-2.452-0.597a523.75 523.75 0 0 1-1.239-0.307l-2.504-0.63c-0.841-0.213-1.687-0.43-2.54-0.651l-2.571-0.674-2.605-0.695-1.314-0.356c-31.355-8.534-62.678-19.924-91.652-34.435-30.156-15.103-55.93-32.726-76.05-52.839-20.118-20.112-37.746-45.879-52.853-76.024-14.514-28.965-25.907-60.277-34.443-91.622-0.24-0.878-0.475-1.752-0.707-2.62l-0.684-2.587c-0.225-0.857-0.445-1.708-0.663-2.554l-0.64-2.521a525.73 525.73 0 0 1-0.62-2.487l-0.597-2.45-0.576-2.415-0.555-2.377-0.534-2.339-0.259-1.155-0.185-0.836a156.997 156.997 0 0 0-12.276 11.037z m-90.114 14.253l-0.612 0.076c-29.12 3.568-58.027 9.238-83.558 16.576l-1.12 0.324-2.223 0.652-2.198 0.66c-1.456 0.44-2.897 0.886-4.32 1.336l-2.122 0.678-2.097 0.684-1.038 0.344-2.056 0.692-2.03 0.698-1.005 0.35-1.989 0.707a291.043 291.043 0 0 0-6.741 2.51l-1.862 0.729c-9.543 3.774-17.914 7.73-24.895 11.775-6.344 3.675-11.275 7.276-14.667 10.576-1.138 1.108-2.043 2.125-2.725 3.027l-0.223 0.3 0.197 0.38 0.233 0.424 0.269 0.464c2.753 4.646 8.253 10.48 16.198 16.747l1.074 0.838c0.544 0.42 1.099 0.843 1.665 1.266 4.905 3.674 10.403 7.313 16.403 10.87l1.648 0.968a251.619 251.619 0 0 0 10.392 5.711l1.811 0.934c7.593 3.878 15.749 7.605 24.336 11.111l2.068 0.837 2.086 0.829 2.1 0.82 2.117 0.81 2.13 0.801a377.614 377.614 0 0 0 8.666 3.107l2.2 0.751c2.205 0.746 4.43 1.476 6.671 2.189l2.247 0.707 1.128 0.35 1.86 0.564c14.652-43.893 31.206-82.222 49.982-114.172z m278.694 23.438c-16.663 16.658-16.663 43.665 0 60.323 16.662 16.657 43.677 16.657 60.34 0 16.663-16.658 16.663-43.665 0-60.323s-43.678-16.658-60.34 0z" /></svg>