<svg style="width: 1em;height: 1em;vertical-align: middle;fill: #F07867;overflow: hidden;" viewBox="0 0 1024 1024" version="1.1" xmlns="http://www.w3.org/2000/svg"><path d="M640.45 118c17.673 0 32 14.327 32 32 0 17.496-14.042 31.713-31.47 31.996l-0.53 0.004h-63.975c-17.484 0-31.688 14.029-31.97 31.442l-0.005 0.529v74.617h117.294c169.062 0 306.434 135.682 309.165 304.093l0.041 5.113C971 768.564 832.564 907 661.794 907H363.206C192.436 907 54 768.564 54 597.794s138.436-309.206 309.206-309.206H480.5v-74.617c0-52.474 42.114-95.11 94.388-95.958l1.587-0.013h63.975z" /></svg>