<svg overflow="hidden" viewBox="0 0 1024 1024" version="1.1" xmlns="http://www.w3.org/2000/svg"><path d="M16.064 511.992a495.888 494.928 90 1 0 989.856 0 495.888 494.928 90 1 0-989.856 0Z" fill="#3F4963" /><path d="M77.128 511.992a434.712 433.864 90 1 0 867.728 0 434.712 433.864 90 1 0-867.728 0Z" fill="#FFFFFF" /><path d="M180.656 511.992a330.984 330.336 90 1 0 660.672 0 330.984 330.336 90 1 0-660.672 0Z" fill="#FFD553" /><path d="M511 844.752c-183.12 0-332.096-149.272-332.096-332.752 0-183.48 148.976-332.752 332.096-332.752S843.104 328.52 843.104 512c0 183.48-148.976 332.752-332.104 332.752z m0-663.36c-181.936 0-329.952 148.312-329.952 330.608s148.016 330.6 329.952 330.6c181.944 0 329.96-148.304 329.96-330.6 0-182.296-148.016-330.608-329.96-330.608z" fill="#FFFFFF" /><path d="M782.296 321.92c-86.16 8.432-153.504 81.2-153.504 169.752 0 94.208 76.224 170.576 170.24 170.576 2.432 0 4.84-0.064 7.24-0.168a330.792 330.792 0 0 0 35.76-150.08 330.536 330.536 0 0 0-59.736-190.08zM239.712 321.92c86.16 8.432 153.504 81.2 153.504 169.752 0 94.208-76.224 170.576-170.248 170.576-2.424 0-4.84-0.064-7.24-0.168A330.792 330.792 0 0 1 179.968 512a330.552 330.552 0 0 1 59.744-190.08z" fill="#6CF5C5" /><path d="M511 512c-120.032 0-227.928 51.96-302.608 134.608C259.912 762.72 376 843.68 511 843.68c135 0 251.096-80.968 302.616-197.064C738.936 563.952 631.04 512 511 512z" fill="#FF9596" /><path d="M257.384 402.184a29.152 29.096 90 1 0 58.192 0 29.152 29.096 90 1 0-58.192 0Z" fill="#3F4963" /><path d="M706.456 402.184a29.152 29.096 90 1 0 58.192 0 29.152 29.096 90 1 0-58.192 0Z" fill="#3F4963" /><path d="M317.6 504.08H255.36a16.08 16.08 0 0 1-16.072-16.096c0-8.888 7.2-16.096 16.072-16.096H317.6a16.08 16.08 0 0 1 16.072 16.096 16.08 16.08 0 0 1-16.072 16.104zM766.672 504.08h-62.256a16.08 16.08 0 0 1-16.064-16.096c0-8.888 7.192-16.096 16.064-16.096h62.256a16.08 16.08 0 0 1 16.064 16.096 16.08 16.08 0 0 1-16.064 16.104z" fill="#FF6376" /><path d="M474.576 483.936c-28.944 0-52.496-23.592-52.496-52.592 0-8.896 7.2-16.104 16.072-16.104a16.08 16.08 0 0 1 16.064 16.104 20.4 20.4 0 0 0 20.36 20.4 20.4 20.4 0 0 0 20.368-20.4c0-8.896 7.192-16.104 16.064-16.104a16.08 16.08 0 0 1 16.072 16.104c0 29-23.552 52.6-52.504 52.6z" fill="#3F4963" /><path d="M547.44 483.936c-28.944 0-52.496-23.592-52.496-52.592 0-8.896 7.2-16.104 16.064-16.104a16.08 16.08 0 0 1 16.08 16.104 20.4 20.4 0 0 0 20.352 20.4 20.4 20.4 0 0 0 20.36-20.4c0-8.896 7.2-16.104 16.072-16.104a16.08 16.08 0 0 1 16.064 16.104c0 29-23.552 52.6-52.496 52.6z" fill="#3F4963" /><path d="M144.64 386.32a16 16 0 0 1-11.36-4.72 16.12 16.12 0 0 1 0-22.768l31.2-31.272a16.048 16.048 0 0 1 22.728 0c6.28 6.288 6.28 16.48 0 22.768l-31.2 31.272a16 16 0 0 1-11.36 4.72zM877.44 519.72a16.008 16.008 0 0 1-11.36-4.72 16.128 16.128 0 0 1 0-22.768l31.2-31.264a16.048 16.048 0 0 1 22.72 0c6.28 6.288 6.28 16.48 0 22.768l-31.2 31.272c-3.136 3.136-7.248 4.712-11.36 4.712zM148.928 602.112a16 16 0 0 1-11.36-4.72l-31.208-31.264a16.128 16.128 0 0 1 0-22.768 16.048 16.048 0 0 1 22.72 0l31.208 31.272c6.28 6.288 6.272 16.48 0 22.768-3.136 3.144-7.248 4.72-11.36 4.72zM877.36 396.928a16 16 0 0 1-11.36-4.72l-31.208-31.264a16.12 16.12 0 0 1 0-22.768 16.048 16.048 0 0 1 22.72 0l31.216 31.264c6.272 6.288 6.272 16.48 0 22.768-3.144 3.144-7.256 4.72-11.36 4.72zM249.056 810.912a16 16 0 0 1-11.36-4.72l-31.2-31.264a16.128 16.128 0 0 1 0-22.776 16.048 16.048 0 0 1 22.72 0l31.2 31.28c6.28 6.28 6.28 16.48 0 22.768-3.128 3.144-7.248 4.712-11.36 4.712zM410.424 909.872a16.008 16.008 0 0 1-11.36-4.712 16.128 16.128 0 0 1 0-22.768l19.568-19.616a16.048 16.048 0 0 1 22.72 0c6.28 6.296 6.28 16.48 0 22.776l-19.568 19.608a16 16 0 0 1-11.36 4.72zM758.088 839.36a16.008 16.008 0 0 1-11.36-4.72l-19.576-19.6a16.12 16.12 0 0 1 0-22.776 16.048 16.048 0 0 1 22.728 0l19.576 19.608c6.272 6.288 6.272 16.48 0 22.776-3.136 3.136-7.256 4.712-11.36 4.712zM858.248 716.28a16.008 16.008 0 0 1-11.36-4.712l-19.576-19.608a16.12 16.12 0 0 1 0-22.776 16.048 16.048 0 0 1 22.728 0l19.576 19.616c6.272 6.288 6.272 16.48 0 22.768-3.144 3.136-7.256 4.72-11.36 4.72zM597 908.056a16.008 16.008 0 0 1-11.36-4.72 16.12 16.12 0 0 1 0-22.768l19.568-19.608a16.048 16.048 0 0 1 22.72 0c6.28 6.28 6.28 16.48 0 22.768l-19.568 19.608c-3.136 3.144-7.248 4.72-11.36 4.72zM595.288 170.96a16 16 0 0 1-11.36-4.712l-31.2-31.272a16.12 16.12 0 0 1 0-22.768 16.048 16.048 0 0 1 22.72 0l31.2 31.272c6.28 6.288 6.28 16.48 0 22.768a16 16 0 0 1-11.36 4.72zM240.912 253.432a16.008 16.008 0 0 1-11.36-4.72 16.12 16.12 0 0 1 0-22.76l19.576-19.616a16.048 16.048 0 0 1 22.72 0c6.28 6.288 6.28 16.48 0 22.768l-19.568 19.608a16 16 0 0 1-11.36 4.72zM396.856 174.096a16.008 16.008 0 0 1-11.36-4.72l-19.576-19.6a16.128 16.128 0 0 1 0-22.776 16.048 16.048 0 0 1 22.72 0l19.576 19.608c6.272 6.296 6.272 16.48 0 22.776-3.136 3.136-7.248 4.712-11.36 4.712zM745.04 244.216a16.008 16.008 0 0 1-11.36-4.712 16.128 16.128 0 0 1-0.008-22.768l19.568-19.616a16.048 16.048 0 0 1 22.728 0c6.28 6.288 6.28 16.48 0 22.768l-19.568 19.616a16 16 0 0 1-11.36 4.72z" fill="#2F3953" /><path d="M511 698.256c-73.92 0-139.504 36.352-179.936 92.128a331.296 331.296 0 0 0 27.904 16.312c34.72-46.264 89.944-76.24 152.032-76.24 62.088 0 117.32 29.976 152.04 76.24a329.896 329.896 0 0 0 27.904-16.312c-40.432-55.776-106.024-92.128-179.944-92.128z m0-114.176c-106.816 0-202.144 50.176-263.784 128.232a333.568 333.568 0 0 0 21.144 25.224c55.56-73.6 143.648-121.256 242.64-121.256 99 0 187.088 47.656 242.648 121.256a333.568 333.568 0 0 0 21.136-25.224c-61.632-78.056-156.96-128.232-263.784-128.232z" fill="#FF6376" /><path d="M474.576 483.936a52.256 52.256 0 0 0 36.432-14.776 52.256 52.256 0 0 0 36.432 14.776c28.944 0 52.496-23.592 52.496-52.592a16.08 16.08 0 0 0-16.072-16.104 16.08 16.08 0 0 0-16.064 16.104 20.4 20.4 0 0 1-20.36 20.4 20.4 20.4 0 0 1-20.36-20.4 16.08 16.08 0 0 0-16.072-16.104 16.08 16.08 0 0 0-16.064 16.104 20.4 20.4 0 0 1-20.368 20.4 20.4 20.4 0 0 1-20.36-20.4 16.08 16.08 0 0 0-16.064-16.104 16.08 16.08 0 0 0-16.072 16.104c0 29 23.552 52.6 52.496 52.6zM286.48 373.056a29.12 29.12 0 0 0-29.096 29.152 29.12 29.12 0 0 0 29.096 29.152 29.12 29.12 0 0 0 29.088-29.152 29.12 29.12 0 0 0-29.088-29.152z m585.856-223.088C775.816 53.256 647.496 0 511 0 374.512 0 246.184 53.256 149.68 149.96 53.152 246.664 0 375.24 0 512c0 136.76 53.16 265.336 149.672 362.04C246.184 970.744 374.512 1024 511 1024c136.496 0 264.824-53.256 361.336-149.96C968.848 777.336 1022 648.76 1022 512c0-136.76-53.152-265.336-149.664-362.04z m-22.72 701.304c-90.456 90.624-210.704 140.536-338.616 140.536-127.904 0-248.16-49.912-338.6-140.536C81.952 760.648 32.136 640.16 32.136 512s49.816-248.648 140.256-339.264C262.84 82.112 383.096 32.2 511 32.2c127.912 0 248.16 49.912 338.608 140.528C940.056 263.36 989.864 383.84 989.864 512c0 128.16-49.808 248.656-140.256 339.28zM510.992 164.92c-191 0-346.4 155.704-346.4 347.08 0 191.376 155.392 347.08 346.4 347.08 191.016 0 346.4-155.704 346.4-347.08 0-191.376-155.392-347.08-346.4-347.08z m0 32.208c97.04 0 183.944 44.304 241.632 113.768a185.904 185.904 0 0 0-91.256 55.008 186.384 186.384 0 0 0-48.64 125.768c0 5.656 0.272 11.304 0.776 16.92a421.816 421.816 0 0 0-102.512-12.688c-34.824 0-69.224 4.352-102.488 12.688 0.504-5.616 0.768-11.264 0.768-16.92a186.4 186.4 0 0 0-48.64-125.768 185.944 185.944 0 0 0-91.264-55.008c57.696-69.472 144.592-113.776 241.624-113.776zM196.744 512a313.488 313.488 0 0 1 51.6-172.672 153.696 153.696 0 0 1 88.56 48.272 154.216 154.216 0 0 1 40.24 104.064 156.16 156.16 0 0 1-2.32 26.864 425.256 425.256 0 0 0-160.128 98.376A314.008 314.008 0 0 1 196.744 512z m314.256 314.88c-124.28 0-231.944-72.672-282.896-177.832 73.776-77 176.224-120.944 282.896-120.944 106.68 0 209.12 43.944 282.904 120.944-50.952 105.16-158.616 177.824-282.904 177.824zM647.2 518.528a156.024 156.024 0 0 1-2.32-26.864c0-38.616 14.288-75.568 40.24-104.072a153.696 153.696 0 0 1 88.544-48.272A313.456 313.456 0 0 1 825.264 512c0 36.768-6.344 72.072-17.952 104.904A425.256 425.256 0 0 0 647.2 518.536zM511 61.176C262.904 61.176 61.064 263.416 61.064 512s201.84 450.816 449.936 450.816c248.104 0 449.944-202.232 449.944-450.816 0-248.584-201.84-450.824-449.944-450.824z m0 869.44C280.624 930.624 93.2 742.824 93.2 512c0-230.824 187.424-418.624 417.8-418.624 230.384 0 417.808 187.792 417.808 418.624 0 230.832-187.432 418.624-417.808 418.624z m224.544-557.568a29.12 29.12 0 0 0-29.088 29.152 29.12 29.12 0 0 0 29.088 29.152 29.12 29.12 0 0 0 29.096-29.152 29.12 29.12 0 0 0-29.096-29.152z" fill="#000000" /></svg>
