<svg overflow="hidden" style="width: 1em;height: 1em;vertical-align: middle;fill: #57A773;overflow: hidden;" viewBox="0 0 1024 1024" version="1.1" xmlns="http://www.w3.org/2000/svg"><path d="M501.826 72c67.17 0 123.985 18.429 165.363 57.6a190.354 190.354 0 0 1 21.212 23.76c32.121-5.96 69.448-4.43 97.711 2.99 60.296 15.855 105.73 44.027 133.742 84.392 32.985 47.49 38.61 107.03 18.28 174.644-9.764 32.422-26.738 63.081-49.68 92-19.094 24.065-41.86 46.354-67.31 66.905-19.89 16.06-40.419 30.264-60.643 42.578l-1.224 0.742-2.421 1.458-2.387 1.42c-0.395 0.234-0.788 0.466-1.18 0.696l-2.333 1.364-1.153 0.668-1.113 0.639 0.235 2.05 0.13 1.089 0.27 2.186 0.288 2.198c0.098 0.734 0.199 1.47 0.302 2.206l0.317 2.212c0.162 1.106 0.33 2.213 0.502 3.32l0.352 2.21c0.12 0.737 0.24 1.472 0.365 2.206l0.378 2.197 0.39 2.185 0.402 2.17c0.408 2.163 0.833 4.299 1.273 6.394l0.445 2.082 0.455 2.051c1.455 6.445 3.05 12.394 4.72 17.41l0.7 2.094 1.014 3.061 0.974 2.97 0.934 2.883 0.601 1.876 0.871 2.751 0.56 1.793 0.811 2.634 0.522 1.72 0.506 1.693 0.492 1.67 0.478 1.645 0.463 1.623 0.45 1.604 0.437 1.585 0.424 1.569 0.412 1.553 0.4 1.54 0.387 1.527 0.376 1.516 0.366 1.508 0.178 0.752 0.35 1.497 0.338 1.493 0.33 1.49 0.16 0.744 0.315 1.487 0.306 1.489 0.297 1.49c0.05 0.25 0.098 0.498 0.146 0.747l0.285 1.497 0.277 1.504 0.136 0.754c4.046 22.66 4.402 43.992 0.292 65.27-8.183 42.377-28.642 77.196-58.942 101.667l-0.92 0.738-0.746 0.592c-27.25 21.518-60.645 32.493-98.224 32.714h-1.262a211.912 211.912 0 0 1-17.267-0.774C572.45 945.675 543.314 952 512.477 952c-34.316 0-66.542-7.822-93.684-22.15l-0.047 0.013c-2.28 0.654-4.508 1.27-6.674 1.846l-1.564 0.411-1.53 0.394-1.496 0.377-1.463 0.359c-0.482 0.116-0.96 0.23-1.431 0.34l-1.401 0.323-1.372 0.304-1.343 0.286-1.316 0.267-0.648 0.126-1.276 0.239c-4.426 0.8-8.397 1.247-12.122 1.3l-0.659 0.004c-36.463 0-61.537-10.614-92.01-34.942-29.729-23.695-49.698-58.173-59.569-101.314-4.927-21.532-4.704-43.197-0.343-66.474 0.365-1.946 0.738-3.835 1.127-5.698l0.214-1.014 0.327-1.514 0.337-1.508 0.346-1.506 0.357-1.509 0.368-1.514 0.38-1.523 0.53-2.052 0.274-1.037 0.424-1.573 0.59-2.136 0.308-1.087 0.476-1.657 0.664-2.264 0.521-1.745 0.918-3.007 0.779-2.504 1.25-3.943 1.353-4.192 1.72-5.244 2.168-6.519 0.65-1.946 0.71-2.157 0.348-1.069 0.682-2.118c0.224-0.702 0.444-1.399 0.661-2.092l0.642-2.066 0.313-1.023 0.612-2.027 0.59-2c0.195-0.663 0.385-1.322 0.572-1.976l0.55-1.948c0.271-0.968 0.534-1.927 0.789-2.875l0.5-1.884c0.162-0.624 0.322-1.243 0.478-1.858l0.458-1.833c0.224-0.91 0.44-1.81 0.648-2.7l0.406-1.767c1.055-4.68 1.884-9.085 2.482-13.216 0.946-6.54 1.259-12.12 0.973-16.555-0.112-1.732-0.31-3.215-0.573-4.431l-1-0.509-1.122-0.579-1.169-0.611-1.216-0.644-0.626-0.334a318.133 318.133 0 0 1-6.664-3.676l-1.981-1.132-2.014-1.168a381.437 381.437 0 0 1-10.525-6.387c-21.645-13.61-43.257-30.013-63.512-49.347-39.158-37.375-68.544-81.153-83.744-131.65-20.344-67.575-14.724-127.088 18.272-174.651 28.055-40.358 73.449-68.517 133.734-84.385 26.274-6.894 51.672-10.423 75.604-10.423 2.106 0 4.164 0.203 6.156 0.592a189.151 189.151 0 0 1 15.814-16.924C377.833 90.425 434.648 72 501.826 72z m-217.59 140.246l-0.229 0.035c-9.324 1.382-18.964 3.37-28.856 5.966-46.541 12.25-78.89 32.317-97.433 58.992-20.916 30.15-24.64 69.594-9.556 119.698 11.714 38.92 34.972 73.568 66.648 103.801 16.94 16.17 35.181 30.015 53.39 41.463l0.945 0.593 1.868 1.157a299.495 299.495 0 0 0 9.695 5.72l1.648 0.923 0.81 0.447 1.592 0.868 1.301 0.698 0.998 0.528 0.941 0.491 1.306 0.67 1.261 0.63 0.684 0.333 0.478 0.228a31.841 31.841 0 0 1 13.334 12.12 31.85 31.85 0 0 1 11.968 13.02c8.184 16.37 9.694 35.687 6.725 58.316l-0.237 1.748c-0.04 0.292-0.083 0.585-0.125 0.878-1.8 12.444-4.897 25.719-9.186 40.196l-0.747 2.494a508.058 508.058 0 0 1-4.08 12.836l-1.914 5.74-1.792 5.429-1.025 3.145-1.14 3.545-1.047 3.318-0.65 2.099-0.762 2.507-0.708 2.39-0.531 1.84-0.501 1.78-0.474 1.73-0.447 1.686-0.424 1.65-0.303 1.216-0.385 1.603-0.277 1.19-0.354 1.576-0.339 1.572-0.404 1.97-0.159 0.8a208.11 208.11 0 0 0-0.309 1.614c-2.844 15.183-2.978 28.161-0.174 40.412 6.8 29.723 19.38 51.441 37.091 65.558l1.241 0.985 1.22 0.957 1.201 0.928 0.594 0.454 1.173 0.888 0.58 0.433 1.147 0.847c0.38 0.277 0.757 0.55 1.131 0.82l1.117 0.793c4.225 2.974 8.142 5.381 11.976 7.303-13.253-24.909-19.918-54.103-19.918-86.797 0-21.606 5.05-42.236 14.475-63.318l0.273-0.609 0.548-1.21 0.552-1.2 0.557-1.193 0.562-1.187 0.567-1.182 0.573-1.178 0.581-1.176 0.588-1.175 0.597-1.174 0.606-1.177 0.615-1.178 0.625-1.183 0.637-1.188 0.976-1.795 1.005-1.813 0.687-1.222 1.057-1.856 1.092-1.885 1.128-1.921 0.773-1.302 1.194-1.989 1.235-2.035 1.281-2.086 0.88-1.421 0.9-1.447 1.394-2.222 1.938-3.064 2.037-3.191 1.056-1.646 4.568-7.081 0.598-0.95 0.614-0.995 0.63-1.037 0.646-1.079 0.662-1.12 0.677-1.162 0.692-1.2 0.706-1.24 0.72-1.28 0.733-1.315 0.747-1.352 0.95-1.74c0.383-0.706 0.77-1.424 1.16-2.152l1.181-2.218 1.2-2.28 0.608-1.165c2.076-3.989 4.18-8.14 6.28-12.371a1117.188 1117.188 0 0 1-25.232-35.194l-2.333-3.408c-3.097-4.543-6.138-9.08-9.12-13.61l-2.226-3.395c-32.113-49.216-57.267-97.543-73.228-143.903-12.363-35.91-18.958-70.036-18.958-102.151 0-42.975 5.782-80.757 17.16-113.209z m436.468 1.694l-0.694 0.035c10.984 32.064 16.564 69.267 16.564 111.48 0 32.103-6.59 66.215-18.941 102.108-18.344 53.304-48.843 109.207-88.1 166.07a1095.6 1095.6 0 0 1-11.686 16.595c3.92 11.562 8.515 20.976 15.418 32.291l0.61 0.996 0.949 1.531 0.999 1.595 1.06 1.675 1.135 1.776 1.22 1.894 8.114 12.489 3.548 5.502 1.692 2.646 1.63 2.567 1.57 2.493 1.015 1.624 1.475 2.38 0.954 1.553 1.388 2.283 0.898 1.492 0.876 1.47 0.856 1.45 0.837 1.43 0.817 1.414 0.8 1.398 0.392 0.693 0.773 1.377c0.128 0.228 0.254 0.456 0.38 0.683l0.749 1.359 0.733 1.348 0.719 1.34 0.704 1.334 0.692 1.327 0.679 1.323 0.667 1.32 0.656 1.32 0.646 1.32 0.637 1.322 0.627 1.325 0.62 1.33 0.612 1.335 0.605 1.343 0.6 1.353c9.089 20.679 13.957 40.958 13.957 62.147 0 25.2-3.955 48.321-11.837 69 16.548-14.686 27.919-35.135 32.944-61.16 2.456-12.715 2.294-25.944-0.28-40.885l-0.28-1.573-0.212-1.148-0.22-1.15-0.227-1.15-0.356-1.733-0.248-1.161-0.256-1.168-0.266-1.176-0.275-1.184-0.285-1.195-0.447-1.815-0.47-1.845-0.494-1.88-0.344-1.274-0.537-1.947-0.374-1.324-0.584-2.026-0.613-2.08-0.643-2.138-0.446-1.46-0.46-1.487-0.964-3.068-0.762-2.386-0.528-1.634-1.389-4.244-1.186-3.57-0.307-0.919c-5.32-15.974-9.76-37.2-12.538-57.7l-0.338-2.558c-1.391-10.772-2.311-21.273-2.646-30.626a31.859 31.859 0 0 1 0.096-4.834 31.813 31.813 0 0 1 4.182-13.036l0.075-0.127a31.8 31.8 0 0 1 9.61-10.273l0.141-0.095a31.808 31.808 0 0 1 4.042-2.314l1.284-0.652 1.375-0.714 1.938-1.024 1.284-0.689 1.378-0.747 1.458-0.798 1.987-1.1c1.004-0.56 2.025-1.136 3.062-1.725l2.095-1.2c1.058-0.609 2.132-1.233 3.22-1.872l2.196-1.297 2.235-1.336c0.75-0.452 1.508-0.91 2.272-1.375 17.935-10.92 36.17-23.537 53.718-37.707 47.885-38.665 82.15-81.854 95.912-127.553 15.073-50.127 11.344-89.597-9.566-119.703-18.516-26.68-50.886-46.752-97.433-58.991-13.746-3.61-31.803-5.186-49.145-4.31zM501.826 136c-52.015 0-93.124 13.332-121.37 40.071-31.823 30.126-49.379 78.895-49.379 149.384 0 24.411 5.271 51.688 15.472 81.317 3.9 11.329 8.477 22.891 13.685 34.65-0.297-5.026-0.183-9.84 0.366-14.484 2.052-17.347 10.324-31.933 24.437-41.48l0.363-0.244c0.739-0.491 1.472-0.943 2.203-1.362l0.115-0.065-0.03-0.904-0.074-2.475-0.062-2.425-0.035-1.572-0.03-1.537-0.031-2.239-0.018-2.16-0.004-1.398 0.002-1.363 0.01-1.33 0.016-1.297 0.024-1.263 0.03-1.23 0.019-0.604 0.042-1.182 0.05-1.15 0.058-1.118 0.066-1.087 0.074-1.056 0.04-0.516 0.087-1.01 0.046-0.493 0.1-0.965 0.109-0.935 0.057-0.456c1.7-13.052 5.833-26.254 12.602-37.416 10.107-16.669 25.629-28.073 45.671-29.79 12.137-1.041 22.392-0.177 32.708 4.125 13.021 5.429 22.9 15.447 29.398 29.095l0.374 0.8c1.231 2.669 2.294 5.398 3.312 8.415l0.103 0.307 0.1-0.296c1.025-3.035 2.099-5.786 3.346-8.49l0.344-0.736c6.503-13.66 16.4-23.681 29.442-29.1 10.316-4.287 20.564-5.14 32.704-4.09 18.861 1.634 33.55 12.831 43.968 28.813 7.463 11.449 12.578 25.444 14.266 38.372 1.185 9.119 1.566 19.478 1.182 31.255l-0.027 0.787 0.617 0.375c0.387 0.24 0.773 0.49 1.159 0.746l0.853 0.58c7.577 5.249 13.168 12.115 17.035 20.071 9.992-29.27 15.153-56.233 15.153-80.39 0-70.48-17.558-119.25-49.384-149.378C594.941 149.334 553.832 136 501.826 136z" /></svg>