<svg overflow="hidden" viewBox="0 0 1024 1024" version="1.1" xmlns="http://www.w3.org/2000/svg"><path d="M512.008 512.008m-495.896 0a495.896 495.896 0 1 0 991.792 0 495.896 495.896 0 1 0-991.792 0Z" fill="#FFD553" /><path d="M512.008 512.008m-386.376 0a386.376 386.376 0 1 0 772.752 0 386.376 386.376 0 1 0-772.752 0Z" fill="#FFB446" opacity=".7" /><path d="M16.104 512c0 273.872 222.024 495.896 495.896 495.896S1007.896 785.88 1007.896 512H16.104z" fill="#FDBA55" /><path d="M225.552 776.488m-29.16 0a29.16 29.16 0 1 0 58.32 0 29.16 29.16 0 1 0-58.32 0Z" fill="#CF9945" /><path d="M497.848 910.32m-29.16 0a29.16 29.16 0 1 0 58.32 0 29.16 29.16 0 1 0-58.32 0Z" fill="#CF9945" /><path d="M885.496 672.144m-29.16 0a29.16 29.16 0 1 0 58.32 0 29.16 29.16 0 1 0-58.32 0Z" fill="#CF9945" /><path d="M748.352 759.952m-29.16 0a29.16 29.16 0 1 0 58.32 0 29.16 29.16 0 1 0-58.32 0Z" fill="#CF9945" /><path d="M449.488 616.368m-29.16 0a29.16 29.16 0 1 0 58.32 0 29.16 29.16 0 1 0-58.32 0Z" fill="#CF9945" /><path d="M375.04 818.28m-29.16 0a29.16 29.16 0 1 0 58.32 0 29.16 29.16 0 1 0-58.32 0Z" fill="#CF9945" /><path d="M680.2 876.608m-29.16 0a29.16 29.16 0 1 0 58.32 0 29.16 29.16 0 1 0-58.32 0Z" fill="#CF9945" /><path d="M556.176 759.952m-29.16 0a29.16 29.16 0 1 0 58.32 0 29.16 29.16 0 1 0-58.32 0Z" fill="#CF9945" /><path d="M315.64 672.144m-29.16 0a29.16 29.16 0 1 0 58.32 0 29.16 29.16 0 1 0-58.32 0Z" fill="#CF9945" /><path d="M690.032 616.368m-29.16 0a29.16 29.16 0 1 0 58.32 0 29.16 29.16 0 1 0-58.32 0Z" fill="#CF9945" /><path d="M135.552 616.368m-29.16 0a29.16 29.16 0 1 0 58.32 0 29.16 29.16 0 1 0-58.32 0Z" fill="#CF9945" /><path d="M362.344 360.432m-30.424 0a30.424 30.424 0 1 0 60.848 0 30.424 30.424 0 1 0-60.848 0Z" fill="#3F4963" /><path d="M394.88 457.112h-65.088a16.104 16.104 0 1 1 0-32.216h65.096a16.104 16.104 0 1 1 0 32.216z" fill="#FF6376" /><path d="M661.664 360.432m-30.424 0a30.424 30.424 0 1 0 60.848 0 30.424 30.424 0 1 0-60.848 0Z" fill="#3F4963" /><path d="M694.208 457.112H629.12a16.104 16.104 0 1 1 0-32.216h65.096a16.104 16.104 0 1 1 0 32.216z" fill="#FF6376" /><path d="M481.76 431.232a46.4 46.4 0 0 1-46.36-46.352 16.104 16.104 0 1 1 32.216 0 14.16 14.16 0 0 0 14.136 14.136 14.16 14.16 0 0 0 14.144-14.136 16.104 16.104 0 1 1 32.208 0 46.4 46.4 0 0 1-46.352 46.352z" fill="#3F4963" /><path d="M542.248 431.232a46.4 46.4 0 0 1-46.352-46.352 16.104 16.104 0 1 1 32.208 0 14.16 14.16 0 0 0 14.144 14.136 14.16 14.16 0 0 0 14.136-14.136 16.104 16.104 0 1 1 32.216 0c0 25.552-20.8 46.352-46.352 46.352z" fill="#3F4963" /><path d="M488.376 315.152a16.104 16.104 0 0 1-16.104-16.112v-27.92a16.104 16.104 0 1 1 32.208 0v27.92a16.104 16.104 0 0 1-16.104 16.112zM557.096 269.336a16.104 16.104 0 0 1-16.104-16.112v-27.92a16.104 16.104 0 1 1 32.208 0v27.92a16.104 16.104 0 0 1-16.104 16.112zM329.792 301.192a16.104 16.104 0 0 1-16.104-16.112v-27.92a16.104 16.104 0 1 1 32.208 0v27.92a16.104 16.104 0 0 1-16.104 16.112zM261.168 366.88a16.104 16.104 0 0 1-16.112-16.104v-27.92a16.104 16.104 0 1 1 32.216 0v27.92a16.104 16.104 0 0 1-16.104 16.104zM225.56 455.488a16.104 16.104 0 0 1-16.104-16.112v-27.92a16.104 16.104 0 1 1 32.216 0v27.92a16.104 16.104 0 0 1-16.112 16.112zM412.504 255.376a16.104 16.104 0 0 1-16.112-16.104v-27.92a16.104 16.104 0 1 1 32.216 0v27.92a16.104 16.104 0 0 1-16.112 16.104zM620.088 255.376a16.104 16.104 0 0 1-16.104-16.104v-27.92a16.104 16.104 0 1 1 32.208 0v27.92a16.104 16.104 0 0 1-16.104 16.104zM690.024 301.192a16.104 16.104 0 0 1-16.104-16.112v-27.92a16.104 16.104 0 1 1 32.208 0v27.92a16.104 16.104 0 0 1-16.104 16.112zM748.352 376.544a16.104 16.104 0 0 1-16.104-16.112v-27.912a16.104 16.104 0 1 1 32.208 0v27.92a16.104 16.104 0 0 1-16.104 16.104zM799.76 455.488a16.104 16.104 0 0 1-16.104-16.112v-27.92a16.104 16.104 0 1 1 32.216 0v27.92a16.104 16.104 0 0 1-16.104 16.112z" fill="#FBD151" /><path d="M362.336 330.008a30.432 30.432 0 1 0 0.008 60.856 30.432 30.432 0 0 0 0-60.856z m210.16 38.768a16.104 16.104 0 0 0-16.112 16.104 14.16 14.16 0 0 1-14.136 14.136 14.16 14.16 0 0 1-14.144-14.136 16.104 16.104 0 1 0-32.216 0 14.16 14.16 0 0 1-14.136 14.136 14.16 14.16 0 0 1-14.144-14.136 16.104 16.104 0 1 0-32.208 0 46.4 46.4 0 0 0 46.352 46.352 46.12 46.12 0 0 0 30.24-11.304 46.128 46.128 0 0 0 30.256 11.304 46.4 46.4 0 0 0 46.352-46.352 16.104 16.104 0 0 0-16.112-16.104z m301.544-218.816C777.336 53.264 648.76 0 512 0 375.24 0 246.664 53.256 149.96 149.96 53.256 246.672 0 375.248 0 512c0 136.76 53.256 265.336 149.96 362.04C246.664 970.744 375.24 1024 512 1024c136.76 0 265.336-53.256 362.04-149.96C970.744 777.336 1024 648.76 1024 512c0-136.76-53.256-265.336-149.96-362.04z m-701.296 22.784C263.36 82.12 383.84 32.208 512 32.208c128.16 0 248.64 49.912 339.256 140.536 86.816 86.8 136.232 201.04 140.24 323.152h-77.36C905.648 281.4 728.536 109.52 512 109.52c-216.536 0-393.648 171.888-402.136 386.376h-77.36c4.008-122.12 53.424-236.352 140.24-323.16z m709.152 323.152H142.104c8.456-196.72 171.12-354.16 369.896-354.16s361.44 157.44 369.896 354.16z m-30.64 355.36C760.64 941.888 640.16 991.8 512 991.8c-128.16 0-248.64-49.912-339.256-140.536-86.816-86.8-136.232-201.04-140.24-323.152h958.984c-4 122.12-53.416 236.344-140.232 323.152z m-189.6-521.248a30.424 30.424 0 1 0 0 60.848 30.424 30.424 0 0 0 0-60.848z" fill="#000000" /></svg>
