<svg overflow="hidden" viewBox="0 0 1024 1024" xmlns="http://www.w3.org/2000/svg">
  <path d="M208 432h608l-48 300c-17 106-109 184-216 184h-80c-107 0-199-78-216-184z" fill="#FFF7DF" stroke="#26353A" stroke-width="42" stroke-linejoin="round"/>
  <ellipse cx="512" cy="432" rx="304" ry="112" fill="#FFD885" stroke="#26353A" stroke-width="42"/>
  <ellipse cx="512" cy="430" rx="238" ry="66" fill="#F2B84B"/>
  <g fill="#FFF1B8" stroke="#26353A" stroke-width="18">
    <ellipse cx="390" cy="414" rx="42" ry="24" transform="rotate(18 390 414)"/>
    <ellipse cx="482" cy="452" rx="44" ry="25" transform="rotate(-12 482 452)"/>
    <ellipse cx="578" cy="405" rx="42" ry="24" transform="rotate(15 578 405)"/>
    <ellipse cx="660" cy="452" rx="40" ry="23" transform="rotate(-18 660 452)"/>
  </g>
  <path d="M716 150 604 454" fill="none" stroke="#26353A" stroke-width="42" stroke-linecap="round"/>
  <ellipse cx="748" cy="126" rx="62" ry="42" fill="#96E8BA" stroke="#26353A" stroke-width="34" transform="rotate(-22 748 126)"/>
  <circle cx="430" cy="650" r="24" fill="#26353A"/>
  <circle cx="594" cy="650" r="24" fill="#26353A"/>
  <path d="M458 720c30 34 78 34 108 0" fill="none" stroke="#26353A" stroke-width="30" stroke-linecap="round"/>
</svg>
