<svg width="200" height="200" viewBox="0 0 1024 1024" version="1.1" xmlns="http://www.w3.org/2000/svg"><path d="M355.07185758 579.92284767c10.37564623 19.45433497 36.11522754 61.35598149 86.99579844 91.48525993 37.51194942 22.14801295 72.9288167 28.73255657 93.77987214 30.92740441 85.79860805 0.39906301 171.59721473 0.79812598 257.39582281 1.09742463 15.56346796-0.39906301 95.27636116-3.890867 149.84826478-67.44169635 23.74426631-27.73489906 34.21967694-56.96628436 39.10820279-76.02155632-209.00939841 6.58454361-418.11856255 13.26885434-627.12796096 19.9531637z" fill="#BFE3D2" /><path d="M471.89763582 414.0122848c-60.95691711 27.13630318-135.88105019 60.55785411-137.87636655 113.13444273-2.09508212 56.26792413 80.11195481 102.9583294 94.27870228 111.03936063 32.62342354 18.45667745 59.56019662 23.64450059 112.13678524 33.02248793 109.24357575 19.65386645 192.1489743 10.47541198 219.58457474 6.88384223 47.38876551-6.18548061 76.52038645-10.07634761 113.2342085-27.4356018 16.2618296-7.68196823 113.73303724-54.07307626 114.33163312-115.62858787 0.69836025-64.64825261-106.2506005-109.14381001-146.35646218-127.10165872-33.32178518-14.76534197-182.87075271-76.91944944-369.33307514 6.08571487z" fill="#CEE8D3" /><path d="M631.92201534 386.57668437c183.36958145-15.06463921 297.20238582 75.12366459 321.44548089 107.54755663 4.28992999 5.78641761 14.86510773 19.85339934 14.86510771 38.90867129 0 27.63513331-22.4473102 48.08712716-37.7114809 61.75504311-13.36862009 11.87213246-36.41452479 29.13161956-86.89603132 45.79251352-11.77236672 3.890867-53.773779 17.15972134-117.82343711 22.8463732-28.73255657 2.59391086-76.91944944 4.88852587-137.27777207-2.29461363-66.34427172-7.88149972-109.44310726-12.9695571-156.73210701-41.2032849-28.73255657-17.15972134-87.59439155-52.17752563-86.89603129-93.77987354 0.99765887-68.93818398 160.8225055-129.19674083 287.0262711-139.57238568z" fill="#B4DFD2" /><path d="M477.58428768 492.92705063c12.27119685-5.58688611 13.66791733-3.59156974 42.30070954-13.7676831 34.51897417-12.17142972 36.91335492-16.66089258 52.57658863-20.55175957 21.15035408-5.28758886 26.63747443 0.39906301 75.92179057 5.68665185 57.16581586 6.08571487 57.36534737-0.59859451 87.69415866 6.88384223 37.41218367 9.37798736 32.22436055 18.45667745 67.44169498 25.14098682 24.94145532 4.68899299 41.6023479 2.79344236 67.44169635 14.86510773 12.5704941 5.88618336 21.25011983 10.07634761 26.3381772 19.45433493 11.17377223 20.55175957-3.890867 49.98267777-16.06229671 65.24684849-11.27353798 14.16674747-31.1269373 25.9391142-97.27167753 41.20328492-60.05902538 13.86744884-107.74708812 11.17377223-159.02672065 7.98126547-61.85481024-3.890867-93.48057629-4.58922723-128.0993162-20.25246232-15.66323372-7.08337374-78.71523431-35.81593029-76.62015222-73.22811397 1.99531637-32.72318929 52.87588588-56.56722138 57.36534738-58.66230348z" fill="#E57E30" /><path d="M128.90273923 733.86151231c-55.5695625-31.62576606-95.57565842-78.51570283-89.19064631-116.62624672 8.28056273-49.58361339 97.17191179-98.46886653 217.28996114-73.22811396-3.99063274 7.88149972-8.08103122 15.76299947-12.07166399 23.64450058-13.46838585 26.43794294-27.03653744 52.87588588-40.50492327 79.31382882-22.4473102 3.79110125-44.99438614 7.58220249-67.44169636 11.47306948l12.57049273 45.79251213c-9.57751884-3.39203825-19.05527196-6.88384224-28.63279082-10.27587909 2.59391086 13.16908859 5.28758886 26.53770869 7.98126688 39.90632876z" fill="#FFE09F" /><path d="M339.60815536 669.91161997c-28.23372782-6.98360798-56.46745563-14.06698034-84.70118342-21.05058833l-16.06229672 19.65386645c-10.57517773-8.6796271-21.15035408-17.25948708-31.72553181-25.93911281-4.88852587 11.97189822-9.77705036 23.84403206-14.76534197 35.8159303l-46.69040527-24.54239231-28.73255655 40.70445477c18.25714596 47.28899977 61.85481024 78.51570283 108.74474702 78.61546857 57.26558162 0.09976576 91.28572704-46.39110802 93.4805749-49.48384764 14.86510773-20.95082258 19.05527196-42.2009424 20.45199382-53.773779z" fill="#FFE09F" /><path d="M526.17024357 504.79918447c13.26885434-0.09976576 14.06698034-25.73958269 30.9274058-34.31944405 21.44965133-10.97424073 63.35129787 8.87915861 70.93349897 34.31944405 3.39203825 11.27353798-1.39672187 18.9555062 5.68665186 29.73021405 8.28056273 12.5704941 21.34988558 12.37096259 21.74894995 19.45433633 0.39906301 7.78173398-15.06463921 19.35456921-28.63279081 17.15972135-17.55878433-2.89320949-18.45667745-26.63747443-35.41686729-29.73021544-14.06698034-2.59391086-17.05995558 12.9695571-37.71148091 16.0622981-16.56112685 2.39437938-30.82763868-5.98594912-59.46043087-22.84637459-17.85808158-10.57517773-19.35456921-14.36627897-19.45433497-17.15972133-0.1995315-10.47541198 20.75129107-23.2454362 36.6140563-19.45433495 8.08103122 1.89555062 8.87915861 6.78407648 14.76534197 6.78407648z" fill="#EDBA30" /><path d="M520.98242046 583.21512016c-8.87915861-14.86510773-12.07166398-21.25011983-11.47306946-29.73021543 0.1995315-2.49414512 1.29695612-13.66791733 9.17845584-20.5517582 16.76065834-14.66557621 50.18220925 1.79578487 60.65761987 6.98360662 11.07400647 5.48712036 42.89930403 21.15035408 41.20328491 41.10351915-0.89789174 10.47541198-10.77470924 17.35925283-21.74894859 25.14098681-9.47775311 6.68431074-32.42389206 22.94613894-51.47916539 14.86510772-4.88852587-2.19484786-12.07166398-14.06698034-26.33817718-37.81124667zM400.96413685 545.204342c0.29929725-13.46838585 8.28056273-22.54707595 11.37330374-25.93911419 15.86276522-17.95784871 45.39344915-24.14332932 53.07541736-15.06463923 6.38501211 7.58220249-7.68196823 19.95316509-1.59625336 39.10820279 4.68899299 14.76534197 16.16206384 16.86042409 14.96487345 24.84168958-1.79578487 11.77236672-29.53068394 23.84403206-51.47916399 14.86510772-14.26651323-5.88618336-26.63747443-20.75129107-26.3381772-37.81124667z" fill="#DE1E2D" /><path d="M412.33744059 559.57062096c-1.29695612-2.09508212-8.6796271 1.09742463-9.17845587 0-0.49882875-1.39672187 9.17845586-9.97658185 17.15972133-7.98126685 12.67025985 3.09274099 12.5704941 30.62810719 20.55175959 30.92740581 4.0903985 0.09976576 7.58220249-7.08337374 11.47306947-14.86510771 1.89555062-3.890867 5.08805737-10.47541198 5.68665186-19.45433497 0.59859451-8.97892436-2.09508212-10.97424073 0-17.15972133 0.59859451-1.79578487 3.29227249-10.07634761 10.27588049-11.47307085 5.48712036-1.09742463 11.17377223 2.69367662 13.76768309 6.88384224 1.59625338 2.49414512 1.99531637 5.08805737 1.09742325 18.25714595-0.89789174 14.16674747-1.69601911 16.56112685 0 18.25714459 3.890867 3.890867 13.76768309-1.79578487 25.14098817-5.68665186 22.34754445-7.58220249 54.17284201-9.47775311 61.7550445 2.29461498 5.88618336 9.0786901-7.18313949 19.35456921-1.09742461 30.92740444 7.18313949 13.76768309 30.42857568 8.08103122 35.41686728 20.55175959 3.29227249 8.28056273-3.29227249 19.5541007-10.27588047 25.1409868-13.16908859 10.57517773-34.71850567 6.78407648-48.08712577-2.29461361-18.65620896-12.67025985-19.95316509-35.0178043-28.63279081-34.31944268-8.57986135 0.69836025-8.6796271 22.74660746-20.55175957 25.14098682-7.68196823 1.59625338-11.27353798-7.08337374-28.6327922-12.57049273-10.37564623-3.29227249-10.2758791-0.59859451-20.55175819-3.39203823-17.25948708-4.78876012-17.75831583-12.47072835-38.90867129-21.74894995-10.47541198-4.58922723-19.75363221-6.88384224-19.45433497-9.17845585 0.1995315-1.39672187 3.890867-1.09742463 9.17845448-3.39203686 8.97892436-3.99063274 15.36393647-12.47072835 13.86745024-14.86510774z" fill="#FFCF35" /><path d="M727.79697099 591.99451302c-12.37096259 4.58922723-4.48946147 29.0318538-17.35925284 42.79953828-16.46136109 17.65855009-62.55317047 13.16908859-78.3161713-8.18079835-6.98360798-9.47775311-5.08805737-18.25714596-15.46370225-26.03887996-12.07166398-8.97892436-24.34286081-4.38969573-27.03653743-10.87447358-3.09274099-7.18313949 7.58220249-23.34520194 21.05058833-25.83934844 17.45901858-3.29227249 26.33817718 18.7559747 43.49789853 15.96253094 14.06698034-2.39437938 11.67260097-18.05761446 30.02951269-27.83466342 14.76534197-7.88149972 31.02717018-4.78876012 63.75036085 1.29695475 20.35222807 3.890867 23.14567045 6.98360798 24.14332932 9.57751885 3.69133549 9.8768161-11.57283522 28.93208804-27.83466481 30.72787431-8.48009423 0.69836025-10.97424073-3.69133549-16.46136109-1.59625338z" fill="#EDBA30" /><path d="M696.47050355 501.70644348c13.46838585 10.97424073 18.55644321 15.86276522 20.85105684 24.04356356 0.69836025 2.39437938 3.49180399 13.26885434-1.59625337 22.4473102-10.77470924 19.5541007-47.78782851 15.36393647-59.36066512 14.06698034-12.27119685-1.39672187-47.48853126-5.38735461-52.67635439-24.64215805-2.69367662-10.17611334 4.19016425-20.05293084 11.87213386-31.02717018 6.68431074-9.57751884 22.74660746-32.62342354 43.39813279-31.42623457 5.18782313 0.29929725 15.96253095 9.0786901 37.51194939 26.5377087zM831.85272363 511.38372808c4.28992999 12.67025985-0.1995315 24.04356356-1.89555062 28.33349356-8.87915861 22.2477787-34.51897417 38.1105439-44.79485329 32.22436055-8.57986135-4.98829161 0.39906301-21.34988558-11.77236809-37.31241792-9.47775311-12.37096259-20.95082258-10.37564623-22.4473102-18.25714458-2.29461362-11.67260097 19.65386645-32.42389206 43.39813278-31.42623454 15.26417071 0.49882875 32.02482906 10.37564623 37.51194942 26.43794293z" fill="#DE1E2D" /><path d="M816.28925565 547.99778575c1.99531637 1.59625338 7.78173398-3.99063274 8.57986138-3.092741 0.99765887 1.09742463-5.18782313 12.47072835-13.3686201 13.36862011-12.9695571 1.39672187-22.2477787-24.54239233-29.82998119-22.04824721-3.890867 1.29695612-4.78876012 9.17845586-5.68665185 17.85808296-0.49882875 4.38969573-1.29695612 11.57283522 1.19718899 20.25246096 2.49414512 8.6796271 5.68665187 9.57751884 5.78641761 16.16206383 0.09976576 1.89555062 0.29929725 10.57517773-5.78641761 14.26651322-4.78876012 2.89320949-11.37330371 1.29695612-15.26417073-1.79578487-2.29461362-1.79578487-3.59156974-4.19016425-7.28290521-16.86042408-3.99063274-13.66791733-3.99063274-16.16206384-6.18548063-17.25948708-4.88852587-2.39437938-12.27119685 6.38501211-21.74894855 13.96721459-18.45667745 14.76534197-47.78782851 27.33583469-58.8618364 18.85574045-8.57986135-6.58454361 0.1995315-20.65152532-9.37798734-29.43091818-11.47306947-10.47541198-31.32646881 2.79344236-40.30539177-7.28290386-5.98594912-6.68431074-3.49180399-19.5541007 1.09742463-27.13630458 8.77939285-14.36627897 30.32880993-18.15738021 45.99204362-14.16674607 21.84871571 5.58688611 30.62810719 26.13864569 38.50960692 22.54707594 7.88149972-3.49180399 0.49882875-24.34286081 10.77470923-30.62810856 6.68431074-4.0903985 12.9695571 2.79344236 31.1269373 2.09508212 10.87447498-0.39906301 9.8768161-2.99297524 20.55175959-3.79110125 17.85808158-1.29695612 20.95082258 5.68665187 43.99672727 7.28290525 11.47306947 0.79812598 20.95082258-0.29929725 21.34988556 1.99531637 0.29929725 1.39672187-3.29227249 2.29461362-7.48243672 6.28524773-6.88384224 6.68431074-9.97658185 16.86042409-7.781734 18.55644321z" fill="#FFCF35" /><path d="M806.21290805 578.1270628c5.58688611-4.68899299 20.25246233 8.97892436 24.54239232 4.28993138 1.79578487-1.99531637 0.69836025-6.38501211-1.19719036-13.46838586-0.89789174-3.19250674-2.29461362-8.48009423-6.08571485-14.36627896s-5.98594912-6.18548061-7.88149975-10.87447498c-0.49882875-1.29695612-2.99297524-7.58220249-0.1995315-10.87447497 2.19484786-2.69367662 6.68431074-2.29461362 9.87681611-0.49882876 4.98829161 2.69367662 4.48946147 7.88149972 8.97892434 11.17377223 5.68665187 4.19016425 13.26885434 1.09742463 18.0576131-0.9976575 11.27353798-4.78876012 9.8768161-10.37564623 17.05995557-11.57283661 9.47775311-1.49648763 13.36862009 8.18079697 27.83466482 11.07400649 14.56581047 2.79344236 19.65386645-4.88852587 26.83700595 0.49883012 5.48712036 4.0903985 7.38267099 13.56815159 6.48477924 19.55410073-1.59625338 11.37330371-13.86744884 16.56112685-24.54239233 15.56346795-14.96487346-1.39672187-25.83934844-15.06463921-29.73021544-11.57283523-3.890867 3.49180399 6.18548061 17.45901858 1.49648763 23.2454362-3.09274099 3.69133549-8.77939285-0.49882875-19.75363359 2.19484925-5.28758886 1.29695612-8.97892436 1.89555062-11.67260098 5.08805598-4.19016425 4.98829161-1.29695612 10.07634761-4.38969572 13.06932285-6.18548061 6.08571487-29.13161956-2.49414512-35.4168673-17.35925284-1.99531637-4.0903985-3.49180399-11.47306947-0.29929726-14.16674747z" fill="#FFCF35" /><path d="M771.49440101 573.93689856c18.25714596 1.39672187 30.32880993 7.78173398 34.81827279 10.07634897 23.64450059 12.37096259 30.82763868 32.9227208 18.05761311 37.31241655-10.67494348 3.59156974-26.83700595-7.08337374-53.07541739-4.68899299-20.35222807 1.79578487-23.74426631 9.37798736-34.51897417 7.78173398-15.96253095-2.29461362-31.1269373-22.14801295-17.85808298-36.21499328 8.57986135-9.0786901 29.53068394-16.06229809 52.57658864-14.26651323z" fill="#DE1E2D" /></svg>
