<svg width="1024" height="1024" viewBox="0 0 1024 1024" version="1.1" xmlns="http://www.w3.org/2000/svg"><path d="M66.19 738.03c2.39 41.18 33.76 75.58 75.05 80.8 42.68 5.4 106.69-1.05 197.53-43.32 0 0 416.31-181.69 540.54-378.14 0 0 49-82.43 51.96-152.97 1.24-29.57-13.29-57.64-37.94-74.36-52.25-35.45-176.24-91.82-392.54-38.99 0 0-343.32 67.7-430.61 448.07 0 0.02-10.13 53.16-3.99 158.91z" fill="#FFC67B" /><path d="M584.5 115.17s-3.06 154.95-44.02 169.16c0 0-23.56-131.75-60.42-147.99-0.01 0 58.84-16.35 104.44-21.17zM183.48 336.63s83.05 140.79 70.01 185.83c0 0-86.83-101.91-126.95-97.72 0.01 0 27.18-52.68 56.94-88.11zM365.11 184.25s62.22 183.34 29.41 211.49c0 0-77.84-151.04-118.15-152.69 0-0.01 48.13-37.69 88.74-58.8z" fill="#FFEE55" /><path d="M141.64 495.33s-71.05 88.49-61.12 196.48 61.12-196.48 61.12-196.48z" fill="#FFDAAE" /><path d="M909.55 184.25c3.61 69.01-305.31 450.06-618.91 611.35 0 0 342.16-141.32 497.43-294.66-0.01 0.01 229.55-205.04 121.48-316.69z" fill="#F2AC57" /></svg>
