<svg overflow="hidden" viewBox="0 0 1024 1024" version="1.1" xmlns="http://www.w3.org/2000/svg"><path d="M340.4 415c-10.9-26.9-7.4-19.6-7.4-19.6s0.6-18.1 68.5-21.5c67.9-3.4 83 15.7 118.1 29.4S598 415 639.3 382.5c41.4-32.5 92.8-46.8 131.9-20.5s79.4 40.6 118.5 15.3-8.5 97.5-8.5 97.5l-78.1 63-47.9 16.2S634.5 536.6 635 540.6c0.5 4-14.2-12.6-14.2-12.6l18.7-32.2-25.5-36.7-38.9-8.2-65.6-3.9-18.7 7.6-64.8-67-85.6 27.4z" fill="#FFD885" /><path d="M767.3 584.6c-8.1 0-15.8-5-18.8-13.1-3.8-10.4 1.5-21.9 11.8-25.7 92.6-34.2 132-97.7 124.1-199.9-0.9-11 7.4-20.6 18.4-21.5 11-0.9 20.6 7.4 21.5 18.4 4.8 61.2-6.1 112.8-32.4 153.1-25 38.4-64.6 67.8-117.7 87.4-2.3 0.9-4.6 1.3-6.9 1.3z" fill="#333333" /><path d="M217.4 364.4c-5.4 0-10.8-2.2-14.8-6.5l-14-15.4c-1.8-1.9-3.1-4.2-4-6.7-4.5-12.4-7.6-39 9-60.5 16.4-21.2 46.8-31.5 90.6-30.7 0.1-6.8 0.8-14.4 2.6-22.6 5.3-24.5 21.1-57.5 66.6-75.8 54-21.8 89.5-9.3 108.7 3.5 14.2-14.3 36.9-35 55.6-42.5 17.4-7 37.7-7.7 57.1-2 16.7 4.9 32.7 14.4 46.9 27.9 3.8-2.4 7.5-4.9 11.3-7.4 17.8-11.7 36.2-23.9 53.8-30.7 24.3-9.5 44.9-7.7 61 5.4 21 17 26 37.5 29.3 51 0.2 0.8 0.4 1.7 0.6 2.6 4.5-2.2 10.2-5.3 14.8-7.8 23.7-13.1 56.2-30.9 89.3-24.5 14.1 2.8 21.8 10.5 25.7 16.6 11.3 17.4 6.1 40 1.5 59.9-0.8 3.6-1.9 8.2-2.6 12.2 38.8-1.6 74.4 11.9 78.1 13.3 4.1 1.5 28.5 11.7 32.9 35.1 3.1 16.3-4.2 32.3-21.6 47.8-40.3 35.8-74.8 52.8-76.3 53.5-9.9 4.8-21.9 0.7-26.7-9.2-4.8-9.9-0.7-21.9 9.2-26.7 0.3-0.1 31.3-15.5 67.2-47.4 6.4-5.7 8.2-9.3 8.7-10.5-1.2-1.5-4.7-3.9-7.6-5.1-0.2-0.1-0.2-0.1-0.5-0.2s-35.1-13.7-68.6-10.1c-14.8 1.6-23.4-4.3-28-9.6-12.1-13.6-7.6-33.2-3.2-52.1 1.7-7.5 5.2-22.5 4.1-28.3-18.9-3.7-43 9.6-62.3 20.3-19 10.5-34 18.7-48.8 13.8-17.9-5.9-22-22.9-24.8-34.2-2.6-10.7-5.1-20.9-15.6-29.4-11.5-9.3-41.3 10.3-67.6 27.6-8.6 5.6-17.4 11.5-26.3 16.8-8.5 5.1-19.4 3.2-25.7-4.4-25.4-30.7-53.8-33.9-70.3-27.2-13.9 5.6-40 30.5-54.1 46.3-4.1 4.6-9.9 7.4-16.1 7-6.1-0.4-11.5-3.3-14.9-8.3-2.1-2.5-25.1-27.7-79.2-6-23.4 9.4-37.7 25.3-42.4 47.1-3.6 16.4-0.5 30.6-0.4 30.7 1.5 6.3-0.1 12.9-4.3 17.8s-10.6 7.4-17 6.8c-40-3.8-68.7 1.3-78.7 13.8-5.2 6.6-4.7 15.1-3.9 19.6l10.6 11.7c7.4 8.2 6.8 20.8-1.3 28.3-4 3.6-8.8 5.4-13.6 5.4z" fill="#333333" /><path d="M353.7 325.8c-4 0-7.8-2.4-9.3-6.4-3.4-8.9-28.3-32.2-44.8-45.9-4.3-3.5-4.8-9.8-1.3-14.1 3.5-4.3 9.8-4.8 14.1-1.3 7.3 6.1 44.2 37.2 50.7 54.1 2 5.2-0.6 10.9-5.7 12.9-1.3 0.5-2.5 0.7-3.7 0.7zM485.4 258.7h-0.5c-5.5-0.3-9.8-4.9-9.5-10.5 0.5-10.1-15-43.3-26.2-63.6-2.7-4.8-0.9-10.9 4-13.6 4.8-2.7 10.9-0.9 13.6 4 4.9 9 29.5 54.9 28.6 74.2-0.3 5.3-4.7 9.5-10 9.5zM620.8 245.4c-4.8 0-9.1-3.5-9.9-8.4-2.9-17.8-2.7-75.8-2.7-78.3 0-5.5 4.5-10 10-10s10 4.5 10 10c-0.1 16.3 0.2 61.6 2.4 75 0.9 5.5-2.8 10.6-8.3 11.5-0.4 0.1-1 0.2-1.5 0.2zM741.4 257.7c-4.9 0-9.2-3.6-9.9-8.6-2.8-19.1 21.4-64.5 28.9-78 2.7-4.8 8.8-6.6 13.6-3.9 4.8 2.7 6.6 8.8 3.9 13.6-13.8 24.8-27.8 56.9-26.6 65.4 0.8 5.5-3 10.5-8.5 11.3-0.4 0.2-0.9 0.2-1.4 0.2zM841.5 301.5c-4.9 0-9.1-3.6-9.9-8.5-1.7-11.2 6.4-24.7 25.4-42.3 12.3-11.4 24.8-20.4 25.3-20.8 4.5-3.2 10.7-2.2 14 2.3 3.2 4.5 2.2 10.7-2.3 14-0.2 0.2-11.8 8.5-23 18.9-19.8 18.3-19.7 25-19.7 25.1 0.8 5.5-3 10.5-8.4 11.3-0.4-0.1-0.9 0-1.4 0z" fill="#333333" /><path d="M78.7 586.6s50.1-45.9 115.7-19.3c65.6 26.6 71.5 51.2 98.6 79.5 27.1 28.3 68.8 45.4 122.1 32.9s108.2-3.5 133.6 38.5 57.2 73.1 105.2 66.4c48-6.8-50.8 88.4-50.8 88.4l-101.4 25.3-195-36.9L166.3 783S72 660.9 73.4 630.7c1.5-30.2 5.3-44.1 5.3-44.1z" fill="#FFD885" /><path d="M497.7 933.4c-55.9 0-122.7-15.1-203.4-45.6-40.1-15.1-78.1-37.1-113.1-65.2-32.5-26.1-60.9-56.3-84.4-89.7-22.6-32.1-39.7-66.3-49.5-99-9.6-32-12.3-62.7-7.7-89.2l-2.3-6.6c-0.1-0.2-0.1-0.3-0.1-0.5L7.8 443.9c-0.8-2.5-1.1-5.1-0.8-7.7 1.2-13.5 9.8-39.7 34.6-52.5 24.7-12.8 57.9-9 99 11.1 3.1-6.5 7.2-13.7 12.7-20.8 15.6-20.6 44.8-44.7 95.4-42 60.8 3.2 88.6 30.8 100.9 51.2 19.6-7.3 50.4-17.1 71.4-16 19.3 1 38.6 9.2 54.3 23 13.7 12 24.6 28.1 32 47.2 4.8-0.7 9.7-1.4 14.5-2.1 21.9-3.3 44.6-6.6 64.1-5.4 26.8 1.7 45.2 12.3 54.6 31.4 12.3 25 8 46.4 5.3 60.5-0.2 1.2-0.5 2.5-0.7 3.8 5.3 0 12.6-0.5 18.5-0.9 28-1.9 66.3-4.6 94.5 15.9 11.9 8.6 15.7 19.1 16.7 26.4 3 21-11.7 39.9-24.7 56.6-2.6 3.3-5.9 7.6-8.5 11.3 37.7 15.4 65.8 44.2 68.5 47 3.1 3.2 21.5 23.2 15.5 46.8-4.1 16.4-17.9 28.2-40.8 35.1-36.5 10.9-66.6 21.3-80.6 26.2-11.8 29.1-26.4 54.1-43.7 74.2-18.7 21.9-41 38.8-66.3 50.3-28.2 12.5-60 18.9-96.5 18.9z m-422.4-408l3.9 11.4c1.2 3.4 1.4 7.1 0.6 10.6-9.4 43.9 9.2 104.7 49.8 162.4 44.3 63.1 109.6 114.3 178.9 140.5 76.3 28.8 138.3 43.1 188.9 43.1 30.7 0 57.2-5.3 80.2-15.7C619 859 649.2 822.8 670 767c2-5.5 6.4-9.8 11.8-11.8 1.6-0.6 39.7-14.5 91.3-30 9.7-2.9 12.8-5.9 13.4-6.6-0.2-2.2-3.3-7-5.2-8.9l-0.4-0.4c-0.2-0.3-27.3-28.5-60.6-39.8-14.3-4.9-19.7-14-21.8-20.8-5.3-17.7 6.8-33.4 19.7-49.9 4.7-6.1 15.5-19.9 16.6-25.7-0.1-0.1-0.3-0.2-0.4-0.3-16.4-11.9-45.2-9.9-68.3-8.3-22.3 1.5-40 2.7-51.6-8.1-14-13.1-10.6-30-8.2-42.4 2.3-11.4 4.4-22.2-1.9-35.1-7.1-14.4-44.1-8.9-76.8-4-10.6 1.6-21.5 3.2-32.2 4.3-9.8 1.1-19-5.3-21.5-14.8-10.6-40.6-36.4-56.2-55.2-57.2-16.6-0.9-52.8 11.9-71.8 20.1-5.7 2.5-12.1 2.5-17.5-0.4s-9-7.8-10-13.8c-0.9-3.3-11.5-37.8-72.9-41-26.5-1.4-47.2 7.4-61.4 26.2-10.7 14.1-14 29-14.1 29.2-1.3 6.3-5.5 11.7-11.4 14.3-5.9 2.6-12.7 2.3-18.3-1-36.6-21.4-66.3-29.2-81.4-21.4-8.1 4.2-11.3 12.8-12.5 17.4l27.9 88.6z m657.5 105.9z" fill="#333333" /><path d="M174.7 501.5h-0.7c-5.5-0.4-9.7-5.1-9.3-10.6 0.7-10-12.6-42.9-22.2-63.2-2.4-5-0.3-11 4.7-13.3 5-2.4 11-0.3 13.3 4.7 4.2 8.9 25.4 54.4 24.1 73.1-0.3 5.2-4.7 9.3-9.9 9.3zM328.4 495.8c-1.6 0-3.1-0.4-4.6-1.1-4.9-2.6-6.8-8.6-4.2-13.5 4.9-9.4 4.9-47.6 3.2-71.8-0.4-5.5 3.8-10.3 9.3-10.6 5.5-0.4 10.3 3.8 10.6 9.3 0.7 10.6 3.8 64.6-5.5 82.4-1.7 3.4-5.2 5.3-8.8 5.3zM462.2 542.6c-0.9 0-1.8-0.1-2.7-0.4-5.3-1.5-8.4-7-6.9-12.3 5.1-18 30.7-72.7 31.8-75 2.3-5 8.3-7.1 13.3-4.8s7.1 8.3 4.8 13.3c-7.2 15.4-26.8 58.3-30.6 71.9-1.3 4.4-5.3 7.3-9.7 7.3zM646 692.4c-0.9 0-1.9-0.1-2.8-0.4-5.3-1.6-8.3-7.1-6.8-12.4 3.3-11.2 16.7-20.3 42.3-28.5 16.6-5.4 32.3-8.4 33-8.6 5.4-1 10.7 2.5 11.7 7.9s-2.5 10.7-7.9 11.7c-0.1 0-15 2.9-30.4 7.9-26.5 8.6-29.5 15.2-29.6 15.2-1.2 4.3-5.2 7.2-9.5 7.2z" fill="#333333" /><path d="M575.1 596.7c-2.7 0-5.5-1.1-7.4-3.3-3.7-4.1-3.4-10.4 0.7-14.1l51.2-46c4.1-3.7 10.4-3.4 14.1 0.7 3.7 4.1 3.4 10.4-0.7 14.1l-51.2 46c-1.9 1.7-4.3 2.6-6.7 2.6z" fill="#333333" /></svg>
