<svg overflow="hidden" viewBox="0 0 1024 1024" version="1.1" xmlns="http://www.w3.org/2000/svg"><path d="M684.1 505.6c-9.8-155.9-97-243.2-96.1-332.8l-76.8-10.4-76.8 10.4c0.9 89.6-86.3 177-96.1 332.8-6.6 104.7-3.2 275.3 3 365.3 1.7 24.4 21.9 43.2 46.3 43.2h247.2c24.4 0 44.6-18.9 46.3-43.2 6.2-90 9.6-260.6 3-365.3z" fill="#D5D8D2" /><path d="M634.8 936.6H387.6c-36.1 0-66.3-28.2-68.8-64.2-6.6-96.1-9.3-266.9-3-368.2 5.6-89.3 36-158.2 60.3-213.5 19.3-44 36.1-81.9 35.7-117.7l-0.2-19.8 99.5-13.5 99.4 13.5-0.2 19.8c-0.3 35.8 16.4 73.7 35.7 117.7 24.4 55.4 54.7 124.3 60.3 213.6 6.4 101.3 3.6 272.2-3 368.2-2.2 35.9-32.4 64.1-68.5 64.1z m-178.9-744c-4.1 38.1-20.3 74.7-38.5 116.2-24.1 54.8-51.5 117-56.6 198.2-6.3 99.5-3.5 267.7 3 362.3 0.9 12.5 11.4 22.3 23.9 22.3h247.2c12.5 0 23-9.8 23.9-22.3 6.5-94.6 9.2-262.8 3-362.3-5.1-81.3-32.5-143.4-56.6-198.3-18.3-41.5-34.4-78.2-38.5-116.2l-55.3-7.5-55.5 7.6z" fill="" /><path d="M622.2 363.4h-222c-16.3 41.6-30.5 88.2-34.1 144-6.7 105.8-2.8 277.7 3 361.6 0.7 9.7 8.8 17.3 18.5 17.3h247.2c9.7 0 17.9-7.6 18.5-17.3 5.8-83.9 9.6-255.8 3-361.6-3.5-55.8-17.7-102.4-34.1-144z" fill="#FFFFFF" /><path d="M387.7 870.9c-6.2-90-9.6-260.6-3-365.3 9.8-155.9 97-243.2 96.1-332.8l62.8-8.5-13.9-1.9-76.7 10.4c0.9 89.6-86.3 177-96.1 332.8-6.6 104.7-3.2 275.3 3 365.3 1.7 24.4 21.9 43.2 46.3 43.2H434c-24.4 0.1-44.6-18.8-46.3-43.2z" fill="#FFFFFF" /><path d="M684.1 505.6c-9.8-155.9-97-243.2-96.1-332.8l-76.8-10.4-39.8 5.4 37 5c-0.9 89.6 30.6 177 40.4 332.8 6.6 104.7 3.2 275.3-3 365.3-1.7 24.4-21.9 43.2-46.3 43.2h135.3c24.4 0 44.6-18.9 46.3-43.2 6.2-90 9.6-260.6 3-365.3z" fill="#41443E" /><path d="M629.2 205.7h-236c-0.6 0-1-0.4-1-1V101.5c0-0.6 0.4-1 1-1h235.9c0.6 0 1 0.4 1 1v103.2c0.1 0.6-0.4 1-0.9 1z" fill="#C98D65" /><path d="M612.2 228.2h-202c-22.3 0-40.5-18.2-40.5-40.5v-69.2c0-22.3 18.2-40.5 40.5-40.5h201.9c22.3 0 40.5 18.2 40.5 40.5v69.2c0.1 22.3-18.1 40.5-40.4 40.5z m-197.5-45h192.9V123H414.7v60.2z" fill="" /><path d="M600.8 181.6H421.7c-5.1 0-9.3-4.2-9.3-9.3v15.2c0 5.1 4.2 9.3 9.3 9.3h179.1c5.1 0 9.3-4.2 9.3-9.3v-15.2c-0.1 5.2-4.2 9.3-9.3 9.3z" fill="#41443E" /><path d="M602.3 630.8c-28.1-8.8-57.2-13.5-86.4-13-32.8 0-65.1 4.7-96.3 13.5l-10.9 3.1 0.5-10.9c2.1-22.9 7.8-45.3 17.2-66.6-15.6-1.6-30.7-18.2-38.5-28.1l-5.7-7.8 8.8-4.2c9.9-4.7 26-5.7 38-5.7h8.3c-6.8-17.7-4.7-37 4.7-53.1l7.3-12.5 6.2 12.5c4.2 7.8 10.4 19.3 13 23.4h9.4l1.6 5.7c5.7 19.3 30.7 82.2 115 82.2h6.2l1.6 5.2c5.2 15.6 8.8 31.7 10.4 47.9l1 11.4-11.4-3z" fill="#EAEEEF" /><path d="M519 710.9H503.4c-40.6 0-68.2-11.5-82.8-34.9-7.3-12.5-11.4-27.1-11.4-41.6v-5.7l5.7-1.6c32.8-9.4 67.1-14.1 101.5-14.6 31.2-0.5 61.9 4.7 91.1 14.6l5.2 2.1v5.7c0 14.6-3.6 29.1-11.5 41.6-14 23-41.6 34.4-82.2 34.4zM591.4 574.6c-84.3-1.6-109.8-63.5-116.1-82.8l-3.1-9.9h81.7c2.6-4.2 8.8-15.6 13-23.4l6.2-12.5 7.3 12c9.4 16.1 10.9 35.4 4.7 53.1h8.3c12 0 28.1 1 38 5.7l8.8 4.2-5.7 7.3c-6.2 8.3-21.9 26.5-38.5 28.1 1 2.1 1.6 4.2 3.1 7.3l4.2 10.9h-11.9z" fill="#C98D65" /><path d="M593.4 507.9h-4.7c5.2-17.7 3.1-36.4-6.2-52-3.6-5.2-6.8-7.8-9.9-7.8-2.6 0-5.2 1.6-5.7 4.2-1.6 3.6-8.8 17.2-14.6 27.1h-82.2c-5.7-9.9-13-23.4-14.6-27.1-1-2.6-3.1-4.2-5.7-4.2-3.1 0-6.2 2.6-9.9 7.8-9.4 15.6-11.4 34.3-6.2 52H429c-23.4 0-39 3.6-45.3 10.4-1.6 1.6-2.1 4.7-0.5 6.2 2.1 3.1 19.8 28.6 40.1 33.3-8.3 20.3-29.7 80.1-4.7 119.2 15.1 23.9 43.7 35.9 84.8 35.9H519c41.6 0 70.3-12 84.8-35.9 25-39.6 3.6-98.9-4.7-119.2 20.3-4.7 38-30.2 40.1-33.3 1.6-2.1 1-4.7-0.5-6.2-6.2-6.7-21.8-10.4-45.3-10.4z m1.6 164c-13 20.8-38.5 31.2-76 31.2h-15.1c-37.5 0-63-10.4-76-31.2-6.8-11.4-10.4-24.5-9.9-37.5 18.2-5.7 105.7-28.6 187.9 0-0.5 13-4.1 26-10.9 37.5z m9.9-48.4c-80.7-26.5-162.9-6.8-187.4 0 2.1-23.4 8.3-45.8 17.7-67.1 1-2.6 0-5.7-2.6-6.8-1-0.5-2.1-0.5-2.6-0.5-13 1-28.1-15.6-35.9-25.5 10.9-3.6 22.9-5.2 34.3-4.7 7.3 0 12 0.5 12 0.5 2.6 0.5 5.2-1.6 5.7-4.7 0-1 0-2.1-0.5-2.6-7.3-16.1-6.2-34.3 2.6-49.4 4.7 8.8 13 22.9 14.1 25 1 1.6 2.6 2.6 4.7 2.6h4.7c5.2 17.7 31.7 87.4 122.3 87.4h1c5.2 14.5 8.3 29.6 9.9 45.8z m-13-74.5c-2.1 0-3.6 0.5-4.7 2.1-1 1.6-1 3.6-0.5 5.2 0 0 2.1 4.2 4.2 10.4-78.1-1.6-102.5-57.8-108.8-77h72.3c2.1 0 3.6-1 4.7-2.6 1-2.1 9.4-16.1 14.1-25 8.8 15.1 9.9 33.8 2.6 50-1 2.6 0 5.7 2.6 6.8 1 0.5 2.1 0.5 2.6 0.5 0 0 5.2-0.5 12-0.5 11.4-0.5 23.4 1 34.3 4.7-6.8 9.8-22.4 26-35.4 25.4z" fill="#240A00" /><path d="M456.6 657.8c-1-2.6-4.2-3.6-6.8-2.6s-3.6 4.2-2.6 6.8v0.5l9.4 19.3c1 2.6 4.2 3.6 6.8 2.6 2.6-1 3.6-4.2 2.6-6.8v-0.5l-9.4-19.3zM558.6 683.8c2.6 1 5.7 0 6.8-2.6l9.4-19.3c1.6-2.6 0.5-5.7-2.1-6.8-2.6-1-5.7-0.5-6.8 2.1v0.5l-9.4 19.3c-1.6 2.7-0.5 5.8 2.1 6.8z" fill="#240A00" /><path d="M461.8 539.7m-12 0a12 12 0 1 0 24 0 12 12 0 1 0-24 0Z" fill="#240A00" /><path d="M561.2 539.7m-12 0a12 12 0 1 0 24 0 12 12 0 1 0-24 0Z" fill="#240A00" /></svg>
