<svg overflow="hidden" viewBox="0 0 1024 1024" xmlns="http://www.w3.org/2000/svg">
  <ellipse cx="512" cy="714" rx="326" ry="126" fill="#D99032" stroke="#26353A" stroke-width="42"/>
  <rect x="186" y="598" width="652" height="126" rx="63" fill="#F2B84B" stroke="#26353A" stroke-width="42"/>
  <rect x="206" y="482" width="612" height="126" rx="63" fill="#FFD885" stroke="#26353A" stroke-width="42"/>
  <rect x="232" y="360" width="560" height="132" rx="66" fill="#F2B84B" stroke="#26353A" stroke-width="42"/>
  <ellipse cx="512" cy="360" rx="280" ry="112" fill="#FFE7A7" stroke="#26353A" stroke-width="42"/>
  <path d="M430 280c64-28 146-16 188 28l-32 136c-22 44-126 44-148 0z" fill="#E7B83D"/>
  <rect x="438" y="236" width="148" height="92" rx="24" fill="#FFF7DF" stroke="#26353A" stroke-width="30" transform="rotate(-6 512 282)"/>
  <circle cx="430" cy="654" r="22" fill="#26353A"/>
  <circle cx="594" cy="654" r="22" fill="#26353A"/>
  <path d="M462 704c28 28 72 28 100 0" fill="none" stroke="#26353A" stroke-width="28" stroke-linecap="round"/>
</svg>
