<svg overflow="hidden" viewBox="0 0 1659 1024" version="1.1" xmlns="http://www.w3.org/2000/svg"><path d="M406.553924 648.38643c-60.921519 54.686785-117.876658 108.181063-159.80881 179.342583a658.146835 658.146835 0 0 0-31.718076 61.102987 1810.380152 1810.380152 0 0 0-21.205873 48.672405c-18.069063 42.94319-67.596962 63.125063-110.630887 45.081924a84.434633 84.434633 0 0 1-51.770329-76.916658c-0.686987-61.828861 2.475747-124.435443 13.078684-185.434734 16.526582-95.16719 55.321924-183.982987 96.696709-270.621165 40.234127-84.214278 141.234228-119.911696 225.591088-79.781266 84.369823 40.143392 120.157975 140.949063 79.936811 225.15038a172.524557 172.524557 0 0 1-40.182279 53.403544z" fill="#FDBA55" /><path d="M644.860759 518.571747c-1.814684-3.758987-72.017013 30.058937-78.394329 33.053164-7.025418 3.279392-14.310076 6.416203-20.998481 10.343697l-7.49205 4.394126c-35.995544 21.089215-69.398684 44.86157-100.274228 73.002127-26.701772 24.342684-50.422278 51.848101-71.74481 80.986734-11.795443 16.111797-22.229873 33.040203-33.312405 49.605671-7.906835 11.795443-15.943291 12.106532-26.896203 7.310582L36.876962 659.287494c-10.732557-4.718177-13.947139-16.915443-8.580861-29.708962a2761.896506 2761.896506 0 0 1 20.324456-46.987342 893.679797 893.679797 0 0 1 43.90238-83.721722 948.301772 948.301772 0 0 1 129.672101-169.867341c36.851038-38.432405 76.696304-74.103899 119.665418-105.601621 39.793418-29.164557 82.166278-54.246076 124.979848-78.679493L644.860759 518.584709z" fill="#CF9945" /><path d="M1252.572354 648.38643c60.908557 54.686785 117.876658 108.181063 159.808811 179.342583a658.146835 658.146835 0 0 1 31.705113 61.102987 1810.380152 1810.380152 0 0 1 21.205874 48.672405c18.069063 42.94319 67.609924 63.125063 110.630886 45.081924a84.434633 84.434633 0 0 0 51.770329-76.916658c0.686987-61.828861-2.462785-124.435443-13.065721-185.434734-16.539544-95.16719-55.334886-183.982987-96.709671-270.621165C1477.670886 365.399494 1376.696709 329.702076 1292.313924 369.832506c-84.369823 40.143392-120.157975 140.949063-79.923848 225.15038a172.576405 172.576405 0 0 0 40.169316 53.403544z" fill="#FDBA55" /><path d="M1014.252557 518.571747c1.827646-3.758987 72.017013 30.058937 78.407291 33.053164 7.012456 3.279392 14.310076 6.416203 20.998481 10.343697l7.492051 4.394126c35.995544 21.089215 69.398684 44.86157 100.261266 73.002127 26.701772 24.342684 50.422278 51.848101 71.74481 80.986734 11.795443 16.111797 22.242835 33.040203 33.312405 49.605671 7.919797 11.795443 15.956253 12.106532 26.909164 7.310582l268.858329-117.980354c10.732557-4.718177 13.947139-16.915443 8.580861-29.708962a2734.468861 2734.468861 0 0 0-20.324456-46.987342 894.457519 894.457519 0 0 0-43.902379-83.721722 948.444354 948.444354 0 0 0-129.672102-169.867341c-36.851038-38.432405-76.696304-74.103899-119.652455-105.601621-39.793418-29.164557-82.179241-54.246076-124.99281-78.679493L1014.252557 518.584709z" fill="#CF9945" /><path d="M829.56962 568.51443c25.742582 0.06481 51.32962 2.203544 76.929621 5.132962a594.853266 594.853266 0 0 1 168.908151 45.483747c2.618329 1.127696 14.867443 7.258734 28.490532 14.07676 22.566886 11.276962 50.137114 11.147342 67.402532-10.577013l263.725367-331.724152c11.497316-14.452658 0.19443-39.015696-9.02157-46.818835a1052.516456 1052.516456 0 0 0-69.981975-54.310886c-19.183797-13.649013-39.702684-26.079595-60.040101-37.913924-76.307443-44.394937-160.029165-77.927696-245.682228-99.353924-69.69681-17.420962-157.073823-26.183291-220.743291-26.183292-63.656506 0-151.046481 8.762329-220.743291 26.183292-85.640101 21.426228-169.361823 54.958987-245.669266 99.353924-20.35038 11.834329-40.856304 24.264911-60.053063 37.900962a1051.673924 1051.673924 0 0 0-69.969013 54.323848c-9.216 7.790177-20.518886 32.366177-9.021569 46.818835l263.712405 331.724152c17.27838 21.724354 44.848608 21.841013 67.415493 10.577013 13.623089-6.805063 25.872203-12.962025 28.47757-14.07676a594.918076 594.918076 0 0 1 168.908152-45.483747c25.612962-2.929418 51.2-5.05519 76.942582-5.132962z" fill="#FDBA55" /><path d="M781.273114 396.378734c-40.804456 0-74.013165-33.130937-74.013165-73.85762 0-14.167494 11.523241-25.66481 25.716659-25.66481 14.20638 0 25.716658 11.497316 25.716658 25.66481a22.579848 22.579848 0 0 0 45.159696 0c0-14.167494 11.510278-25.66481 25.703696-25.66481 14.20638 0 25.716658 11.497316 25.716658 25.66481 0 40.726684-33.195747 73.85762-74.000202 73.85762z" fill="#3F4963" /><path d="M877.853165 396.378734c-40.804456 0-74.013165-33.130937-74.013165-73.85762 0-14.167494 11.523241-25.66481 25.716658-25.66481 14.20638 0 25.716658 11.497316 25.716658 25.66481a22.579848 22.579848 0 0 0 45.146735 0c0-14.167494 11.510278-25.66481 25.716658-25.66481 14.193418 0 25.703696 11.497316 25.703696 25.66481 0 40.726684-33.182785 73.85762-74.000202 73.85762z" fill="#3F4963" /><path d="M1120.463392 437.610937h-103.903595a25.690734 25.690734 0 0 1-25.716658-25.66481c0-14.167494 11.523241-25.66481 25.716658-25.664811h103.903595c14.193418 0 25.716658 11.497316 25.716659 25.664811 0 14.180456-11.523241 25.66481-25.716659 25.66481z" fill="#FF6376" /><path d="M1117.067342 320.162025a25.690734 25.690734 0 0 1-25.703696-25.66481 22.852051 22.852051 0 0 0-45.704102 0c0 14.167494-11.510278 25.66481-25.716658 25.66481a25.690734 25.690734 0 0 1-25.703696-25.66481c0-40.882228 33.312405-74.142785 74.272405-74.142785 40.96 0 74.272405 33.260557 74.272405 74.142785 0 14.167494-11.510278 25.66481-25.716658 25.66481z" fill="#3F4963" /><path d="M642.553519 437.610937h-103.903595a25.690734 25.690734 0 0 1-25.703696-25.66481c0-14.167494 11.510278-25.66481 25.703696-25.664811h103.903595c14.20638 0 25.716658 11.497316 25.716658 25.664811 0 14.180456-11.510278 25.66481-25.716658 25.66481z" fill="#FF6376" /><path d="M639.17043 320.162025a25.690734 25.690734 0 0 1-25.716658-25.66481 22.852051 22.852051 0 0 0-45.691139 0c0 14.167494-11.523241 25.66481-25.716658 25.66481a25.690734 25.690734 0 0 1-25.716659-25.66481c0-40.882228 33.312405-74.142785 74.272406-74.142785 40.96 0 74.272405 33.260557 74.272405 74.142785 0 14.167494-11.497316 25.66481-25.703697 25.66481z" fill="#3F4963" /><path d="M1474.767392 828.649316a48.581671 48.477975 0 1 0 97.163342 0 48.581671 48.477975 0 1 0-97.163342 0Z" fill="#3F4963" opacity=".2" /><path d="M1311.744 595.00881a48.581671 48.477975 0 1 0 97.163342 0 48.581671 48.477975 0 1 0-97.163342 0Z" fill="#3F4963" opacity=".2" /><path d="M170.658025 556.239392a48.581671 48.477975 0 1 0 97.163342 0 48.581671 48.477975 0 1 0-97.163342 0Z" fill="#3F4963" opacity=".2" /><path d="M590.614684 220.367392c-40.96 0-74.272405 33.260557-74.272406 74.142785 0 14.167494 11.497316 25.66481 25.703697 25.66481a25.690734 25.690734 0 0 0 25.716658-25.66481 22.852051 22.852051 0 0 1 45.691139 0c0 14.167494 11.510278 25.66481 25.716658 25.66481a25.690734 25.690734 0 0 0 25.716659-25.66481c0-40.882228-33.325367-74.142785-74.272405-74.142785zM1633.21519 682.476557c23.227949-10.602937 32.210633-36.876962 21.322532-62.801013a2717.125671 2717.125671 0 0 0-20.674431-47.790987 924.516456 924.516456 0 0 0-45.159696-86.119696 970.013165 970.013165 0 0 0-133.197772-174.481823c-0.686987-0.738835-1.412861-1.451747-2.11281-2.190582l1.775797-2.216507c10.330734-13.000911 13.11757-30.357063 7.854987-48.866835-3.823797-13.402734-11.445468-25.924051-20.389265-33.480911a1086.347342 1086.347342 0 0 0-71.68-55.658937c-21.231797-15.074835-43.267241-28.257215-62.023291-39.158279-77.914734-45.341165-162.816-79.67757-252.370633-102.088911C991.076456 11.251038 901.962532 0.661063 829.56962 0.661063c-72.405873 0-161.506835 10.589975-227.003949 26.961013C513.036962 50.033418 428.135696 84.382785 350.208 129.710987c-18.756051 10.901063-40.791494 24.083443-62.023291 39.171241a1082.290228 1082.290228 0 0 0-71.68 55.633013c-8.943797 7.582785-16.57843 20.091139-20.376304 33.480911-5.275544 18.522734-2.488709 35.878886 7.842025 48.866835l1.775798 2.229469-2.11281 2.17762A970.155747 970.155747 0 0 0 70.435646 485.777823 925.488608 925.488608 0 0 0 25.275949 571.884557c-1.672101 3.642329-12.625013 28.633114-20.661468 47.790987-10.888101 25.898127-1.905418 52.185114 21.322532 62.788051-2.566481 11.264-4.834835 22.424304-6.740254 33.390177C9.332658 772.510785 4.92557 834.68962 5.742177 905.967797a110.047595 110.047595 0 0 0 67.506228 100.300152 109.788354 109.788354 0 0 0 42.554329 8.593823c43.059848 0 84.045772-25.353722 101.751899-67.402531 8.166076-19.404152 14.608203-34.193823 20.907747-47.972456a634.335595 634.335595 0 0 1 30.460759-58.717975 461.162937 461.162937 0 0 1 26.520304-39.974886c8.140152 3.564557 15.411848 5.029266 21.853975 5.029266 18.833823 0 30.642228-12.495392 36.760304-21.594734 3.564557-5.327392 7.051342-10.693671 10.551088-16.046988 7.453165-11.432506 14.491544-22.216911 22.139139-32.664303 22.035443-30.123747 44.394937-55.373772 68.322836-77.188861 5.495899-4.99038 11.160304-9.928911 16.967291-14.776709 13.895291 14.711899 32.63838 22.748354 53.494278 22.748354 13.700861 0 27.959089-3.499747 41.219241-10.136303l4.886683-2.436861c9.527089-4.757063 20.324456-10.136304 22.359494-11.056608a567.399696 567.399696 0 0 1 161.584608-43.513519c29.021975-3.331241 52.561013-4.912608 73.935392-4.964455 21.504 0.06481 45.043038 1.633215 74.065013 4.964455a567.179342 567.179342 0 0 1 161.558683 43.500557c2.073924 0.933266 12.871291 6.325468 22.385418 11.06957l4.886684 2.436861c13.273114 6.636557 27.51838 10.136304 41.21924 10.136303 20.855899 0 39.598987-8.036456 53.494279-22.748354 5.806987 4.847797 11.484354 9.786329 16.967291 14.776709 23.927899 21.815089 46.27443 47.052152 68.322835 77.175899 7.647595 10.447392 14.685975 21.244759 22.139139 32.664303 3.499747 5.366278 6.999494 10.732557 10.577013 16.098836 6.092152 9.073418 17.900557 21.555848 36.73438 21.555848 6.442127 0 13.713823-1.477671 21.866937-5.05519a460.825924 460.825924 0 0 1 26.494379 39.987848 637.407595 637.407595 0 0 1 30.486684 58.730937c6.286582 13.765671 12.728709 28.568304 20.907747 47.972456 17.693165 42.04881 58.679089 67.402532 101.751898 67.402531 14.20638 0 28.646076-2.773873 42.541367-8.593823a110.021671 110.021671 0 0 0 67.506228-100.300152c0.803646-71.278177-3.603443-133.457013-13.44162-190.114025a699.897519 699.897519 0 0 0-6.766177-33.377215zM224.580051 814.741063a686.857722 686.857722 0 0 0-32.949469 63.475038c-6.506937 14.258228-13.130532 29.475646-21.516962 49.359393a58.886481 58.886481 0 0 1-76.955544 31.368101 58.730937 58.730937 0 0 1-36.021468-53.546127c-0.751797-68.115443 3.396051-127.248203 12.702784-180.768405 1.205468-6.921722 2.592405-13.960101 4.070076-21.050329 51.13519 22.424304 122.218937 53.636861 173.367089 76.087089-8.140152 11.536203-15.671089 23.150177-22.696506 35.07524z m195.791392-194.300759c-26.118481 23.798278-51.420354 52.327696-75.179747 84.797569-8.451241 11.562127-16.202532 23.448304-23.707544 34.932659-2.696101 4.147848-5.405165 8.295696-8.12719 12.41762L52.599899 638.159392a2882.871089 2882.871089 0 0 1 19.39119-44.848607 870.970329 870.970329 0 0 1 42.645063-81.310785 918.294684 918.294684 0 0 1 123.385519-162.284557L439.801519 603.511899a562.422278 562.422278 0 0 0-19.430076 16.915443z m730.786025-13.739747c-4.484861 5.638481-10.058532 8.269772-17.53762 8.269772-5.755139 0-12.054684-1.633215-18.211645-4.705215l-4.873722-2.436861c-15.917367-7.945722-22.190987-11.06957-24.83524-12.22319a619.014481 619.014481 0 0 0-176.244659-47.441012c-30.979241-3.551595-56.345924-5.236658-79.949772-5.301469-23.474228 0.06481-48.840911 1.749873-79.820152 5.314431a618.936709 618.936709 0 0 0-176.218734 47.42805c-2.670177 1.166582-8.943797 4.277468-24.861165 12.22319l-4.873721 2.436861c-6.169924 3.072-12.469468 4.705215-18.211646 4.705215-7.492051 0-13.065722-2.631291-17.550582-8.269772L244.93043 275.831899c-0.116658-3.072 2.592405-9.902987 4.821874-12.15838a1031.647595 1031.647595 0 0 1 68.258025-52.98876c19.546734-13.869367 40.324861-26.312911 58.082836-36.630683 73.740962-42.904304 154.144405-75.413063 238.967898-96.631899C676.825114 61.984405 761.013468 52.003646 829.56962 52.003646c68.54319 0 152.744506 9.980759 214.495595 25.405569 84.836456 21.231797 165.239899 53.740557 238.967899 96.644861 17.757975 10.317772 38.549063 22.748354 58.082835 36.630683a1032.153114 1032.153114 0 0 1 68.050633 52.807292c2.410937 2.423899 5.145924 9.267848 5.029266 12.339848L1151.157468 606.700557z m450.819241 298.683949a58.730937 58.730937 0 0 1-36.008506 53.559089 58.886481 58.886481 0 0 1-76.968507-31.368101 1813.620658 1813.620658 0 0 0-21.504-49.359393 687.855797 687.855797 0 0 0-32.96243-63.488 506.776304 506.776304 0 0 0-22.683544-35.07524l173.354126-76.087089c1.490633 7.090228 2.87757 14.128608 4.083038 21.050329 9.306734 53.533165 13.454582 112.665924 12.689823 180.768405z m-256.207393-152.796354c-2.734987-4.121924-5.444051-8.269772-8.140151-12.41762-7.492051-11.484354-15.243342-23.370532-23.707545-34.932659-23.74643-32.456911-49.048304-60.999291-75.179747-84.797569a558.883646 558.883646 0 0 0-19.417114-16.915443l201.779849-253.796456a917.879899 917.879899 0 0 1 123.385519 162.284557 872.629468 872.629468 0 0 1 42.632101 81.297823c1.101772 2.397975 11.445468 25.949975 19.404152 44.848607-57.188456 25.094481-207.392405 90.993418-260.757064 114.42876zM1068.511595 220.35443c-40.96 0-74.272405 33.260557-74.272405 74.142785 0 14.167494 11.510278 25.66481 25.716658 25.66481a25.690734 25.690734 0 0 0 25.703696-25.66481 22.852051 22.852051 0 0 1 45.704102 0c0 14.167494 11.510278 25.66481 25.703696 25.66481a25.690734 25.690734 0 0 0 25.716658-25.66481c0-40.882228-33.312405-74.142785-74.272405-74.142785zM926.136709 296.869266a25.690734 25.690734 0 0 0-25.716658 25.66481 22.566886 22.566886 0 0 1-45.146735 0c0-14.167494-11.510278-25.66481-25.716658-25.66481a25.690734 25.690734 0 0 0-25.703696 25.66481 22.566886 22.566886 0 0 1-45.159696 0c0-14.167494-11.510278-25.66481-25.716658-25.66481a25.690734 25.690734 0 0 0-25.703697 25.66481c0 40.726684 33.195747 73.85762 74.000203 73.85762a73.728 73.728 0 0 0 48.283544-18.017215 73.715038 73.715038 0 0 0 48.296507 18.017215c40.791494 0 74.000203-33.130937 74.000202-73.85762 0-14.167494-11.510278-25.66481-25.716658-25.66481z" fill="#000000" /></svg>
