<svg overflow="hidden" viewBox="0 0 1024 1024" version="1.1" xmlns="http://www.w3.org/2000/svg"><path d="M780.6 983.76a22.28 22.28 0 0 1-22.24 22.192h-492.72a22.28 22.28 0 0 1-22.24-22.192v-84.224a22.288 22.288 0 0 1 22.24-22.2h492.72a22.288 22.288 0 0 1 22.24 22.2v84.224z" fill="#9090B5" /><path d="M495.928 930.616h32.16v75.336h-32.16zM394.352 930.616h32.168v75.336h-32.168zM292.792 930.616h32.168v75.336h-32.168zM597.488 930.616h32.16v75.336h-32.16zM699.04 930.616h32.168v75.336h-32.16z" fill="#2F3953" /><path d="M806.104 355.256V41.504a25.552 25.552 0 0 0-25.504-25.456h-537.2a25.552 25.552 0 0 0-25.504 25.456v566.88l588.208-253.12z" fill="#866539" /><path d="M217.896 608.392v296.76a25.56 25.56 0 0 0 25.504 25.456h537.2a25.552 25.552 0 0 0 25.504-25.456V355.256L217.896 608.4z" fill="#FF6376" /><path d="M332.168 729.992a30.384 30.32 0 1 0 60.768 0 30.384 30.32 0 1 0-60.768 0Z" fill="#3F4963" /><path d="M395.056 826.336h-65c-8.88 0-16.08-7.184-16.08-16.048 0-8.864 7.2-16.048 16.08-16.048h65c8.88 0 16.08 7.184 16.08 16.048 0 8.864-7.2 16.048-16.08 16.048z" fill="#FF9596" /><path d="M631.064 729.992a30.384 30.32 0 1 0 60.768 0 30.384 30.32 0 1 0-60.768 0Z" fill="#3F4963" /><path d="M693.944 826.336h-65c-8.88 0-16.08-7.184-16.08-16.048 0-8.864 7.2-16.048 16.08-16.048h65c8.88 0 16.08 7.184 16.08 16.048 0 8.864-7.2 16.048-16.08 16.048z" fill="#FF9596" /><path d="M481.8 800.544c-25.52 0-46.288-20.72-46.288-46.192 0-8.872 7.2-16.048 16.08-16.048 8.888 0 16.08 7.176 16.08 16.048a14.12 14.12 0 0 0 28.24 0c0-8.872 7.2-16.048 16.088-16.048 8.88 0 16.08 7.176 16.08 16.048 0 25.472-20.76 46.192-46.28 46.192z" fill="#3F4963" /><path d="M542.208 800.544c-25.52 0-46.288-20.72-46.288-46.192 0-8.872 7.2-16.048 16.08-16.048 8.88 0 16.08 7.176 16.08 16.048a14.12 14.12 0 0 0 28.24 0c0-8.872 7.2-16.048 16.08-16.048 8.88 0 16.08 7.176 16.08 16.048 0.008 25.472-20.76 46.192-46.28 46.192z" fill="#3F4963" /><path d="M373.448 541.44v42c0 17.496 14.352 31.816 31.888 31.816h213.344c17.528 0 31.88-14.32 31.88-31.816V422.192L373.456 541.448z" fill="#FFD553" /><path d="M714.32 599.496c-8.888 0-16.08-7.192-16.08-16.056V422.192c0-8.864 7.192-16.048 16.08-16.048 8.88 0 16.08 7.184 16.08 16.048v161.256c0 8.864-7.2 16.048-16.08 16.048z" fill="#6CF5C5" /><path d="M736.512 106.84a25.56 25.56 0 0 0-25.504-25.464H577.344a25.56 25.56 0 0 0-25.504 25.464V217.04a25.56 25.56 0 0 0 25.504 25.448h133.664a25.56 25.56 0 0 0 25.504-25.448V106.84zM287.488 106.84a25.56 25.56 0 0 1 25.512-25.464h133.664a25.56 25.56 0 0 1 25.504 25.464V217.04a25.56 25.56 0 0 1-25.504 25.448H313a25.56 25.56 0 0 1-25.512-25.448V106.84zM711.008 305.456H577.344a25.56 25.56 0 0 0-25.504 25.456V441.12c0 7.848 3.616 14.896 9.256 19.576l175.416-75.488v-54.288a25.56 25.56 0 0 0-25.504-25.464zM287.488 330.912a25.56 25.56 0 0 1 25.512-25.456h133.664a25.56 25.56 0 0 1 25.504 25.456V441.12a25.56 25.56 0 0 1-25.504 25.456H313a25.56 25.56 0 0 1-25.512-25.456V330.912z" fill="#3F4963" /><path d="M189.664 653.856a37.2 37.2 0 0 1-34.304-22.768 37.096 37.096 0 0 1 19.896-48.592l644.696-270.08a37.208 37.208 0 0 1 48.696 19.856 37.088 37.088 0 0 1-19.904 48.592L204.048 650.944a37.176 37.176 0 0 1-14.384 2.912z" fill="#C3DDF7" /><path d="M313 258.552h133.664c22.928 0 41.584-18.624 41.584-41.504V106.84c0-22.888-18.656-41.512-41.584-41.512H313c-22.928 0-41.592 18.624-41.592 41.512V217.04c0 22.88 18.656 41.504 41.592 41.504z m-9.424-151.712c0-5.096 4.32-9.408 9.424-9.408h133.656c5.112 0 9.424 4.312 9.424 9.408V217.04c0 5.096-4.32 9.4-9.424 9.4H313a9.536 9.536 0 0 1-9.424-9.4V106.84z m273.768 151.712h133.664c22.928 0 41.584-18.624 41.584-41.504V106.84c0-22.888-18.656-41.512-41.584-41.512H577.344c-22.928 0-41.592 18.624-41.592 41.512V217.04c0 22.88 18.664 41.504 41.592 41.504zM567.92 106.84c0-5.096 4.32-9.408 9.424-9.408h133.664c5.104 0 9.424 4.312 9.424 9.408V217.04c0 5.096-4.32 9.4-9.424 9.4H577.344a9.536 9.536 0 0 1-9.424-9.4V106.84zM362.56 699.672a30.352 30.352 0 0 0-30.384 30.32c0 16.752 13.6 30.32 30.384 30.32a30.352 30.352 0 0 0 30.376-30.32c0-16.744-13.6-30.32-30.376-30.32z m209.84 38.632c-8.88 0-16.08 7.184-16.08 16.048a14.12 14.12 0 0 1-28.232 0c0-8.864-7.2-16.048-16.08-16.048-8.88 0-16.08 7.184-16.08 16.048a14.12 14.12 0 0 1-28.24 0c0-8.864-7.2-16.048-16.08-16.048-8.888 0-16.088 7.184-16.088 16.048 0 25.472 20.768 46.192 46.288 46.192a46.08 46.08 0 0 0 30.2-11.264 46.096 46.096 0 0 0 30.208 11.264c25.52 0 46.28-20.72 46.28-46.192a16.08 16.08 0 0 0-16.088-16.048z m311.08-412.24a53.176 53.176 0 0 0-61.288-31.192V41.52C822.192 18.624 803.536 0 780.608 0h-537.2c-22.936 0-41.6 18.624-41.6 41.512v512.448L169.04 567.688a52.88 52.88 0 0 0-28.696 28.92 52.736 52.736 0 0 0 0.192 40.696 53.168 53.168 0 0 0 61.28 31.184v236.664a41.568 41.568 0 0 0 25.512 38.272v40.336a38.328 38.328 0 0 0 38.32 38.24h492.72a38.32 38.32 0 0 0 38.32-38.24v-40.336a41.568 41.568 0 0 0 25.512-38.272v-495.76l32.776-13.728a52.864 52.864 0 0 0 28.704-28.912 52.72 52.72 0 0 0-0.192-40.696zM233.976 41.496c0-5.088 4.32-9.4 9.424-9.4h537.2c5.112 0 9.424 4.312 9.424 9.408v266.032l-38.128 15.976a41.608 41.608 0 0 0-40.888-34.112H577.344c-22.928 0-41.584 18.624-41.584 41.512v83.144l-47.512 19.904V330.92c0-22.888-18.656-41.512-41.584-41.512H313c-22.928 0-41.592 18.624-41.592 41.512V441.12c0 22.88 18.656 41.504 41.592 41.504h59.088l-138.104 57.856V41.512z m486.448 289.408v5.784L567.92 400.584v-69.672c0-5.096 4.32-9.4 9.424-9.4h133.664c5.104 0 9.416 4.304 9.416 9.4z m-264.344 0V441.12c0 5.104-4.312 9.408-9.416 9.408H313a9.544 9.544 0 0 1-9.424-9.408V330.912c0-5.096 4.32-9.4 9.424-9.4h133.664c5.104 0 9.416 4.304 9.416 9.4z m308.44 652.848a6.232 6.232 0 0 1-6.16 6.144h-492.72a6.232 6.232 0 0 1-6.16-6.144v-37.104h505.04v37.104z m25.504-78.608c0 5.104-4.32 9.408-9.416 9.408h-537.2a9.536 9.536 0 0 1-9.424-9.408V655.816l127.344-53.352a48.032 48.032 0 0 0 44 28.848h213.352c26.448 0 47.96-21.472 47.96-47.864V474.56l123.376-51.688v482.272h0.008z m-399.024-315.12l243.48-102V583.44c0 8.696-7.088 15.76-15.8 15.76H405.336c-6.352 0-11.824-3.76-14.336-9.168z m462.896-235.424a20.96 20.96 0 0 1-11.376 11.456L197.824 636.144a21.08 21.08 0 0 1-16.352-38.856l644.704-270.08a21.08 21.08 0 0 1 27.72 27.4zM631.064 729.992c0 16.744 13.6 30.32 30.384 30.32a30.352 30.352 0 0 0 30.376-30.32c0-16.744-13.6-30.32-30.376-30.32a30.352 30.352 0 0 0-30.384 30.32z" fill="#000000" /></svg>