<svg overflow="hidden" viewBox="0 0 1024 1024" version="1.1" xmlns="http://www.w3.org/2000/svg"><path d="M996.864 147.456c-0.512-11.264-8.192-17.92-17.408-19.968-2.048-0.512-4.096-1.024-6.656-1.024-44.544-0.512-88.064 10.752-125.44 32.768-55.808-111.104-220.16-158.72-329.216-101.376 0 0-0.512 0-0.512 0.512-15.872-11.776-34.304-20.48-54.272-25.088-73.216-17.408-162.816 0-213.504 57.856-17.92 20.48 11.776 50.688 30.208 30.208 35.84-40.96 89.088-52.736 141.312-50.176 74.752 3.584 127.488 64 136.704 137.216 0.512 2.56 1.024 4.608 1.536 6.144 0.512 8.192 5.12 15.872 14.848 18.944 72.192 23.04 71.68 88.576 71.168 152.064-13.824 12.8-27.136 25.6-39.424 38.4-22.528-67.072-80.896-121.344-137.728-159.744-8.192-5.12-15.872-4.096-21.504 0-11.776 6.144-22.016 12.8-30.72 19.968-26.624-49.152-66.048-90.624-113.152-120.832-61.44-38.912-141.824-34.816-211.968-31.744-22.016 1.024-26.112 28.672-12.8 38.912 1.024 1.536 1.536 3.072 3.072 4.096 44.032 50.176 14.848 90.624-3.584 141.824-12.8 36.352-19.968 74.752-21.504 113.664-2.56 79.36 20.992 157.184 66.048 222.208 44.032 64 99.84 132.608 166.912 173.056 33.28 19.968 69.632 32.768 107.008 40.96-15.36 97.792 72.704 92.16 153.6 94.208 43.52 1.024 94.208 7.168 129.536-23.552 29.696-26.112 30.208-36.352 27.136-74.24 0-3.072-1.024-5.632-2.048-8.192 96.256-28.672 184.32-82.432 238.08-167.936 47.616-76.288 55.808-168.448 56.832-256 1.536-95.232 1.536-189.44-2.56-283.136z m-326.656 109.568c-16.384-28.16-40.96-48.64-70.656-60.928-6.656-38.4-23.04-76.8-48.128-107.008 87.552-36.864 225.28 4.096 262.144 93.696 0 0.512 0.512 0.512 0.512 1.024-9.216 8.192-17.92 16.896-26.112 26.624-16.384 20.48-29.696 40.448-22.016 67.072 2.048 6.656 5.12 13.312 8.192 19.456-29.696 12.8-57.856 30.72-84.48 51.2-0.512-31.232-3.584-62.464-19.456-91.136z m-24.064 652.288c-18.944 12.8-58.368 16.896-79.872 16.384-50.688-1.024-140.8 28.16-128-49.664v-3.584c27.648 3.584 56.32 5.12 83.968 5.632 46.08 1.024 94.72-3.584 142.848-14.336 2.048 27.648 7.168 27.648-18.944 45.568z m271.872-265.728c-87.552 165.376-305.152 208.896-474.112 186.88-171.008-22.528-332.288-194.56-344.064-368.128-2.56-38.4 1.536-77.312 12.288-114.176 9.216-31.232 29.184-60.416 34.816-92.672 5.12-29.184-2.048-57.856-15.872-82.944 54.784-1.024 111.104 2.048 157.184 32.768 42.496 28.16 75.264 67.072 97.28 112.64-28.672 43.008-34.816 98.816-34.304 155.136 0 27.136 42.496 27.136 42.496 0-0.512-65.536 5.12-129.024 62.976-165.888 50.176 35.328 107.52 90.112 115.712 151.552v1.024c-1.024 1.536-2.56 2.56-3.584 4.096-64.512 70.656-113.664 152.064-137.728 245.248-6.656 26.624 34.304 37.888 40.96 11.264 22.528-86.528 67.072-160.768 126.976-226.304 52.224-57.344 120.832-129.024 194.56-158.208l1.536 4.608c9.216 27.648 10.752 54.784 8.704 83.456-1.536 27.136 40.96 27.136 42.496 0 1.536-26.112 0.512-51.712-5.632-77.312-5.632-23.552-26.112-49.152-29.696-71.168-10.752-65.536 87.04-98.816 143.36-104.448 2.56 66.048 2.048 132.608 2.048 198.656 1.024 90.624 5.632 190.464-38.4 273.92z" fill="#73BA2D" /></svg>
