<svg overflow="hidden" viewBox="0 0 1024 1024" xmlns="http://www.w3.org/2000/svg">
  <path d="M350 198c68 34 256 34 324 0l-42 126c110 72 174 184 174 322v120c0 84-68 152-152 152H370c-84 0-152-68-152-152V646c0-138 64-250 174-322z" fill="#FFF7DF" stroke="#26353A" stroke-width="42" stroke-linejoin="round"/>
  <path d="M350 198c70-50 254-50 324 0-62 74-262 74-324 0z" fill="#96E8BA" stroke="#26353A" stroke-width="42" stroke-linejoin="round"/>
  <path d="M392 324h240" fill="none" stroke="#26353A" stroke-width="38" stroke-linecap="round"/>
  <rect x="322" y="454" width="380" height="282" rx="72" fill="#FFFFFF" stroke="#26353A" stroke-width="36"/>
  <path d="M512 664V514M512 570c-52-52-92-44-112-24 38 56 72 70 112 70M512 570c52-52 92-44 112-24-38 56-72 70-112 70" fill="none" stroke="#E7B83D" stroke-width="30" stroke-linecap="round" stroke-linejoin="round"/>
  <circle cx="430" cy="790" r="22" fill="#26353A"/>
  <circle cx="594" cy="790" r="22" fill="#26353A"/>
  <path d="M462 846c28 26 72 26 100 0" fill="none" stroke="#26353A" stroke-width="28" stroke-linecap="round"/>
</svg>
