<svg style="width: 1em;height: 1em;vertical-align: middle;fill: #F07867;overflow: hidden;" viewBox="0 0 1024 1024" version="1.1" xmlns="http://www.w3.org/2000/svg"><path d="M684.894 50c100.183 0 181.395 81.222 181.395 181.413 0 0.362-0.006 0.723-0.018 1.082l-0.008 0.582-0.016 0.758-0.047 1.685-0.07 1.907-0.07 1.573-0.096 1.864-0.11 1.917-0.062 0.978-0.136 1.994-0.153 2.045c-0.027 0.345-0.054 0.692-0.083 1.041l-0.179 2.118a358.748 358.748 0 0 1-8.322 51.319c-11.377 47.819-31.748 90.229-64.036 122.52-31.59 31.594-65.55 55.962-99.015 72.698l-1.735 0.86-1.73 0.845-0.864 0.417-1.724 0.822-0.86 0.404-1.717 0.799-1.711 0.782-1.706 0.766-1.7 0.75c-0.283 0.124-0.565 0.247-0.848 0.369l-1.69 0.726c-0.562 0.24-1.123 0.476-1.683 0.71l-1.675 0.692c-0.279 0.114-0.557 0.228-0.835 0.34l-1.664 0.669c-0.553 0.22-1.105 0.437-1.656 0.651l-1.646 0.635c-0.274 0.104-0.547 0.208-0.82 0.31l-1.634 0.61-1.623 0.592-1.613 0.575-0.803 0.281-1.598 0.549c-1.061 0.36-2.116 0.709-3.162 1.045l-1.564 0.497c-0.778 0.243-1.553 0.48-2.322 0.71l-1.533 0.452c-0.509 0.148-1.015 0.292-1.52 0.434l-1.506 0.415-0.748 0.201-1.485 0.388-1.471 0.37-1.456 0.351c-8.451 1.995-16.13 3.039-22.698 3.039l-0.421 0.002-0.923 0.016c-0.488 0.013-1.016 0.03-1.58 0.055l-1.182 0.057-1.279 0.072-1.375 0.087-1.468 0.102-1.558 0.118-1.646 0.131-1.731 0.147-1.813 0.16-1.893 0.174-1.97 0.187-3.093 0.307-3.25 0.335-3.4 0.364-2.344 0.258-2.404 0.27-3.71 0.426-3.83 0.452-2.614 0.315-2.66 0.326-4.07 0.508-4.158 0.53-2.816 0.367-4.285 0.567-2.892 0.39-4.386 0.6-2.951 0.41-2.97 0.42-2.987 0.427-4.504 0.655-3.015 0.446-3.022 0.453-3.026 0.46-4.541 0.702-3.024 0.476-3.02 0.482-3.01 0.487-3 0.493-2.987 0.499-2.971 0.503-2.952 0.508-2.93 0.512-3.472 0.618a1023.574 1023.574 0 0 0-32.678 6.4l-3.634 0.784-3.587 0.79c-46.324 10.303-80.499 22.03-94.424 33.173-23.045 18.438-37.604 40.945-40.232 62.867-3.016 25.155 8.993 51.875 41.317 80.17 78.55 68.759 215.594 95.574 308.512 58.402 33.314-13.327 65.051-37.744 94.298-70.244 16.857-18.732 31.799-38.925 44.58-59.108l0.633-1.002 1.241-1.983 1.208-1.952c0.397-0.645 0.789-1.285 1.175-1.92l1.141-1.888 0.559-0.932 1.091-1.838 0.533-0.906 1.041-1.786 1.007-1.75 0.491-0.86 0.957-1.695 0.762-1.367 0.843-1.53 0.77-1.418 0.694-1.3 0.569-1.083 0.787-1.528c12.682-23.933 47.805-22.222 57.956 3.16l85.367 213.447c6.663 16.661-1.673 35.544-18.475 41.845l-1.707 0.634-5.485 2.004-6.217 2.234-3.223 1.146-4.45 1.57-4.626 1.616-3.58 1.242-3.674 1.267-6.329 2.162-5.387 1.823c-31.63 10.655-65.602 21.286-100.752 31.235-44.746 12.665-88.286 23.33-129.524 31.349-17.893 3.48-35.211 6.43-51.896 8.813-84.576 12.083-161.86 9.994-233.982-8.707-81.356-21.095-154.743-63.138-220.014-128.413-141.204-141.212-160.63-319.26-45.43-469.03 43.337-56.34 98.997-97.22 162.225-124.994 43.807-19.243 86.241-30.192 123.12-35.183 4.887-0.663 9.713-1.1 14.891-1.37l1.843-0.088c0.31-0.014 0.62-0.027 0.933-0.039l1.894-0.068a289.02 289.02 0 0 1 3.91-0.099l2.024-0.031 2.075-0.02 2.13-0.012h356.87c-13.761-48.699-58.15-84.54-111.04-85.397l-1.942-0.016h-298.79c-17.673 0-32-14.327-32-32 0-17.496 14.042-31.713 31.471-31.996l0.53-0.004h298.79z m-274.59 215.998c-21.14 3.468-44.403 9.25-68.585 17.875l-2.62 0.944a419.857 419.857 0 0 0-25.173 10.102C260 318.607 213.01 353.117 176.69 400.336c-94.833 123.29-79.32 265.475 39.956 384.758C273.86 842.31 337.173 878.58 407.47 896.809c63.24 16.398 132.155 18.261 208.867 7.302 15.585-2.227 31.853-4.999 48.731-8.28 39.335-7.65 81.178-17.898 124.31-30.107a2056.772 2056.772 0 0 0 50.146-14.893l5.75-1.796a2120.064 2120.064 0 0 0 44.557-14.529l5.24-1.78 3.863-1.325-49.546-123.883-1.169 1.63c-9.792 13.588-20.446 26.981-31.953 39.884l-1.385 1.546c-35.293 39.218-74.582 69.444-118.1 86.853-115.835 46.34-278.205 14.57-374.437-69.666-47.335-41.435-68.416-88.34-62.708-135.946 4.834-40.316 28.608-77.07 63.793-105.222 5.638-4.51 12.22-8.735 19.735-12.728l1.515-0.796c4.329-2.246 8.957-4.418 13.883-6.527l1.751-0.742 0.885-0.37 1.788-0.733 0.903-0.366 1.825-0.726 1.85-0.722c1.55-0.6 3.128-1.195 4.73-1.785l1.936-0.705c0.325-0.118 0.65-0.235 0.977-0.351l1.972-0.7 0.996-0.348 2.009-0.692c0.674-0.23 1.351-0.46 2.033-0.689l2.058-0.685 2.083-0.68 2.107-0.677 2.131-0.674 2.156-0.67 2.18-0.665c0.73-0.222 1.466-0.443 2.205-0.663l1.382-0.41c1.387-0.41 2.788-0.816 4.201-1.221l2.844-0.806c1.431-0.402 2.875-0.801 4.33-1.198l2.93-0.79a680.056 680.056 0 0 1 12.045-3.099l3.092-0.758c1.035-0.252 2.076-0.503 3.122-0.753l3.154-0.746a813.18 813.18 0 0 1 1.588-0.37l3.199-0.737 1.61-0.366 3.244-0.727c1.086-0.241 2.177-0.482 3.273-0.72l3.301-0.715 1.662-0.355 3.343-0.705a993.3 993.3 0 0 1 1.683-0.35l3.385-0.695 3.412-0.688c0.571-0.115 1.143-0.228 1.716-0.342l3.453-0.68c1.155-0.225 2.314-0.449 3.478-0.672l3.504-0.666 3.53-0.66 3.553-0.654 3.579-0.646 1.798-0.322 3.122-0.55 3.144-0.546 3.164-0.54 3.182-0.535 3.197-0.53 3.208-0.523 3.219-0.517 0.615-0.098z m389.017-2.585H480.562l97.805 195.633 1.681-0.19 2.686-0.298 2.63-0.286 3.838-0.405 3.698-0.376 2.384-0.233 2.317-0.22 2.245-0.205 2.172-0.192 2.096-0.177 2.017-0.162 1.936-0.147 1.852-0.131 1.766-0.116 1.676-0.1 1.585-0.085 0.756-0.036 1.442-0.06c1.393-0.051 2.638-0.077 3.724-0.077l0.233-0.005 0.287-0.017 0.34-0.027 0.391-0.039 0.44-0.05 0.487-0.065 0.532-0.076 0.575-0.09 0.616-0.105 0.857-0.156c2.698-0.513 5.868-1.3 9.387-2.356 8.939-2.682 19.259-6.825 30.228-12.311 27.355-13.68 55.693-34.013 82.385-60.708 22.771-22.774 38.167-54.828 47.03-92.082a294.103 294.103 0 0 0 4.532-23.167l0.133-0.883zM642.21 295.447c23.574 0 42.684 19.113 42.684 42.69 0 23.576-19.11 42.69-42.684 42.69-23.574 0-42.684-19.114-42.684-42.69 0-23.577 19.11-42.69 42.684-42.69z" /></svg>