<svg overflow="hidden" viewBox="0 0 1024 1024" version="1.1" xmlns="http://www.w3.org/2000/svg"><path d="M667.9 846.1l-467.6-6.8c-6.7-0.1-10.1-4.2-7.6-9.1l176.6-342.1c2.5-4.9 10.1-8.8 16.7-8.7l467.6 6.8c6.7 0.1 10.1 4.2 7.6 9.1L684.7 837.4c-2.6 4.9-10.1 8.8-16.8 8.7z" fill="#C6321A" /><path d="M668.2 853.6h-0.4l-467.6-6.8c-6.3-0.1-11.4-2.6-14-7-2.3-3.9-2.3-8.6-0.1-12.9l176.6-342.1c3.8-7.4 13.9-12.9 23.5-12.7l467.6 6.8c6.3 0.1 11.4 2.6 14 7 2.3 3.9 2.3 8.6 0.1 12.9l-176.6 342c-3.8 7.3-13.7 12.8-23.1 12.8z m-0.2-14.9c4.4 0.1 9-2.8 10-4.7l175.7-340.3h-0.1L386 486.9c-4.4-0.1-9 2.8-10 4.7L200.3 831.9h0.1l467.6 6.8z"  /><path d="M484.3 516.8c-2.3 17.2 11.7 29.4 26.1 35.5 9.2 3.9 19 6.2 29 7.4 8.7 1.1 21.4 3.1 28.3-3.5 1-0.9 1.4-3 0.5-4.1-4.3-5.6-11.9-7-18.6-8.1-8.2-1.3-16.5-2.4-24.5-4.4-11.4-2.8-27.6-9-28.8-22.7-0.7-7.9-11-7.6-12-0.1zM253.7 718.9c2.3 30.4 51.9 15.2 68.4 10 31.1-9.8 62.5-20.8 91.8-35.2-3.3-5.6-6.6-11.2-9.8-16.8-21.4 15.4-44.1 27.7-69.6 34.8-24.8 6.9-50.4 10.5-75.4 16.7-9.2 2.3-8.1 14.8 0 17.6 11.3 3.9 24-0.5 35.1-3.5 13.3-3.6 26.5-7.4 39.7-11.4 26.3-8 52.1-17.4 77.2-28.6-3.4-5.9-6.9-11.8-10.3-17.7-25.4 13-50.4 26.6-77.5 35.7-12.4 4.2-25.6 8.1-38.7 8.9-4.3 0.2-8.1 0.5-11.3-2.3-4.5-4-6.6-7.9-13.1-9.2-5.7-1.2-10.2 1.6-12.2 6.9-7.8 20.1 26.6 22.8 38.6 23 20.6 0.4 39.5-6.1 58.3-13.8 18.7-7.6 38.6-14.5 56.1-24.6 16.5-9.5 29.8-23.2 39.7-39.4 7.5-12.3-10.2-26.4-20.2-15.6-9.3 10.1-18.5 20.6-29.7 28.7-12.4 9-26.6 15.6-40.3 22.3-25.9 12.8-53.6 20.4-79.7 32.5-3.1 1.4-3.2 6.9 0 8.3 30.5 13 62.6-4.3 90.1-17.8 14.5-7.1 29.5-14.1 42.7-23.7 12.9-9.4 24.4-20.5 35.2-32.1-6.7-5.2-13.5-10.4-20.2-15.6-16.1 26.4-42.2 38.5-69.3 50.9-14.4 6.6-28.3 11.7-44 14.5-7.4 1.3-14.8 2.1-22.3 2.4-3.2 0.1-6.4 0.2-9.6 0-1.9-0.1-3.8-0.5-5.7-0.5-0.7-0.1-1.3-0.2-1.9-0.3-2.8-0.9-2.3 1.1 1.5 6.1-4.1 2.3-8.1 4.6-12.2 6.9 2.8 0.4 1.4 0.4 4.1 3.7 1.7 2.1 3.5 3.8 5.9 5.2 5.1 3.1 11.5 4 17.5 4.1 14.7 0.4 30.1-3.9 44-8.3 29.6-9.4 57.7-24.1 84.7-39.4 11.6-6.6 1.4-23.4-10.3-17.7-22.3 11-45.8 19.2-69.4 26.7-11.4 3.6-22.9 6.9-34.3 10.4-9.3 2.8-23.4 9.8-33.1 6.5v17.6c25.8-6.5 52.4-10.1 78-17.6 26.2-7.7 48.6-21.2 72-34.6 9.3-5.3 3.1-21.7-7.5-17.8-24.6 9.1-48.9 19.1-73.7 28-12.2 4.4-24.5 8.8-36.9 12.7-5.8 1.8-11.8 3.5-17.9 3.6-2.6 0-9.9 0.1-10.9-3-2.6-6.9-14.2-6.2-13.6 1.8zM652.6 578.9c-1.2-0.1-2.3 0.2-3.4 0.5-7.5 1.9-6.3 11.6 0 14 1.5 0.6 3 1.2 4.5 1.6-1.5-3.6-2.9-7.2-4.4-10.8-3.1 12.3 6.2 23.1 16.8 28 13.5 6.2 29.6 6.3 44.1 4.6 29.8-3.4 59.2-11.9 85.1-27.3 16.7-9.9 1.9-35.3-15.2-26.1-19.3 10.4-40.3 17.5-62 20.3-9.7 1.3-20.1 1.8-29.9 1.7-9.3-0.2-18.6-9.6-25-15.5-10.7-9.6-25.5 5.1-15.8 15.8 5 5.5 9.5 11.4 15.7 15.5 9.4 6.2 21.6-6.1 15.5-15.5-4.1-6.2-10-10.8-15.4-15.8l-15.8 15.8c9.8 8.7 20.6 18.9 33.2 23.2 11.8 4 24 3.7 36.3 2.5 27.3-2.6 53.7-10.3 78.5-21.9-5.1-8.7-10.2-17.4-15.2-26.1-19.8 10.3-40.6 18.1-62.5 22.7-10.6 2.2-21.6 4.1-32.4 3.8-4.1-0.1-8.5-0.4-12.4-2-3.6-1.5-4.4-2.8-6.1-6-1.9-3.6-6.9-5.6-10.8-4.4-2.3 0.7-4.5 1.2-6.8 1.8 2.7 1.1 5.5 2.2 8.2 3.3-1-1.9-2.5-3.5-4.8-3.7zM486.1 604.9c-0.5-1-1.2-1.6-2.2-2.2-1.5-1-4.3-1.2-5.8 0-0.2 0.2-0.4 0.3-0.6 0.5-2.1 1.6-4 4.4-2.9 7.2 1.7 4.8 5.2 6.8 9.4 9.5 4.9 3.2 10 6.1 15 9.1 9.9 5.9 19.7 12.1 29 18.9 5.4 3.9 17.8 10.6 19.9 15.9 0.3 0.8 0.3 1.4 0.2 2.5-0.3 2.7-1.4 5.6-2.4 8.1-2.2 5.6-5.4 10.7-8.1 16.1h29.5c1.4 3.1 0.7-0.7 0.8-2.2 0.1-1.7 0.2-3.3 0.3-4.9 0.3-3.7 0.6-7.4 0.7-11.1 0.1-8.2-1.3-16-4.8-23.4-6.3-13.2-19-22.5-31.3-29.8-25.2-15-52.6-25.8-82.4-22.1-7.7 1-14.5 5.9-14.5 14.5 0 7.1 6.7 15.4 14.5 14.5 24-2.8 43.8 5.1 64.2 17 8 4.7 18.6 10.4 22.3 19.5 1.9 4.6 1.1 9.9 0.7 14.7-0.5 5.6-0.5 12-1.8 17.5-4.4 19 20.6 29.6 31.3 13.2 8.1-12.5 16.1-28.1 15.7-43.4-0.4-17.1-11.9-28.2-25.6-36.6-11-6.8-22.5-13-34.3-18.1-6.7-2.9-13.9-5.2-21.1-6.6-3.9-0.7-7.8-0.9-11.8-1-1.7 0-3.4-0.1-5.1 0.1-1 0.1-4.4-0.2-2.4 0.3l4.5 4.5c-1.7-4.1 0.6 0.8-0.9-2.2zM415.8 841.5c10.2-0.9 13.5-6.5 20.1-13.2 7.1-7.2 19.8-10.9 28.8-14.9 22.5-10.1 45.9-19.4 69.8-25.6 21.1-5.4 44.3-8.5 66-4.5 9.2 1.7 17.6 4.6 27.1 5.2l5.4 0.3c2 0.1 3.3 0.3 3.2 0.4 1.5-0.7-0.3 0.8-0.6-0.3 0 0-4.4-14.6-3.8-14-0.1-0.1-0.7 0.3-0.5 0.2 0.7-0.2-1.3 0.9-1.7 1.1-8.3 5.6-17.6 12.4-17.7 23.5-0.2 13.5 11.4 28.4 24.3 32.1 13 3.7 21.1-10.2 16.2-21-1.4-3-3.5-5.3-5.8-7.7-0.1-0.1-4.3-4.6-4.1-4.6 0.5 0-1 4.3-0.8 5.3 0.2 1.3-1.3 1 0.3-0.1 0.8-0.6 1.5-1.4 2.2-2.1 5.7-5.2 12.3-10.1 14.2-18 2.8-11.8-6.9-20.5-17.5-22.6-8.8-1.7-16.6-1.1-24.2-3.1-23.6-6-48-2.9-71.4 2-25.7 5.4-50.8 14.7-74.4 26.1-12.7 6.1-25.1 13-37.3 20-5 2.9-9.2 6.3-12.5 11-2.8 3.9-4.9 8.8-8.9 11.6-4.9 3.6-3.9 13.5 3.6 12.9zM675.5 699.4c-21.3 10.2-44.6 17.1-67.7 21.7-24.8 5-49.5 9.9-74.5 13.5-49 7-99.2 7.3-147.4 19.7-12.2 3.1-24.2 7-35.9 11.9-5.4 2.2-10.7 4.5-15.9 7.3-6.1 3.3-9.9 7.4-14.5 12.5-2.7 3-0.1 8.4 4.1 7.1 21.6-6.7 41.6-17.3 63.6-23.2 23.7-6.3 47.9-9.2 72.1-11.8 49.9-5.4 100.2-11 148.9-23.7 13.5-3.5 26.8-7.5 39.6-12.9 11.1-4.7 20.5-11.2 29.8-18.7 2.3-1.7-0.2-4.3-2.2-3.4z" fill="#C64234" /><path d="M669.7 848.7h-0.4l-467.6-6.8c-6.3-0.1-11.4-2.6-14-7-2.3-3.9-2.3-8.6-0.1-12.9l176.6-342.1c3.8-7.3 13.7-12.7 23.1-12.7h0.4l467.6 6.8c6.3 0.1 11.4 2.6 14 7 2.3 3.9 2.3 8.6 0.1 12.9L692.8 836c-3.8 7.3-13.7 12.7-23.1 12.7z m-0.1-14.9c4.3 0.1 9-2.8 10-4.7l175.7-340.3h-0.1L387.6 482c-4.4 0-9 2.8-10 4.7L201.8 827h0.1l467.7 6.8z"  /><path d="M692.9 920.8L225.3 914c-6.7-0.1-10.1-4.2-7.6-9.1l176.6-342.1c2.5-4.9 10.1-8.8 16.7-8.7l467.6 6.8c6.7 0.1 10.1 4.2 7.6 9.1L709.7 912.1c-2.6 4.8-10.1 8.8-16.8 8.7z" fill="#C6321A" /><path d="M693.2 928.2h-0.4l-467.6-6.8c-6.3-0.1-11.4-2.6-14-7-2.3-3.9-2.3-8.6-0.1-12.9l176.6-342.1c3.8-7.4 13.9-12.9 23.5-12.7l467.6 6.8c6.3 0.1 11.4 2.6 14 7 2.3 3.9 2.3 8.6 0.1 12.9L716.3 915.5c-3.8 7.3-13.7 12.7-23.1 12.7z m-0.2-14.9c4.4 0.1 9-2.8 10-4.7l175.7-340.3h-0.1L411 561.6c-4.4-0.1-9 2.8-10 4.7L225.3 906.5h0.1l467.6 6.8z"  /><path d="M509.3 591.5c-2.3 17.2 11.7 29.4 26.1 35.5 9.2 3.9 19 6.2 29 7.4 8.7 1.1 21.4 3.1 28.3-3.5 1-0.9 1.4-3 0.5-4.1-4.3-5.6-11.9-7-18.6-8.1-8.2-1.3-16.5-2.4-24.5-4.4-11.4-2.8-27.6-9-28.8-22.7-0.7-7.9-11-7.7-12-0.1zM278.7 793.5c2.3 30.4 51.9 15.2 68.4 10 31.1-9.8 62.5-20.8 91.8-35.2-3.3-5.6-6.6-11.2-9.8-16.8-21.4 15.4-44.1 27.7-69.6 34.8-24.8 6.9-50.4 10.5-75.4 16.7-9.2 2.3-8.1 14.8 0 17.6 11.3 3.9 24-0.5 35.1-3.5 13.3-3.6 26.5-7.4 39.7-11.4 26.3-8 52.1-17.4 77.2-28.6-3.4-5.9-6.9-11.8-10.3-17.7-25.4 13-50.4 26.6-77.5 35.7-12.4 4.2-25.6 8.1-38.7 8.9-4.3 0.2-8.1 0.5-11.3-2.3-4.5-4-6.6-7.9-13.1-9.2-5.7-1.2-10.2 1.6-12.2 6.9-7.8 20.1 26.6 22.8 38.6 23 20.6 0.4 39.5-6.1 58.3-13.8 18.7-7.6 38.6-14.5 56.1-24.6 16.5-9.5 29.8-23.2 39.7-39.4 7.5-12.3-10.2-26.4-20.2-15.6-9.3 10.1-18.5 20.6-29.7 28.7-12.4 9-26.6 15.6-40.3 22.3-25.9 12.8-53.6 20.4-79.7 32.5-3.1 1.4-3.2 6.9 0 8.3 30.5 13 62.6-4.3 90.1-17.8 14.5-7.1 29.5-14.1 42.7-23.7 12.9-9.4 24.4-20.5 35.2-32.1-6.7-5.2-13.5-10.4-20.2-15.6-16.1 26.4-42.2 38.5-69.3 50.9-14.4 6.6-28.3 11.7-44 14.5-7.4 1.3-14.8 2.1-22.3 2.4-3.2 0.1-6.4 0.2-9.6 0-1.9-0.1-3.8-0.5-5.7-0.5-0.7-0.1-1.3-0.2-1.9-0.3-2.8-0.9-2.3 1.1 1.5 6.1-4.1 2.3-8.1 4.6-12.2 6.9 2.8 0.4 1.4 0.4 4.1 3.7 1.7 2.1 3.5 3.8 5.9 5.2 5.1 3.1 11.5 4 17.5 4.1 14.7 0.4 30.1-3.9 44-8.3 29.6-9.4 57.7-24.1 84.7-39.4 11.6-6.6 1.4-23.4-10.3-17.7-22.3 11-45.8 19.2-69.4 26.7-11.4 3.6-22.9 6.9-34.3 10.4-9.3 2.8-23.4 9.8-33.1 6.5v17.6c25.8-6.5 52.4-10.1 78-17.6 26.2-7.7 48.6-21.2 72-34.6 9.3-5.3 3.1-21.7-7.5-17.8-24.6 9.1-48.9 19.1-73.7 28-12.2 4.4-24.5 8.8-36.9 12.7-5.8 1.8-11.8 3.5-17.9 3.6-2.6 0-9.9 0.1-10.9-3-2.6-6.9-14.2-6.1-13.6 1.8zM677.6 653.6c-1.2-0.1-2.3 0.2-3.4 0.5-7.5 1.9-6.3 11.6 0 14 1.5 0.6 3 1.2 4.5 1.6-1.5-3.6-2.9-7.2-4.4-10.8-3.1 12.3 6.2 23.1 16.8 28 13.5 6.2 29.6 6.3 44.1 4.6 29.8-3.4 59.2-11.9 85.1-27.3 16.7-9.9 1.9-35.3-15.2-26.1-19.3 10.4-40.3 17.5-62 20.3-9.7 1.3-20.1 1.8-29.9 1.7-9.3-0.2-18.6-9.6-25-15.5-10.7-9.6-25.5 5.1-15.8 15.8 5 5.5 9.5 11.4 15.7 15.5 9.4 6.2 21.6-6.1 15.5-15.5-4.1-6.2-10-10.8-15.4-15.8l-15.8 15.8c9.8 8.7 20.6 18.9 33.2 23.2 11.8 4 24 3.7 36.3 2.5 27.3-2.6 53.7-10.3 78.5-21.9-5.1-8.7-10.2-17.4-15.2-26.1-19.8 10.3-40.6 18.1-62.5 22.7-10.6 2.2-21.6 4.1-32.4 3.8-4.1-0.1-8.5-0.4-12.4-2-3.6-1.5-4.4-2.8-6.1-6-1.9-3.6-6.9-5.6-10.8-4.4-2.3 0.7-4.5 1.2-6.8 1.8 2.7 1.1 5.5 2.2 8.2 3.3-1-1.9-2.5-3.6-4.8-3.7zM646.6 882.7c0.8 0.8 1.6 1.2 2.6 1.5 2.6 0.8 5-0.6 6.5-2.7 0.2-0.2 0.4-0.5 0.5-0.7 1.2-1.7 1.2-4.8 0-6.5-3.4-4.6-7.7-5.3-13-6.8-6.2-1.7-12.5-3.2-18.7-4.8-11.1-3-22.1-6.1-32.9-9.9-5.2-1.8-10.9-3.3-15.9-5.5-3.7-1.6-5.3-2.7-6.2-4.8 0.5 1.1-0.1-2.2-0.2-2.9-0.1-2.2 0-4.5 0.2-6.6 0.5-5.6 2-11.2 2.9-16.7-9.5 2.5-19.1 5-28.6 7.5-2.1-2.4-0.4-0.1 0.1 1.8 0.4 1.5 0.7 3 1.1 4.5 0.8 3.4 1.4 6.8 2.3 10.2 2.1 7.9 5.4 15.3 10.7 21.6 9.3 11.1 23.8 16.7 37.4 20.2 30.9 8 61.1 9.7 90.7-3.5 7.1-3.2 8.8-13.6 5.2-19.8-4.3-7.4-12.6-8.3-19.8-5.2-21.7 9.4-45 5.8-67 0-8.1-2.1-18.4-4.7-23.6-11.8-3-4-3.7-9.5-4.7-14.3-1-5.1-2.9-11-3.2-15.9-1.3-18.8-28-23.7-33.6-4.5-4 13.6-6.7 29.2-3.5 43.3 3.6 16.3 16.7 25.5 31.9 30 13.7 4 27.8 6.6 41.9 8.4 7.1 0.9 14.3 1 21.4 0.3 3.7-0.4 7.1-1.1 10.7-2.1 2.1-0.6 4.2-1 6.2-1.8 0.8-0.3 4.5-1.2 2.5-1.2-1.5-0.6-3-1.3-4.5-1.9 1.5 1.7-1.8-1.9 0.6 0.6zM753.5 722.6c-21.3 10.2-44.6 17.1-67.7 21.7-24.8 5-49.5 9.9-74.5 13.5-49 7-99.2 7.3-147.4 19.7-12.2 3.1-24.2 7-35.9 11.9-5.4 2.2-10.7 4.5-15.9 7.3-6.1 3.3-9.9 7.4-14.5 12.5-2.7 3-0.1 8.4 4.1 7.1 21.6-6.7 41.6-17.3 63.6-23.2 23.7-6.3 47.9-9.2 72.1-11.8 49.9-5.4 100.2-11 148.9-23.7 13.5-3.5 26.8-7.5 39.6-12.9 11.1-4.7 20.5-11.2 29.8-18.7 2.3-1.7-0.2-4.4-2.2-3.4z" fill="#C64234" /><path d="M694.7 923.4h-0.4l-467.6-6.8c-6.3-0.1-11.4-2.6-14-7-2.3-3.9-2.3-8.6-0.1-12.9l176.6-342.1c3.8-7.4 13.9-12.9 23.5-12.7l467.6 6.8c6.3 0.1 11.4 2.6 14 7 2.3 3.9 2.3 8.6 0.1 12.9l-176.6 342c-3.8 7.3-13.7 12.8-23.1 12.8z m-467.9-21.7h0.1l467.6 6.8c4.4 0 9-2.8 10-4.7l175.7-340.3h-0.1l-467.6-6.8c-4.4-0.1-9 2.8-10 4.7L226.8 901.7z"  /><path d="M580.2 762.2l-467.6-6.8c-6.7-0.1-10.1-4.2-7.6-9.1l176.6-342.1c2.5-4.9 10.1-8.8 16.7-8.7l467.6 6.8c6.7 0.1 10.1 4.2 7.6 9.1L596.9 753.5c-2.5 4.9-10 8.8-16.7 8.7z" fill="#C6321A" /><path d="M580.4 769.7h-0.4l-467.6-6.8c-6.3-0.1-11.4-2.6-14-7-2.3-3.9-2.3-8.6-0.1-12.9L275 400.9c3.8-7.4 13.9-12.9 23.5-12.7l467.6 6.8c6.3 0.1 11.4 2.6 14 7 2.3 3.9 2.3 8.6 0.1 12.9l-176.7 342c-3.7 7.4-13.6 12.8-23.1 12.8zM112.6 748h0.1l467.6 6.8c4.3 0.1 9-2.8 10-4.7L766 409.9h-0.1l-467.6-6.8c-4.4-0.1-9 2.8-10 4.7L112.6 748z"  /><path d="M396.5 433c-2.3 17.2 11.7 29.4 26.1 35.5 9.2 3.9 19 6.2 29 7.4 8.7 1.1 21.4 3.1 28.3-3.5 1-0.9 1.4-3 0.5-4.1-4.3-5.6-11.9-7-18.6-8.1-8.2-1.3-16.5-2.4-24.5-4.4-11.4-2.8-27.6-9-28.8-22.7-0.7-8-11-7.7-12-0.1zM165.9 635c2.3 30.4 51.9 15.2 68.4 10 31.1-9.8 62.5-20.8 91.8-35.2-3.3-5.6-6.6-11.2-9.8-16.8-21.4 15.4-44.1 27.7-69.6 34.8-24.8 6.9-50.4 10.5-75.4 16.7-9.2 2.3-8.1 14.8 0 17.6 11.3 3.9 24-0.5 35.1-3.5 13.3-3.6 26.5-7.4 39.7-11.4 26.3-8 52.1-17.4 77.2-28.6-3.4-5.9-6.9-11.8-10.3-17.7-25.4 13-50.4 26.6-77.5 35.7-12.4 4.2-25.6 8.1-38.7 8.9-4.3 0.2-8.1 0.5-11.3-2.3-4.5-4-6.6-7.9-13.1-9.2-5.7-1.2-10.2 1.6-12.2 6.9-7.8 20.1 26.6 22.8 38.6 23 20.6 0.4 39.5-6.1 58.3-13.8 18.7-7.6 38.6-14.5 56.1-24.6 16.5-9.5 29.8-23.2 39.7-39.4 7.5-12.3-10.2-26.4-20.2-15.6-9.3 10.1-18.5 20.6-29.7 28.7-12.4 9-26.6 15.6-40.3 22.3-25.9 12.8-53.6 20.5-79.7 32.5-3.1 1.4-3.2 6.9 0 8.3 30.5 13 62.6-4.3 90.1-17.8 14.5-7.1 29.5-14.1 42.7-23.7 12.9-9.4 24.4-20.5 35.2-32.1-6.7-5.2-13.5-10.4-20.2-15.6-16.1 26.4-42.2 38.5-69.3 50.9-14.4 6.6-28.3 11.7-44 14.5-7.4 1.3-14.8 2.1-22.3 2.4-3.2 0.1-6.4 0.2-9.6 0-1.9-0.1-3.8-0.5-5.7-0.5-0.7-0.1-1.3-0.2-1.9-0.3-2.8-0.9-2.3 1.1 1.5 6.1-4.1 2.3-8.1 4.6-12.2 6.9 2.8 0.4 1.4 0.4 4.1 3.7 1.7 2.1 3.5 3.8 5.9 5.2 5.1 3.1 11.5 4 17.5 4.1 14.7 0.4 30.1-3.9 44-8.3 29.6-9.4 57.7-24.1 84.7-39.4 11.6-6.6 1.4-23.4-10.3-17.7-22.3 11-45.8 19.2-69.4 26.7-11.4 3.6-22.9 6.9-34.3 10.4-9.3 2.8-23.4 9.8-33.1 6.5v17.6c25.8-6.5 52.4-10.1 78-17.6 26.2-7.7 48.6-21.2 72-34.6 9.3-5.3 3.1-21.7-7.5-17.8-24.6 9.1-48.9 19.1-73.7 28-12.2 4.4-24.5 8.8-36.9 12.7-5.8 1.8-11.8 3.5-17.9 3.6-2.6 0-9.9 0.1-10.9-3-2.5-6.9-14.2-6.2-13.6 1.8zM564.8 495.1c-1.2-0.1-2.3 0.2-3.4 0.5-7.5 1.9-6.3 11.6 0 14 1.5 0.6 3 1.2 4.5 1.6-1.5-3.6-2.9-7.2-4.4-10.8-3.1 12.3 6.2 23.1 16.8 28 13.5 6.2 29.6 6.3 44.1 4.6 29.8-3.4 59.2-11.9 85.1-27.3 16.7-9.9 1.9-35.3-15.2-26.1-19.3 10.4-40.3 17.5-62 20.3-9.7 1.3-20.1 1.8-29.9 1.7-9.3-0.2-18.6-9.6-25-15.5-10.7-9.6-25.5 5.1-15.8 15.8 5 5.5 9.5 11.4 15.7 15.5 9.4 6.2 21.6-6.1 15.5-15.5-4.1-6.2-10-10.8-15.4-15.8l-15.8 15.8c9.8 8.7 20.6 18.9 33.2 23.2 11.8 4 24 3.7 36.3 2.5 27.3-2.6 53.7-10.3 78.5-21.9-5.1-8.7-10.2-17.4-15.2-26.1-19.8 10.3-40.6 18.1-62.5 22.7-10.6 2.2-21.6 4.1-32.4 3.8-4.1-0.1-8.5-0.4-12.4-2-3.6-1.5-4.4-2.8-6.1-6-1.9-3.6-6.9-5.6-10.8-4.4-2.3 0.7-4.5 1.2-6.8 1.8 2.7 1.1 5.5 2.2 8.2 3.3-1-1.9-2.5-3.6-4.8-3.7zM398.3 521.1c-0.5-1-1.2-1.6-2.2-2.2-1.5-1-4.3-1.2-5.8 0-0.2 0.2-0.4 0.3-0.6 0.5-2.1 1.6-4 4.4-2.9 7.2 1.7 4.8 5.2 6.8 9.4 9.5 4.9 3.2 10 6.1 15 9.1 9.9 5.9 19.7 12.1 29 18.9 5.4 3.9 17.8 10.6 19.9 15.9 0.3 0.8 0.3 1.4 0.2 2.5-0.3 2.7-1.4 5.6-2.4 8.1-2.2 5.6-5.4 10.7-8.1 16.1h29.5c1.4 3.1 0.7-0.7 0.8-2.2 0.1-1.7 0.2-3.3 0.3-4.9 0.3-3.7 0.6-7.4 0.7-11.1 0.1-8.2-1.3-16-4.8-23.4-6.3-13.2-19-22.5-31.3-29.8-25.2-15-52.6-25.8-82.4-22.1-7.7 1-14.5 5.9-14.5 14.5 0 7.1 6.7 15.4 14.5 14.5 24-2.8 43.8 5.1 64.2 17 8 4.7 18.6 10.4 22.3 19.5 1.9 4.6 1.1 9.9 0.7 14.7-0.5 5.6-0.5 12-1.8 17.5-4.4 19 20.6 29.6 31.3 13.2 8.1-12.5 16.1-28.1 15.7-43.4-0.4-17.1-11.9-28.2-25.6-36.6-11-6.8-22.5-13-34.3-18.1-6.7-2.9-13.9-5.2-21.1-6.6-3.9-0.7-7.8-0.9-11.8-1-1.7 0-3.4-0.1-5.1 0.1-1 0.1-4.4-0.2-2.4 0.3l4.5 4.5c-1.7-4.2 0.7 0.7-0.9-2.2zM328 757.6c10.2-0.9 13.5-6.5 20.1-13.2 7.1-7.2 19.8-10.9 28.8-14.9 22.5-10.1 45.9-19.4 69.8-25.6 21.1-5.4 44.3-8.5 66-4.5 9.2 1.7 17.6 4.6 27.1 5.2l5.4 0.3c2 0.1 3.3 0.3 3.2 0.4 1.5-0.7-0.3 0.8-0.6-0.3 0 0-4.4-14.6-3.8-14-0.1-0.1-0.7 0.3-0.5 0.2 0.7-0.2-1.3 0.9-1.7 1.1-8.3 5.6-17.6 12.4-17.7 23.5-0.2 13.5 11.4 28.4 24.3 32.1 13 3.7 21.1-10.2 16.2-21-1.4-3-3.5-5.3-5.8-7.7-0.1-0.1-4.3-4.6-4.1-4.6 0.5 0-1 4.3-0.8 5.3 0.2 1.3-1.3 1 0.3-0.1 0.8-0.6 1.5-1.4 2.2-2.1 5.7-5.2 12.3-10.1 14.2-18 2.8-11.8-6.9-20.5-17.5-22.6-8.8-1.7-16.6-1.1-24.2-3.1-23.6-6-48-2.9-71.4 2-25.7 5.4-50.8 14.7-74.4 26.1-12.7 6.1-25.1 13-37.3 20-5 2.9-9.2 6.3-12.5 11-2.8 3.9-4.9 8.8-8.9 11.6-4.8 3.6-3.9 13.6 3.6 12.9zM587.7 615.5c-21.3 10.2-44.6 17.1-67.7 21.7-24.8 5-49.5 9.9-74.5 13.5-49 7-99.2 7.3-147.4 19.7-12.2 3.1-24.2 7-35.9 11.9-5.4 2.2-10.7 4.5-15.9 7.3-6.1 3.3-9.9 7.4-14.5 12.5-2.7 3-0.1 8.4 4.1 7.1 21.6-6.7 41.6-17.3 63.6-23.2 23.7-6.3 47.9-9.2 72.1-11.8 49.9-5.4 100.2-11 148.9-23.7 13.5-3.5 26.8-7.5 39.6-12.9 11.1-4.7 20.5-11.2 29.8-18.7 2.3-1.6-0.2-4.3-2.2-3.4z" fill="#C64234" /><path d="M581.9 764.8h-0.4L114 758c-6.3-0.1-11.4-2.6-14-7-2.3-3.9-2.3-8.6-0.1-12.9L276.5 396c3.8-7.4 13.9-12.9 23.5-12.7l467.6 6.8c6.3 0.1 11.4 2.6 14 7 2.3 3.9 2.3 8.6 0.1 12.9L605.1 752.1c-3.8 7.3-13.7 12.7-23.2 12.7z m-467.8-21.7h0.1l467.6 6.8c4.4 0.1 9-2.8 10-4.7L767.5 405h-0.1l-467.6-6.8c-4.4-0.1-9 2.8-10 4.7L114.1 743.1z"  /><path d="M695.5 700.7l-467.6-6.8c-6.7-0.1-10.1-4.2-7.6-9.1l176.6-342.1c2.5-4.9 10.1-8.8 16.7-8.7l467.6 6.8c6.7 0.1 10.1 4.2 7.6 9.1L712.2 692c-2.5 4.8-10.1 8.8-16.7 8.7z" fill="#C6321A" /><path d="M695.7 708.1h-0.4l-467.6-6.8c-6.3-0.1-11.4-2.6-14-7-2.3-3.9-2.3-8.6-0.1-12.9l176.6-342.1c3.8-7.4 13.9-12.9 23.5-12.7l467.6 6.8c6.3 0.1 11.4 2.6 14 7 2.3 3.9 2.3 8.6 0.1 12.9L718.8 695.4c-3.7 7.3-13.6 12.7-23.1 12.7z m-0.1-14.9c4.4 0.1 9-2.8 10-4.7l175.7-340.3h-0.1l-467.6-6.8c-4.4-0.1-9 2.8-10 4.7L227.9 686.4h0.1l467.6 6.8z"  /><path d="M511.8 371.4c-2.3 17.2 11.7 29.4 26.1 35.5 9.2 3.9 19 6.2 29 7.4 8.7 1.1 21.4 3.1 28.3-3.5 1-0.9 1.4-3 0.5-4.1-4.3-5.6-11.9-7-18.6-8.1-8.2-1.3-16.5-2.4-24.5-4.4-11.4-2.8-27.6-9-28.8-22.7-0.7-7.9-11-7.7-12-0.1zM281.2 573.5c2.3 30.4 51.9 15.2 68.4 10 31.1-9.8 62.5-20.8 91.8-35.2-3.3-5.6-6.6-11.2-9.8-16.8-21.4 15.4-44.1 27.7-69.6 34.8-24.8 6.9-50.4 10.5-75.4 16.7-9.2 2.3-8.1 14.8 0 17.6 11.3 3.9 24-0.5 35.1-3.5 13.3-3.6 26.5-7.4 39.7-11.4 26.3-8 52.1-17.4 77.2-28.6-3.4-5.9-6.9-11.8-10.3-17.7-25.4 13-50.4 26.6-77.5 35.7-12.4 4.2-25.6 8.1-38.7 8.9-4.3 0.2-8.1 0.5-11.3-2.3-4.5-4-6.6-7.9-13.1-9.2-5.7-1.2-10.2 1.6-12.2 6.9-7.8 20.1 26.6 22.8 38.6 23 20.6 0.4 39.5-6.1 58.3-13.8 18.7-7.6 38.6-14.5 56.1-24.6 16.5-9.5 29.8-23.2 39.7-39.4 7.5-12.3-10.2-26.4-20.2-15.6-9.3 10.1-18.5 20.6-29.7 28.7-12.4 9-26.6 15.6-40.3 22.3-25.9 12.8-53.6 20.4-79.7 32.5-3.1 1.4-3.2 6.9 0 8.3 30.5 13 62.6-4.3 90.1-17.8 14.5-7.1 29.5-14.1 42.7-23.7 12.9-9.4 24.4-20.5 35.2-32.1-6.7-5.2-13.5-10.4-20.2-15.6-16.1 26.4-42.2 38.5-69.3 50.9-14.4 6.6-28.3 11.7-44 14.5-7.4 1.3-14.8 2.1-22.3 2.4-3.2 0.1-6.4 0.2-9.6 0-1.9-0.1-3.8-0.5-5.7-0.5-0.7-0.1-1.3-0.2-1.9-0.3-2.8-0.9-2.3 1.1 1.5 6.1-4.1 2.3-8.1 4.6-12.2 6.9 2.8 0.4 1.4 0.4 4.1 3.7 1.7 2.1 3.5 3.8 5.9 5.2 5.1 3.1 11.5 4 17.5 4.1 14.7 0.4 30.1-3.9 44-8.3 29.6-9.4 57.7-24.1 84.7-39.4 11.6-6.6 1.4-23.4-10.3-17.7-22.3 11-45.8 19.2-69.4 26.7-11.4 3.6-22.9 6.9-34.3 10.4-9.3 2.8-23.4 9.8-33.1 6.5v17.6c25.8-6.5 52.4-10.1 78-17.6 26.2-7.7 48.6-21.2 72-34.6 9.3-5.3 3.1-21.7-7.5-17.8-24.6 9.1-48.9 19.1-73.7 28-12.2 4.4-24.5 8.8-36.9 12.7-5.8 1.8-11.8 3.5-17.9 3.6-2.6 0-9.9 0.1-10.9-3-2.5-7-14.2-6.2-13.6 1.8zM680.1 433.5c-1.2-0.1-2.3 0.2-3.4 0.5-7.5 1.9-6.3 11.6 0 14 1.5 0.6 3 1.2 4.5 1.6-1.5-3.6-2.9-7.2-4.4-10.8-3.1 12.3 6.2 23.1 16.8 28 13.5 6.2 29.6 6.3 44.1 4.6 29.8-3.4 59.2-11.9 85.1-27.3 16.7-9.9 1.9-35.3-15.2-26.1-19.3 10.4-40.3 17.5-62 20.3-9.7 1.3-20.1 1.8-29.9 1.7-9.3-0.2-18.6-9.6-25-15.5-10.7-9.6-25.5 5.1-15.8 15.8 5 5.5 9.5 11.4 15.7 15.5 9.4 6.2 21.6-6.1 15.5-15.5-4.1-6.2-10-10.8-15.4-15.8l-15.8 15.8c9.8 8.7 20.6 18.9 33.2 23.2 11.8 4 24 3.7 36.3 2.5 27.3-2.6 53.7-10.3 78.5-21.9-5.1-8.7-10.2-17.4-15.2-26.1-19.8 10.3-40.6 18.1-62.5 22.7-10.6 2.2-21.6 4.1-32.4 3.8-4.1-0.1-8.5-0.4-12.4-2-3.6-1.5-4.4-2.8-6.1-6-1.9-3.6-6.9-5.6-10.8-4.4-2.3 0.7-4.5 1.2-6.8 1.8 2.7 1.1 5.5 2.2 8.2 3.3-1-1.9-2.5-3.5-4.8-3.7zM513.6 459.5c-0.5-1-1.2-1.6-2.2-2.2-1.5-1-4.3-1.2-5.8 0-0.2 0.2-0.4 0.3-0.6 0.5-2.1 1.6-4 4.4-2.9 7.2 1.7 4.8 5.2 6.8 9.4 9.5 4.9 3.2 10 6.1 15 9.1 9.9 5.9 19.7 12.1 29 18.9 5.4 3.9 17.8 10.6 19.9 15.9 0.3 0.8 0.3 1.4 0.2 2.5-0.3 2.7-1.4 5.6-2.4 8.1-2.2 5.6-5.4 10.7-8.1 16.1h29.5c1.4 3.1 0.7-0.7 0.8-2.2 0.1-1.7 0.2-3.3 0.3-4.9 0.3-3.7 0.6-7.4 0.7-11.1 0.1-8.2-1.3-16-4.8-23.4-6.3-13.2-19-22.5-31.3-29.8-25.2-15-52.6-25.8-82.4-22.1-7.7 1-14.5 5.9-14.5 14.5 0 7.1 6.7 15.4 14.5 14.5 24-2.8 43.8 5.1 64.2 17 8 4.7 18.6 10.4 22.3 19.5 1.9 4.6 1.1 9.9 0.7 14.7-0.5 5.6-0.5 12-1.8 17.5-4.4 19 20.6 29.6 31.3 13.2 8.1-12.5 16.1-28.1 15.7-43.4-0.4-17.1-11.9-28.2-25.6-36.6-11-6.8-22.5-13-34.3-18.1-6.7-2.9-13.9-5.2-21.1-6.6-3.9-0.7-7.8-0.9-11.8-1-1.7 0-3.4-0.1-5.1 0.1-1 0.1-4.4-0.2-2.4 0.3l4.5 4.5c-1.7-4.2 0.7 0.7-0.9-2.2zM443.3 696.1c10.2-0.9 13.5-6.5 20.1-13.2 7.1-7.2 19.8-10.9 28.8-14.9 22.5-10.1 45.9-19.4 69.8-25.6 21.1-5.4 44.3-8.5 66-4.5 9.2 1.7 17.6 4.6 27.1 5.2l5.4 0.3c2 0.1 3.3 0.3 3.2 0.4 1.5-0.7-0.3 0.8-0.6-0.3 0 0-4.4-14.6-3.8-14-0.1-0.1-0.7 0.3-0.5 0.2 0.7-0.2-1.3 0.9-1.7 1.1-8.3 5.6-17.6 12.4-17.7 23.5-0.2 13.5 11.4 28.4 24.3 32.1 13 3.7 21.1-10.2 16.2-21-1.4-3-3.5-5.3-5.8-7.7-0.1-0.1-4.3-4.6-4.1-4.6 0.5 0-1 4.3-0.8 5.3 0.2 1.3-1.3 1 0.3-0.1 0.8-0.6 1.5-1.4 2.2-2.1 5.7-5.2 12.3-10.1 14.2-18 2.8-11.8-6.9-20.5-17.5-22.6-8.8-1.7-16.6-1.1-24.2-3.1-23.6-6-48-2.9-71.4 2-25.7 5.4-50.8 14.7-74.4 26.1-12.7 6.1-25.1 13-37.3 20-5 2.9-9.2 6.3-12.5 11-2.8 3.9-4.9 8.8-8.9 11.6-4.8 3.6-3.9 13.5 3.6 12.9zM703 554c-21.3 10.2-44.6 17.1-67.7 21.7-24.8 5-49.5 9.9-74.5 13.5-49 7-99.2 7.3-147.4 19.7-12.2 3.1-24.2 7-35.9 11.9-5.4 2.2-10.7 4.5-15.9 7.3-6.1 3.3-9.9 7.4-14.5 12.5-2.7 3-0.1 8.4 4.1 7.1 21.6-6.7 41.6-17.3 63.6-23.2 23.7-6.3 47.9-9.2 72.1-11.8 49.9-5.4 100.2-11 148.9-23.7 13.5-3.5 26.8-7.5 39.6-12.9 11.1-4.7 20.5-11.2 29.8-18.7 2.3-1.7-0.2-4.4-2.2-3.4z" fill="#C64234" /><path d="M697.2 703.3h-0.4l-467.6-6.8c-6.3-0.1-11.4-2.6-14-7-2.3-3.9-2.3-8.6-0.1-12.9l176.6-342.1c3.8-7.4 13.9-12.9 23.5-12.7l467.6 6.8c6.3 0.1 11.4 2.6 14 7 2.3 3.9 2.3 8.6 0.1 12.9l-176.6 342c-3.7 7.3-13.6 12.8-23.1 12.8z m-0.1-14.9c4.4 0.1 9-2.8 10-4.7l175.7-340.3h-0.1l-467.6-6.8c-4.4-0.1-9 2.8-10 4.7L229.4 681.6h0.1l467.6 6.8z"  /><path d="M303.2 183.8l467.6 6.8c6.7 0.1 10.1 4.2 7.6 9.1l-176.7 342c-2.5 4.9-10.1 8.8-16.7 8.7l-467.6-6.8c-6.7-0.1-10.1-4.2-7.6-9.1l176.6-342.1c2.6-4.8 10.1-8.7 16.8-8.6z" fill="#C6321A" /><path d="M585.2 557.8h-0.4L117.3 551c-6.3-0.1-11.4-2.6-14-7-2.3-3.9-2.3-8.6-0.1-12.9L279.8 189c3.8-7.4 13.9-12.9 23.5-12.7l467.6 6.8c6.3 0.1 11.4 2.6 14 7 2.3 3.9 2.3 8.6 0.1 12.9L608.3 545.1c-3.7 7.3-13.6 12.7-23.1 12.7z m-467.8-21.7h0.1l467.6 6.8c4.4 0.1 9-2.8 10-4.7L770.8 198h-0.1l-467.6-6.8h-0.1c-4.3 0-8.9 2.8-9.9 4.7L117.4 536.1z"  /><path d="M486.9 513c2.3-17.2-11.7-29.4-26.1-35.5-9.2-3.9-19-6.2-29-7.4-8.7-1.1-21.4-3.1-28.3 3.5-1 0.9-1.4 3-0.5 4.1 4.3 5.6 11.9 7 18.6 8.1 8.2 1.3 16.5 2.4 24.5 4.4 11.4 2.8 27.6 9 28.8 22.7 0.7 8 11 7.7 12 0.1zM717.5 311c-2.3-30.4-51.9-15.2-68.4-10-31.1 9.8-62.5 20.8-91.8 35.2 3.3 5.6 6.6 11.2 9.8 16.8 21.4-15.4 44.1-27.7 69.6-34.8 24.8-6.9 50.4-10.5 75.4-16.7 9.2-2.3 8.1-14.8 0-17.6-11.3-3.9-24 0.5-35.1 3.5-13.3 3.6-26.5 7.4-39.7 11.4-26.3 8-52.1 17.4-77.2 28.6 3.4 5.9 6.9 11.8 10.3 17.7 25.4-13 50.4-26.6 77.5-35.7 12.4-4.2 25.6-8.1 38.7-8.9 4.3-0.2 8.1-0.5 11.3 2.3 4.5 4 6.6 7.9 13.1 9.2 5.7 1.2 10.2-1.6 12.2-6.9 7.8-20.1-26.6-22.8-38.6-23-20.6-0.4-39.5 6.1-58.3 13.8-18.7 7.6-38.6 14.5-56.1 24.6-16.5 9.5-29.8 23.2-39.7 39.4-7.5 12.3 10.2 26.4 20.2 15.6 9.3-10.1 18.5-20.6 29.7-28.7 12.4-9 26.6-15.6 40.3-22.3 25.9-12.8 53.6-20.4 79.7-32.5 3.1-1.4 3.2-6.9 0-8.3-30.5-13-62.6 4.3-90.1 17.8-14.5 7.1-29.5 14.1-42.7 23.7-12.9 9.4-24.4 20.5-35.2 32.1 6.7 5.2 13.5 10.4 20.2 15.6 16.1-26.4 42.2-38.5 69.3-50.9 14.4-6.6 28.3-11.7 44-14.5 7.4-1.3 14.8-2.1 22.3-2.4 3.2-0.1 6.4-0.2 9.6 0 1.9 0.1 3.8 0.5 5.7 0.5 0.7 0.1 1.3 0.2 1.9 0.3 2.8 0.9 2.3-1.1-1.5-6.1 4.1-2.3 8.1-4.6 12.2-6.9-2.8-0.4-1.4-0.4-4.1-3.7-1.7-2.1-3.5-3.8-5.9-5.2-5.1-3.1-11.5-4-17.5-4.1-14.7-0.4-30.1 3.9-44 8.3-29.6 9.4-57.7 24.1-84.7 39.4-11.6 6.6-1.4 23.4 10.3 17.7 22.3-11 45.8-19.2 69.4-26.7 11.4-3.6 22.9-6.9 34.3-10.4 9.3-2.8 23.4-9.8 33.1-6.5v-17.6c-25.8 6.5-52.4 10.1-78 17.6-26.2 7.7-48.6 21.2-72 34.6-9.3 5.3-3.1 21.7 7.5 17.8 24.6-9.1 48.9-19.1 73.7-28 12.2-4.4 24.5-8.8 36.9-12.7 5.8-1.8 11.8-3.5 17.9-3.6 2.6 0 9.9-0.1 10.9 3 2.5 6.9 14.2 6.1 13.6-1.8zM318.5 450.9c1.2 0.1 2.3-0.2 3.4-0.5 7.5-1.9 6.3-11.6 0-14-1.5-0.6-3-1.2-4.5-1.6 1.5 3.6 2.9 7.2 4.4 10.8 3.1-12.3-6.2-23.1-16.8-28-13.5-6.2-29.6-6.3-44.1-4.6-29.8 3.4-59.2 11.9-85.1 27.3-16.7 9.9-1.9 35.3 15.2 26.1 19.3-10.4 40.3-17.5 62-20.3 9.7-1.3 20.1-1.8 29.9-1.7 9.3 0.2 18.6 9.6 25 15.5 10.7 9.6 25.5-5.1 15.8-15.8-5-5.5-9.5-11.4-15.7-15.5-9.4-6.2-21.6 6.1-15.5 15.5 4.1 6.2 10 10.8 15.4 15.8l15.8-15.8c-9.8-8.7-20.6-18.9-33.2-23.2-11.8-4-24-3.7-36.3-2.5-27.3 2.6-53.7 10.3-78.5 21.9 5.1 8.7 10.2 17.4 15.2 26.1 19.8-10.3 40.6-18.1 62.5-22.7 10.6-2.2 21.6-4.1 32.4-3.8 4.1 0.1 8.5 0.4 12.4 2 3.6 1.5 4.4 2.8 6.1 6 1.9 3.6 6.9 5.6 10.8 4.4 2.3-0.7 4.5-1.2 6.8-1.8-2.7-1.1-5.5-2.2-8.2-3.3 1 1.9 2.5 3.6 4.8 3.7zM485 424.9c0.5 1 1.2 1.6 2.2 2.2 1.5 1 4.3 1.2 5.8 0 0.2-0.2 0.4-0.3 0.6-0.5 2.1-1.6 4-4.4 2.9-7.2-1.7-4.8-5.2-6.8-9.4-9.5-4.9-3.2-10-6.1-15-9.1-9.9-5.9-19.7-12.1-29-18.9-5.4-3.9-17.8-10.6-19.9-15.9-0.3-0.8-0.3-1.4-0.2-2.5 0.3-2.7 1.4-5.6 2.4-8.1 2.2-5.6 5.4-10.7 8.1-16.1H404c-1.4-3.1-0.7 0.7-0.8 2.2-0.1 1.7-0.2 3.3-0.3 4.9-0.3 3.7-0.6 7.4-0.7 11.1-0.1 8.2 1.3 16 4.8 23.4 6.3 13.2 19 22.5 31.3 29.8 25.2 15 52.6 25.8 82.4 22.1 7.7-1 14.5-5.9 14.5-14.5 0-7.1-6.7-15.4-14.5-14.5-24 2.8-43.8-5.1-64.2-17-8-4.7-18.6-10.4-22.3-19.5-1.9-4.6-1.1-9.9-0.7-14.7 0.5-5.6 0.5-12 1.8-17.5 4.4-19-20.6-29.6-31.3-13.2-8.1 12.5-16.1 28.1-15.7 43.4 0.4 17.1 11.9 28.2 25.6 36.6 11 6.8 22.5 13 34.3 18.1 6.7 2.9 13.9 5.2 21.1 6.6 3.9 0.7 7.8 0.9 11.8 1 1.7 0 3.4 0.1 5.1-0.1 1-0.1 4.4 0.2 2.4-0.3l-4.5-4.5c1.7 4.2-0.6-0.7 0.9 2.2zM555.3 188.4c-10.2 0.9-13.5 6.5-20.1 13.2-7.1 7.2-19.8 10.9-28.8 14.9-22.5 10.1-45.9 19.4-69.8 25.6-21.1 5.4-44.3 8.5-66 4.5-9.2-1.7-17.6-4.6-27.1-5.2l-5.4-0.3c-2-0.1-3.3-0.3-3.2-0.4-1.5 0.7 0.3-0.8 0.6 0.3 0 0 4.4 14.6 3.8 14 0.1 0.1 0.7-0.3 0.5-0.2-0.7 0.2 1.3-0.9 1.7-1.1 8.3-5.6 17.6-12.4 17.7-23.5 0.2-13.5-11.4-28.4-24.3-32.1-13-3.7-21.1 10.2-16.2 21 1.4 3 3.5 5.3 5.8 7.7 0.1 0.1 4.3 4.6 4.1 4.6-0.5 0 1-4.3 0.8-5.3-0.2-1.3 1.3-1-0.3 0.1-0.8 0.6-1.5 1.4-2.2 2.1-5.7 5.2-12.3 10.1-14.2 18-2.8 11.8 6.9 20.5 17.5 22.6 8.8 1.7 16.6 1.1 24.2 3.1 23.6 6 48 2.9 71.4-2 25.7-5.4 50.8-14.7 74.4-26.1 12.7-6.1 25.1-13 37.3-20 5-2.9 9.2-6.3 12.5-11 2.8-3.9 4.9-8.8 8.9-11.6 4.9-3.6 3.9-13.6-3.6-12.9zM295.6 330.4c21.3-10.2 44.6-17.1 67.7-21.7 24.8-5 49.5-9.9 74.5-13.5 49-7 99.2-7.3 147.4-19.7 12.2-3.1 24.2-7 35.9-11.9 5.4-2.2 10.7-4.5 15.9-7.3 6.1-3.3 9.9-7.4 14.5-12.5 2.7-3 0.1-8.4-4.1-7.1-21.6 6.7-41.6 17.3-63.6 23.2-23.7 6.3-47.9 9.2-72.1 11.8-49.9 5.4-100.2 11-148.9 23.7-13.5 3.5-26.8 7.5-39.6 12.9-11.1 4.7-20.5 11.2-29.8 18.7-2.3 1.7 0.2 4.4 2.2 3.4z" fill="#C64234" /><path d="M583.7 562.7h-0.4l-467.6-6.8c-6.3-0.1-11.4-2.6-14-7-2.3-3.9-2.3-8.6-0.1-12.9l176.6-342.1c3.8-7.4 13.9-12.9 23.5-12.7l467.6 6.8c6.3 0.1 11.4 2.6 14 7 2.3 3.9 2.3 8.6 0.1 12.9l-176.6 342c-3.7 7.4-13.6 12.8-23.1 12.8zM115.9 541h0.1l467.6 6.8c4.4 0.1 9-2.8 10-4.7l175.7-340.3h-0.1L301.6 196c-4.4-0.1-9 2.8-10 4.7L115.9 541z"  /><path d="M417.7 102.1l467.6 6.8c6.7 0.1 10.1 4.2 7.6 9.1L716.3 460c-2.5 4.9-10.1 8.8-16.7 8.7L232 461.9c-6.7-0.1-10.1-4.2-7.6-9.1l176.6-342c2.5-4.9 10-8.8 16.7-8.7z" fill="#C6321A" /><path d="M699.8 476.2h-0.4l-467.6-6.8c-6.3-0.1-11.4-2.6-14-7-2.3-3.9-2.3-8.6-0.1-12.9l176.6-342.1c3.8-7.4 13.9-12.9 23.5-12.7l467.6 6.8c6.3 0.1 11.4 2.6 14 7 2.3 3.9 2.3 8.6 0.1 12.9l-176.6 342c-3.8 7.3-13.7 12.8-23.1 12.8z m-467.9-21.7h0.1l467.6 6.8c4.4 0.1 9-2.8 10-4.7l175.7-340.3h-0.1l-467.6-6.8c-4.4-0.1-9 2.8-10 4.7L231.9 454.5z"  /><path d="M601.4 431.3c2.3-17.2-11.7-29.4-26.1-35.5-9.2-3.9-19-6.2-29-7.4-8.7-1.1-21.4-3.1-28.3 3.5-1 0.9-1.4 3-0.5 4.1 4.3 5.6 11.9 7 18.6 8.1 8.2 1.3 16.5 2.4 24.5 4.4 11.4 2.8 27.6 9 28.8 22.7 0.7 8 11 7.7 12 0.1zM832 229.3c-2.3-30.4-51.9-15.2-68.4-10-31.1 9.8-62.5 20.8-91.8 35.2 3.3 5.6 6.6 11.2 9.8 16.8 21.4-15.4 44.1-27.7 69.6-34.8 24.8-6.9 50.4-10.5 75.4-16.7 9.2-2.3 8.1-14.8 0-17.6-11.3-3.9-24 0.5-35.1 3.5-13.3 3.6-26.5 7.4-39.7 11.4-26.3 8-52.1 17.4-77.2 28.6 3.4 5.9 6.9 11.8 10.3 17.7 25.4-13 50.4-26.6 77.5-35.7 12.4-4.2 25.6-8.1 38.7-8.9 4.3-0.2 8.1-0.5 11.3 2.3 4.5 4 6.6 7.9 13.1 9.2 5.7 1.2 10.2-1.6 12.2-6.9 7.8-20.1-26.6-22.8-38.6-23-20.6-0.4-39.5 6.1-58.3 13.8-18.7 7.6-38.6 14.5-56.1 24.6-16.5 9.5-29.8 23.2-39.7 39.4-7.5 12.3 10.2 26.4 20.2 15.6 9.3-10.1 18.5-20.6 29.7-28.7 12.4-9 26.6-15.6 40.3-22.3 25.9-12.8 53.6-20.4 79.7-32.5 3.1-1.4 3.2-6.9 0-8.3-30.5-13-62.6 4.3-90.1 17.8-14.5 7.1-29.5 14.1-42.7 23.7-12.9 9.4-24.4 20.5-35.2 32.1 6.7 5.2 13.5 10.4 20.2 15.6 16.1-26.4 42.2-38.5 69.3-50.9 14.4-6.6 28.3-11.7 44-14.5 7.4-1.3 14.8-2.1 22.3-2.4 3.2-0.1 6.4-0.2 9.6 0 1.9 0.1 3.8 0.5 5.7 0.5 0.7 0.1 1.3 0.2 1.9 0.3 2.8 0.9 2.3-1.1-1.5-6.1 4.1-2.3 8.1-4.6 12.2-6.9-2.8-0.4-1.4-0.4-4.1-3.7-1.7-2.1-3.5-3.8-5.9-5.2-5.1-3.1-11.5-4-17.5-4.1-14.7-0.4-30.1 3.9-44 8.3-29.6 9.4-57.7 24.1-84.7 39.4-11.6 6.6-1.4 23.4 10.3 17.7 22.3-11 45.8-19.2 69.4-26.7 11.4-3.6 22.9-6.9 34.3-10.4 9.3-2.8 23.4-9.8 33.1-6.5v-17.6c-25.8 6.5-52.4 10.1-78 17.6-26.2 7.7-48.6 21.2-72 34.6-9.3 5.3-3.1 21.7 7.5 17.8 24.6-9.1 48.9-19.1 73.7-28 12.2-4.4 24.5-8.8 36.9-12.7 5.8-1.8 11.8-3.5 17.9-3.6 2.6 0 9.9-0.1 10.9 3 2.5 6.9 14.2 6.2 13.6-1.8zM433.1 369.2c1.2 0.1 2.3-0.2 3.4-0.5 7.5-1.9 6.3-11.6 0-14-1.5-0.6-3-1.2-4.5-1.6 1.5 3.6 2.9 7.2 4.4 10.8 3.1-12.3-6.2-23.1-16.8-28-13.5-6.2-29.6-6.3-44.1-4.6-29.8 3.4-59.2 11.9-85.1 27.3-16.7 9.9-1.9 35.3 15.2 26.1 19.3-10.4 40.3-17.5 62-20.3 9.7-1.3 20.1-1.8 29.9-1.7 9.3 0.2 18.6 9.6 25 15.5 10.7 9.6 25.5-5.1 15.8-15.8-5-5.5-9.5-11.4-15.7-15.5-9.4-6.2-21.6 6.1-15.5 15.5 4.1 6.2 10 10.8 15.4 15.8l15.8-15.8c-9.8-8.7-20.6-18.9-33.2-23.2-11.8-4-24-3.7-36.3-2.5-27.3 2.6-53.7 10.3-78.5 21.9 5.1 8.7 10.2 17.4 15.2 26.1 19.8-10.3 40.6-18.1 62.5-22.7 10.6-2.2 21.6-4.1 32.4-3.8 4.1 0.1 8.5 0.4 12.4 2 3.6 1.5 4.4 2.8 6.1 6 1.9 3.6 6.9 5.6 10.8 4.4 2.3-0.7 4.5-1.2 6.8-1.8-2.7-1.1-5.5-2.2-8.2-3.3 1 1.9 2.4 3.6 4.8 3.7zM599.5 343.2c0.5 1 1.2 1.6 2.2 2.2 1.5 1 4.3 1.2 5.8 0 0.2-0.2 0.4-0.3 0.6-0.5 2.1-1.6 4-4.4 2.9-7.2-1.7-4.8-5.2-6.8-9.4-9.5-4.9-3.2-10-6.1-15-9.1-9.9-5.9-19.7-12.1-29-18.9-5.4-3.9-17.8-10.6-19.9-15.9-0.3-0.8-0.3-1.4-0.2-2.5 0.3-2.7 1.4-5.6 2.4-8.1 2.2-5.6 5.4-10.7 8.1-16.1h-29.5c-1.4-3.1-0.7 0.7-0.8 2.2-0.1 1.7-0.2 3.3-0.3 4.9-0.3 3.7-0.6 7.4-0.7 11.1-0.1 8.2 1.3 16 4.8 23.4 6.3 13.2 19 22.5 31.3 29.8 25.2 15 52.6 25.8 82.4 22.1 7.7-1 14.5-5.9 14.5-14.5 0-7.1-6.7-15.4-14.5-14.5-24 2.8-43.8-5.1-64.2-17-8-4.7-18.6-10.4-22.3-19.5-1.9-4.6-1.1-9.9-0.7-14.7 0.5-5.6 0.5-12 1.8-17.5 4.4-19-20.6-29.6-31.3-13.2-8.1 12.5-16.1 28.1-15.7 43.4 0.4 17.1 11.9 28.2 25.6 36.6 11 6.8 22.5 13 34.3 18.1 6.7 2.9 13.9 5.2 21.1 6.6 3.9 0.7 7.8 0.9 11.8 1 1.7 0 3.4 0.1 5.1-0.1 1-0.1 4.4 0.2 2.4-0.3l-4.5-4.5c1.8 4.2-0.6-0.7 0.9 2.2zM669.9 106.7c-10.2 0.9-13.5 6.5-20.1 13.2-7.1 7.2-19.8 10.9-28.8 14.9-22.5 10.1-45.9 19.4-69.8 25.6-21.1 5.4-44.3 8.5-66 4.5-9.2-1.7-17.6-4.6-27.1-5.2l-5.4-0.3c-2-0.1-3.3-0.3-3.2-0.4-1.5 0.7 0.3-0.8 0.6 0.3 0 0 4.4 14.6 3.8 14 0.1 0.1 0.7-0.3 0.5-0.2-0.7 0.2 1.3-0.9 1.7-1.1 8.3-5.6 17.6-12.4 17.7-23.5 0.2-13.5-11.4-28.4-24.3-32.1-13-3.7-21.1 10.2-16.2 21 1.4 3 3.5 5.3 5.8 7.7 0.1 0.1 4.3 4.6 4.1 4.6-0.5 0 1-4.3 0.8-5.3-0.2-1.3 1.3-1-0.3 0.1-0.8 0.6-1.5 1.4-2.2 2.1-5.7 5.2-12.3 10.1-14.2 18-2.8 11.8 6.9 20.5 17.5 22.6 8.8 1.7 16.6 1.1 24.2 3.1 23.6 6 48 2.9 71.4-2 25.7-5.4 50.8-14.7 74.4-26.1 12.7-6.1 25.1-13 37.3-20 5-2.9 9.2-6.3 12.5-11 2.8-3.9 4.9-8.8 8.9-11.6 4.8-3.6 3.9-13.5-3.6-12.9zM410.2 248.8c21.3-10.2 44.6-17.1 67.7-21.7 24.8-5 49.5-9.9 74.5-13.5 49-7 99.2-7.3 147.4-19.7 12.2-3.1 24.2-7 35.9-11.9 5.4-2.2 10.7-4.5 15.9-7.3 6.1-3.3 9.9-7.4 14.5-12.5 2.7-3 0.1-8.4-4.1-7.1-21.6 6.7-41.6 17.3-63.6 23.2-23.7 6.3-47.9 9.2-72.1 11.8-49.9 5.4-100.2 11-148.9 23.7-13.5 3.5-26.8 7.5-39.6 12.9-11.1 4.7-20.5 11.2-29.8 18.7-2.3 1.6 0.2 4.3 2.2 3.4z" fill="#C64234" /><path d="M698.2 481h-0.4l-467.6-6.8c-6.3-0.1-11.4-2.6-14-7-2.3-3.9-2.3-8.6-0.1-12.9l176.6-342.1c3.8-7.4 13.9-12.9 23.5-12.7l467.6 6.8c6.3 0.1 11.4 2.6 14 7 2.3 3.9 2.3 8.6 0.1 12.9L721.4 468.3c-3.8 7.3-13.7 12.7-23.2 12.7z m-467.8-21.7h0.1l467.6 6.8c4.4 0.1 9-2.8 10-4.7l175.7-340.3h-0.1l-467.6-6.8c-4.4-0.1-9 2.8-10 4.7L230.4 459.3z"  /></svg>
