<svg overflow="hidden" viewBox="0 0 1024 1024" version="1.1" xmlns="http://www.w3.org/2000/svg"><path d="M994.16 523.616a73.52 73.52 0 0 0-30.92-59.96 73.52 73.52 0 0 0 14.256-65.936 73.576 73.576 0 0 0-47.384-50.576 73.552 73.552 0 0 0-2.936-69.232 73.488 73.488 0 0 0-53.824-35.624 73.496 73.496 0 0 0-21-61.024 73.48 73.48 0 0 0-61.024-21 73.472 73.472 0 0 0-35.624-53.824 73.56 73.56 0 0 0-69.232-2.936 73.56 73.56 0 0 0-50.576-47.384 73.536 73.536 0 0 0-65.936 14.256 73.52 73.52 0 0 0-59.96-30.912 73.528 73.528 0 0 0-59.96 30.912 73.528 73.528 0 0 0-65.936-14.256 73.56 73.56 0 0 0-50.568 47.384 73.576 73.576 0 0 0-69.24 2.936 73.472 73.472 0 0 0-35.624 53.816 73.496 73.496 0 0 0-61.024 21.008 73.488 73.488 0 0 0-21 61.024 73.488 73.488 0 0 0-53.824 35.624 73.544 73.544 0 0 0-2.936 69.24 73.576 73.576 0 0 0-47.392 50.568 73.528 73.528 0 0 0 14.264 65.936 73.52 73.52 0 0 0-30.92 59.96 73.536 73.536 0 0 0 30.92 59.96 73.52 73.52 0 0 0-14.256 65.936 73.56 73.56 0 0 0 47.384 50.576 73.568 73.568 0 0 0 2.936 69.232 73.48 73.48 0 0 0 53.816 35.616 73.52 73.52 0 0 0 21.008 61.032 73.488 73.488 0 0 0 61.024 21 73.496 73.496 0 0 0 35.616 53.824 73.568 73.568 0 0 0 69.24 2.936 73.568 73.568 0 0 0 50.576 47.384 73.536 73.536 0 0 0 65.936-14.256 73.52 73.52 0 0 0 59.96 30.912 73.52 73.52 0 0 0 59.96-30.912 73.52 73.52 0 0 0 65.936 14.256 73.568 73.568 0 0 0 50.576-47.384 73.576 73.576 0 0 0 69.232-2.936 73.496 73.496 0 0 0 35.624-53.824 73.488 73.488 0 0 0 61.016-21 73.52 73.52 0 0 0 21.008-61.024 73.488 73.488 0 0 0 53.816-35.624 73.552 73.552 0 0 0 2.944-69.24 73.568 73.568 0 0 0 47.384-50.56 73.504 73.504 0 0 0-14.256-65.944 73.52 73.52 0 0 0 30.912-59.96z" fill="#866539" /><path d="M26.8 459.68c37.968 65.76 100.096 65.76 138.056 0 37.968-65.76 100.104-65.76 138.064 0 37.96 65.76 100.088 65.76 138.064 0 37.96-65.76 100.088-65.76 138.056 0 37.976 65.76 100.096 65.76 138.064 0 37.96-65.76 100.096-65.76 138.056 0 37.968 65.76 100.096 65.76 138.064 0h0.04a97.08 97.08 0 0 0 6.68-68c-6.368-23.624-89.6-375.448-489.944-375.448-400.344 0-483.576 351.832-489.936 375.44-6.16 22.896-3.6 47.104 6.68 68.016h0.056z" fill="#FF6376" /><path d="M479.52 284.248a46.752 46.752 0 0 1-46.696-46.696 16.224 16.224 0 1 1 32.448 0 14.264 14.264 0 0 0 28.496 0 16.224 16.224 0 1 1 32.456 0 46.752 46.752 0 0 1-46.696 46.696z" fill="#3F4963" /><path d="M540.48 284.248a46.752 46.752 0 0 1-46.712-46.696 16.224 16.224 0 1 1 32.456 0c0 7.856 6.4 14.24 14.248 14.24 7.856 0 14.248-6.392 14.248-14.24a16.224 16.224 0 1 1 32.456 0 46.752 46.752 0 0 1-46.704 46.696z" fill="#3F4963" /><path d="M693.584 310.328h-65.568a16.224 16.224 0 1 1 0-32.456h65.568a16.224 16.224 0 1 1 0 32.456z" fill="#FF9596" /><path d="M691.44 236.056a16.224 16.224 0 0 1-16.224-16.232c0-7.952-6.464-14.416-14.416-14.416s-14.416 6.472-14.416 14.416a16.224 16.224 0 1 1-32.456 0c0-25.84 21.024-46.872 46.872-46.872 25.84 0 46.88 21.032 46.88 46.88 0 8.96-7.272 16.224-16.24 16.224z" fill="#3F4963" /><path d="M391.984 310.328h-65.576a16.224 16.224 0 1 1 0-32.456h65.576a16.224 16.224 0 1 1 0 32.456z" fill="#FF9596" /><path d="M389.848 236.056a16.224 16.224 0 0 1-16.232-16.232c0-7.952-6.464-14.416-14.416-14.416-7.944 0-14.416 6.472-14.416 14.416a16.224 16.224 0 1 1-32.456 0c0-25.84 21.032-46.872 46.88-46.872 25.84 0 46.864 21.032 46.864 46.88 0 8.96-7.264 16.224-16.224 16.224z" fill="#3F4963" /><path d="M227.504 670.984m-30.656 0a30.656 30.656 0 1 0 61.312 0 30.656 30.656 0 1 0-61.312 0Z" fill="#CF9945" /><path d="M364.816 833.304m-30.656 0a30.656 30.656 0 1 0 61.312 0 30.656 30.656 0 1 0-61.312 0Z" fill="#CF9945" /><path d="M334.152 701.624m-30.656 0a30.656 30.656 0 1 0 61.312 0 30.656 30.656 0 1 0-61.312 0Z" fill="#CF9945" /><path d="M830.792 614.408m-30.656 0a30.656 30.656 0 1 0 61.312 0 30.656 30.656 0 1 0-61.312 0Z" fill="#CF9945" /><path d="M767.48 761.064m-30.656 0a30.656 30.656 0 1 0 61.312 0 30.656 30.656 0 1 0-61.312 0Z" fill="#CF9945" /><path d="M359.2 172.96a46.928 46.928 0 0 0-46.88 46.864 16.224 16.224 0 1 0 32.464 0c0-7.952 6.464-14.416 14.416-14.416s14.416 6.472 14.416 14.424a16.224 16.224 0 1 0 32.456 0 46.928 46.928 0 0 0-46.872-46.88z m211.744 48.368c-8.96 0-16.224 7.264-16.224 16.232 0 7.848-6.392 14.24-14.24 14.24-7.864 0-14.256-6.392-14.256-14.24a16.224 16.224 0 1 0-32.456 0c0 7.848-6.384 14.24-14.24 14.24a14.264 14.264 0 0 1-14.256-14.24 16.224 16.224 0 1 0-32.448 0 46.76 46.76 0 0 0 46.704 46.696c11.648 0 22.28-4.32 30.472-11.392a46.456 46.456 0 0 0 30.48 11.392 46.752 46.752 0 0 0 46.696-46.696c0-8.968-7.264-16.232-16.232-16.232zM660.8 172.952a46.928 46.928 0 0 0-46.88 46.88 16.224 16.224 0 1 0 32.464 0c0-7.96 6.464-14.424 14.416-14.424s14.416 6.472 14.416 14.424a16.224 16.224 0 1 0 32.456 0 46.928 46.928 0 0 0-46.872-46.88z m338.48 307.384c2.52-3.592 5.008-7.44 7.448-11.616a16.32 16.32 0 0 0 1.088-1.872 113.168 113.168 0 0 0 7.792-79.384l-0.488-1.84c-19.384-74.168-56.48-147.536-104.464-206.568-42.752-52.6-94.192-94.344-152.896-124.08C685.736 18.496 602.376 0 510 0S334.264 18.496 262.24 54.976c-58.704 29.728-110.144 71.472-152.888 124.08C61.36 238.08 24.264 311.44 4.88 385.608l-0.48 1.84a113.128 113.128 0 0 0 7.784 79.392c0.352 0.704 0.744 1.376 1.184 2.008 2.408 4.12 4.872 7.92 7.36 11.472a89.024 89.024 0 0 0-11.12 43.288 90.08 90.08 0 0 0 25.64 62.808 90.072 90.072 0 0 0-8.416 67.32 89.752 89.752 0 0 0 42.648 54.92 89.736 89.736 0 0 0 9.36 68.904 89.232 89.232 0 0 0 51.096 40.312 89.256 89.256 0 0 0 26.24 59.56 89.2 89.2 0 0 0 59.56 26.24 89.248 89.248 0 0 0 40.32 51.096 89.736 89.736 0 0 0 68.904 9.36 89.744 89.744 0 0 0 54.92 42.656c22.792 6.128 47 2.96 67.312-8.416A90.072 90.072 0 0 0 510 1024c23.616 0 46.16-9.368 62.808-25.624a90.08 90.08 0 0 0 67.312 8.416 89.752 89.752 0 0 0 54.928-42.656c23.088 6.208 47.896 3.016 68.904-9.36a89.256 89.256 0 0 0 40.32-51.096 89.264 89.264 0 0 0 59.56-26.24 89.232 89.232 0 0 0 26.232-59.56 89.216 89.216 0 0 0 51.096-40.312 89.728 89.728 0 0 0 9.36-68.904 89.736 89.736 0 0 0 42.656-54.92 90.08 90.08 0 0 0-8.416-67.32 90.072 90.072 0 0 0 25.624-62.8 88.96 88.96 0 0 0-11.104-43.28z m-45.472 90.032a16.24 16.24 0 0 0-3.104 23.52 57.392 57.392 0 0 1-25.832 90.856 16.224 16.224 0 0 0-9.392 22.352 57.384 57.384 0 0 1-2.296 54 57.112 57.112 0 0 1-41.968 27.76 16.224 16.224 0 0 0-13.976 18.056 57.12 57.12 0 0 1-16.368 47.584 57.12 57.12 0 0 1-47.584 16.368 16.224 16.224 0 0 0-18.048 13.976 57.12 57.12 0 0 1-27.76 41.968 57.4 57.4 0 0 1-54 2.288 16.216 16.216 0 0 0-22.368 9.4 57.4 57.4 0 0 1-90.856 25.824 16.232 16.232 0 0 0-23.512 3.12 57.576 57.576 0 0 1-46.744 24.104 57.552 57.552 0 0 1-46.752-24.104 16.24 16.24 0 0 0-23.504-3.12 57.6 57.6 0 0 1-51.424 11.136 57.408 57.408 0 0 1-39.432-36.96 16.24 16.24 0 0 0-22.368-9.4 57.416 57.416 0 0 1-54-2.28 57.12 57.12 0 0 1-27.76-41.976 16.232 16.232 0 0 0-18.048-13.976 57.032 57.032 0 0 1-47.592-16.368 57.104 57.104 0 0 1-16.368-47.592 16.224 16.224 0 0 0-13.976-18.04 57.12 57.12 0 0 1-41.968-27.768 57.384 57.384 0 0 1-2.288-54 16.232 16.232 0 0 0-9.4-22.36 57.4 57.4 0 0 1-25.824-90.848 16.24 16.24 0 0 0-3.112-23.52 57.584 57.584 0 0 1-24.12-46.752c0-5.952 0.928-11.76 2.672-17.28 19.848 15.76 39.016 18.896 51.088 18.896 18.64 0 54.24-7.456 83.08-57.432 15.344-26.576 34.864-41.208 54.976-41.208 20.12 0 39.64 14.632 54.984 41.2 28.848 49.984 64.432 57.44 83.08 57.44 18.64 0 54.232-7.456 83.08-57.432 15.344-26.576 34.864-41.208 54.976-41.208 20.112 0 39.632 14.632 54.976 41.208 28.856 49.976 64.44 57.432 83.08 57.432 18.648 0 54.232-7.456 83.088-57.432 15.336-26.576 34.864-41.208 54.976-41.208 20.112 0 39.632 14.632 54.976 41.208 28.848 49.976 64.44 57.432 83.08 57.432 12.072 0 31.232-3.136 51.08-18.888 1.744 5.52 2.664 11.32 2.664 17.28a57.536 57.536 0 0 1-24.112 46.744z m25.296-118.704c-15.328 26.52-34.832 41.112-54.92 41.112-20.112 0-39.632-14.632-54.976-41.2-28.848-49.984-64.44-57.44-83.08-57.44s-54.24 7.456-83.088 57.44c-15.336 26.568-34.864 41.2-54.968 41.2-20.112 0-39.64-14.64-54.984-41.2-28.848-49.984-64.432-57.44-83.08-57.44-18.64 0-54.24 7.456-83.08 57.44-15.344 26.568-34.872 41.2-54.984 41.2-20.112 0-39.632-14.632-54.968-41.2-28.848-49.984-64.44-57.44-83.088-57.44-18.64 0-54.24 7.456-83.08 57.44-15.344 26.568-34.864 41.2-54.976 41.2-20.112 0-39.632-14.632-54.976-41.2l-0.032-0.056a80.688 80.688 0 0 1-5.088-55.624l0.552-2.064c10.56-40.424 37.368-119.408 98.248-194.312C224.64 88.664 350.96 32.456 510 32.456s285.36 56.208 375.472 167.072c60.88 74.904 87.68 153.888 98.248 194.304l0.544 2.064a80.704 80.704 0 0 1-5.16 55.768z" fill="#000000" /></svg>