<svg viewBox="0 0 1149 1024" version="1.1" xmlns="http://www.w3.org/2000/svg"><path d="M236.831439 1004.957193c-67.296561 0-122.035649-54.85586-122.03565-122.278175V393.566316c-59.42793-35.947789-97.010526-100.756211-97.010526-172.678737 0-111.292632 90.363509-201.844772 201.449544-201.844772h259.368421c33.567439 0 66.146807 8.308772 95.151158 23.911298A200.605193 200.605193 0 0 1 668.923509 19.042807h259.368421c111.086035 0 201.458526 90.543158 201.458526 201.844772 0 71.913544-37.591579 136.730947-97.010526 172.678737v489.112702c0 67.422316-54.74807 122.278175-122.044632 122.278175h-673.863859z" fill="#866539" /><path d="M928.282947 80.186386H668.905544a139.767018 139.767018 0 0 0-95.151158 37.241263 139.767018 139.767018 0 0 0-95.151158-37.241263H219.225825c-77.563509 0-140.431719 62.993965-140.43172 140.710175 0 62.517895 40.708491 115.487439 97.010527 133.820632v527.961825c0 33.621333 27.459368 61.134596 61.017824 61.134596h673.86386c33.558456 0 61.017825-27.513263 61.017824-61.134596V354.708211c56.302035-18.324211 97.010526-71.293754 97.010527-133.820632 0-77.707228-62.877193-140.710175-140.43172-140.710175z" fill="#FDBA55" /><path d="M293.169404 259.799579a32.256 32.193123 90 1 0 64.386245 0 32.256 32.193123 90 1 0-64.386245 0Z" fill="#3F4963" /><path d="M789.98007 259.799579a32.256 32.193123 90 1 0 64.386246 0 32.256 32.193123 90 1 0-64.386246 0Z" fill="#3F4963" /><path d="M359.801263 372.520421h-68.868491a17.794246 17.794246 0 0 1-17.785263-17.81221 17.785263 17.785263 0 0 1 17.785263-17.812211h68.868491a17.785263 17.785263 0 0 1 17.776281 17.812211 17.794246 17.794246 0 0 1-17.785263 17.81221zM856.602947 372.520421h-68.868491a17.785263 17.785263 0 0 1-17.785263-17.81221 17.785263 17.785263 0 0 1 17.785263-17.812211h68.868491a17.785263 17.785263 0 0 1 17.776281 17.812211 17.794246 17.794246 0 0 1-17.785263 17.81221z" fill="#FF6376" /><path d="M533.46807 350.234947c-32.031439 0-58.089544-26.103018-58.089544-58.188351 0-9.835789 7.958456-17.812211 17.785263-17.81221a17.785263 17.785263 0 0 1 17.776281 17.81221 22.572912 22.572912 0 0 0 22.519018 22.572913 22.572912 22.572912 0 0 0 22.528-22.572913c0-9.835789 7.958456-17.812211 17.785263-17.81221a17.785263 17.785263 0 0 1 17.767298 17.81221c0 32.085333-26.049123 58.188351-58.080561 58.188351z" fill="#3F4963" /><path d="M614.067649 350.234947c-32.031439 0-58.080561-26.103018-58.080561-58.188351 0-9.835789 7.958456-17.812211 17.77628-17.81221s17.785263 7.976421 17.785264 17.81221a22.572912 22.572912 0 0 0 22.519017 22.572913 22.572912 22.572912 0 0 0 22.519018-22.572913c0-9.835789 7.958456-17.812211 17.785263-17.81221a17.785263 17.785263 0 0 1 17.776281 17.81221c0 32.085333-26.058105 58.188351-58.080562 58.188351z" fill="#3F4963" /><path d="M367.472281 807.028772a35.606456 35.606456 0 0 1-50.28379 0l-50.283789-50.382597a35.777123 35.777123 0 0 1 0-50.373614l200.964491-201.350736a35.606456 35.606456 0 0 1 50.274807 0l50.283789 50.373614a35.777123 35.777123 0 0 1 0 50.382596L367.463298 807.028772zM679.648561 807.028772a35.606456 35.606456 0 0 1-50.283789 0l-50.274807-50.382597a35.777123 35.777123 0 0 1 0-50.373614L780.036491 504.921825a35.606456 35.606456 0 0 1 50.28379 0l50.274807 50.373614a35.777123 35.777123 0 0 1 0 50.382596L679.648561 807.028772z" fill="#FFD553" /><path d="M822.164211 227.552561a32.22007 32.22007 0 0 0-32.193123 32.247018 32.22007 32.22007 0 0 0 32.193123 32.256 32.22007 32.22007 0 0 0 32.18414-32.247018 32.22007 32.22007 0 0 0-32.18414-32.247017zM654.37193 274.234386a17.785263 17.785263 0 0 0-17.785263 17.81221 22.572912 22.572912 0 0 1-22.519018 22.56393 22.572912 22.572912 0 0 1-22.528-22.56393 17.794246 17.794246 0 0 0-17.776281-17.81221 17.785263 17.785263 0 0 0-17.785263 17.81221 22.572912 22.572912 0 0 1-22.519017 22.56393 22.572912 22.572912 0 0 1-22.528-22.56393 17.794246 17.794246 0 0 0-17.776281-17.81221 17.785263 17.785263 0 0 0-17.776281 17.81221c0 32.085333 26.049123 58.188351 58.080562 58.188351a57.811088 57.811088 0 0 0 40.30428-16.34807 57.811088 57.811088 0 0 0 40.304281 16.34807c32.022456 0 58.071579-26.103018 58.071579-58.188351a17.785263 17.785263 0 0 0-17.776281-17.81221z m-329.009404-46.681825a32.22007 32.22007 0 0 0-32.18414 32.247018 32.22007 32.22007 0 0 0 32.18414 32.256 32.22007 32.22007 0 0 0 32.193123-32.247018 32.22007 32.22007 0 0 0-32.193123-32.247017zM928.282947 1.239579H668.905544c-32.929684 0-65.625825 7.491368-95.151158 21.737544A219.513263 219.513263 0 0 0 478.603228 1.239579H219.225825C98.357895 1.239579 0 99.76814 0 220.887579c0 74.24 36.073544 141.707228 97.010526 182.460632v479.321824c0 77.249123 62.724491 140.090386 139.820913 140.090386h673.863859c77.087439 0 139.802947-62.841263 139.802948-140.090386V403.357193c60.945965-40.753404 97.010526-108.229614 97.010526-182.469614 0-121.119439-98.33993-219.656982-219.225825-219.656983z m95.249965 377.083509a17.821193 17.821193 0 0 0-8.587228 15.243228v489.112702c0 57.604491-46.771649 104.465965-104.259368 104.465964h-673.86386c-57.487719 0-104.250386-46.861474-104.250386-104.465964V393.566316c0-6.233825-3.260632-12.018526-8.587228-15.243228-55.376842-33.504561-88.432281-92.357614-88.432281-157.435509 0-101.474807 82.39607-184.032561 183.673264-184.032561h259.377403c30.24393 0 60.236351 7.536281 86.743579 21.791438a17.767298 17.767298 0 0 0 16.815158 0 183.691228 183.691228 0 0 1 86.743579-21.791438h259.377403c101.277193 0 183.673263 82.557754 183.673264 184.032561 0 65.077895-33.055439 123.930947-88.423299 157.435509zM928.282947 62.365193H668.905544c-34.573474 0-67.817544 11.22807-95.151158 31.887719a157.462456 157.462456 0 0 0-95.151158-31.887719H219.225825c-87.237614 0-158.208 71.114105-158.208 158.522386a158.082246 158.082246 0 0 0 97.010526 146.198456v515.592983c0 43.528982 35.345965 78.946807 78.803088 78.946807h673.863859c43.439158 0 78.785123-35.417825 78.785123-78.95579V367.095018a158.082246 158.082246 0 0 0 97.010526-146.189474c0-87.408281-70.970386-158.522386-158.208-158.522386z m37.932913 275.402105a17.803228 17.803228 0 0 0-12.288 16.940913v527.970807c0 23.893333-19.402105 43.322386-43.241544 43.322386h-673.86386a43.331368 43.331368 0 0 1-43.232561-43.322386V354.708211c0-7.71593-4.958316-14.551579-12.288-16.940913a122.547649 122.547649 0 0 1-84.731509-116.879719c0-67.763649 55.026526-122.897965 122.664421-122.897965h259.368421c30.881684 0 60.398035 11.551439 83.105684 32.534456 6.808702 6.287719 17.291228 6.287719 24.09993 0a122.152421 122.152421 0 0 1 83.096702-32.534456h259.377403c67.637895 0 122.655439 55.134316 122.655439 122.897965 0 53.418667-34.043509 100.38793-84.722526 116.879719z" fill="#000000" /></svg>