<svg width="1024" height="1024" viewBox="0 0 1024 1024" version="1.1" xmlns="http://www.w3.org/2000/svg"><path d="M386.21 927.12c-59.14 0-107.25-48.13-107.25-107.25 0-28.23 10.88-54.88 30.64-75.04l5.11-5.21V176.35c0-39.43 32.08-71.51 71.51-71.51 39.42 0 71.5 32.08 71.5 71.51v563.26l5.11 5.21c19.76 20.16 30.65 46.82 30.65 75.04-0.01 59.13-48.13 107.26-107.27 107.26z" fill="#F5F7FA" /><path d="M331.09 462.35m-17.87 0a17.87 17.87 0 1 0 35.74 0 17.87 17.87 0 1 0-35.74 0Z" fill="#434A54" /><path d="M459.2 462.35c0 9.87-8 17.87-17.88 17.87-9.87 0-17.87-8-17.87-17.87 0-9.87 8-17.87 17.87-17.87 9.88 0 17.88 8 17.88 17.87z" fill="#434A54" /><path d="M386.21 855.61c-19.72 0-35.75-16.02-35.75-35.74 0-19.72 16.04-35.74 35.75-35.74 19.7 0 35.74 16.03 35.74 35.74 0.01 19.71-16.03 35.74-35.74 35.74z" fill="#ED5564" /><path d="M386.21 766.24c-29.61 0-53.63 24.01-53.63 53.63 0 29.61 24.01 53.63 53.63 53.63s53.63-24.01 53.63-53.63-24.01-53.63-53.63-53.63z m0 71.51c-9.86 0-17.88-8.04-17.88-17.88 0-9.87 8.03-17.88 17.88-17.88s17.87 8.01 17.87 17.88c0.01 9.84-8.02 17.88-17.87 17.88z" fill="#DA4453" /><path d="M386.21 801.98c-9.87 0-17.88-7.98-17.88-17.86V462.35c0-9.87 8.01-17.87 17.88-17.87s17.87 8 17.87 17.87v321.77c0.01 9.87-7.99 17.86-17.87 17.86z" fill="#DA4453" /><path d="M475.58 732.3V176.35c0-49.37-40.01-89.38-89.37-89.38-49.37 0-89.38 40.01-89.38 89.38V732.3c-22.11 22.57-35.76 53.47-35.76 87.56 0 69.1 56.02 125.14 125.14 125.14 69.1 0 125.12-56.03 125.12-125.14 0.01-34.09-13.64-64.99-35.75-87.56z m-89.37 176.93c-49.29 0-89.38-40.09-89.38-89.37 0-23.51 9.07-45.74 25.54-62.55l10.21-10.42V176.35c0-29.57 24.05-53.63 53.63-53.63 29.56 0 53.63 24.05 53.63 53.63V746.88l10.21 10.42c16.47 16.81 25.53 39.04 25.53 62.55 0 49.29-40.09 89.38-89.37 89.38z" fill="#E6E9ED" /><path d="M672.21 390.86c-49.36 0-89.38 40.01-89.38 89.37v107.25c0 49.36 40.02 89.39 89.38 89.39 49.36 0 89.38-40.04 89.38-89.39V480.22c0.01-49.35-40.02-89.36-89.38-89.36z m53.63 196.62c0 29.56-24.05 53.63-53.63 53.63-29.57 0-53.63-24.06-53.63-53.63V480.22c0-29.56 24.05-53.63 53.63-53.63 29.57 0 53.63 24.06 53.63 53.63v107.26z" fill="#A0D468" /></svg>
