<svg width="1024" height="1024" viewBox="0 0 1024 1024" version="1.1" xmlns="http://www.w3.org/2000/svg"><path d="M0 0h1024v1024H0V0z" fill="#202425" opacity=".01" /><path d="M34.133333 819.2a204.8 204.8 0 0 1 204.8-204.8h546.133334a204.8 204.8 0 0 1 204.8 204.8v102.4a34.133333 34.133333 0 0 1-34.133334 34.133333H68.266667a34.133333 34.133333 0 0 1-34.133334-34.133333v-102.4z" fill="#11AA66" /><path d="M512 68.266667a204.8 204.8 0 0 1 204.8 204.8v68.266666a204.8 204.8 0 0 1-409.6 0V273.066667a204.8 204.8 0 0 1 204.8-204.8z" fill="#FFAA44" /></svg>
