<?xml version="1.0" standalone="no"?><!DOCTYPE svg PUBLIC "-//W3C//DTD SVG 1.1//EN" "http://www.w3.org/Graphics/SVG/1.1/DTD/svg11.dtd"><svg t="1783259880408" class="icon" viewBox="0 0 1024 1024" version="1.1" xmlns="http://www.w3.org/2000/svg" p-id="5839" xmlns:xlink="http://www.w3.org/1999/xlink" width="200" height="200"><path d="M745.0624 326.7072a58.5216 58.5216 0 0 1-40.192-25.6512c-46.336-70.5024-128.0512-117.2992-221.44-117.2992-126.6176 0-232.0384 86.3232-256.256 200.8064-3.9936 18.944-16.7936 34.816-34.7136 42.1376-85.6064 34.9184-145.2544 112.7936-145.2544 203.264 0 118.784 102.912 216.3712 232.704 223.0784h436.4288c144.5376 0 261.8368-118.6304 261.8368-264.96-0.0512-132.1984-101.0688-241.408-233.1136-261.376z m-465.3056 229.9392a9.6768 9.6768 0 0 1-9.7792-10.0864 243.7632 243.7632 0 0 1 243.2512-233.8304c73.3184 0 138.9568 32.4608 183.552 83.712l28.3136-22.2208a9.728 9.728 0 0 1 15.7696 7.68l-0.6144 123.5456a9.7792 9.7792 0 0 1-12.0832 9.4208l-119.7568-29.2864a9.728 9.728 0 0 1-3.6864-17.152l30.5152-23.9104c-1.6896-1.8432-3.2256-3.5328-5.0176-5.2736a164.352 164.352 0 0 0-117.0944-48.5376c-43.8784 0-86.1184 17.408-117.0944 48.5376a165.0176 165.0176 0 0 0-48.1792 108.032 9.7792 9.7792 0 0 1-9.6256 9.4208H279.7568z m232.3456 243.8656A242.7904 242.7904 0 0 1 328.5504 716.8l-28.2624 22.1696a9.728 9.728 0 0 1-15.8208-7.5776l0.512-123.6992c0-6.2464 5.9392-10.9056 12.032-9.472l119.8592 29.2864a9.7792 9.7792 0 0 1 3.6864 17.2032l-30.5152 23.9104c1.6896 1.8432 3.2768 3.584 5.0176 5.3248a164.5056 164.5056 0 0 0 117.0944 48.4864 165.376 165.376 0 0 0 165.2224-156.5696 9.8816 9.8816 0 0 1 9.728-9.2672h58.4704c5.632 0 10.0352 4.608 9.7792 10.0864a243.8656 243.8656 0 0 1-243.2512 233.8304z" fill="#228328" p-id="5840"></path></svg>