<?xml version="1.0" standalone="no"?><!DOCTYPE svg PUBLIC "-//W3C//DTD SVG 1.1//EN" "http://www.w3.org/Graphics/SVG/1.1/DTD/svg11.dtd"><svg t="1783259973412" class="icon" viewBox="0 0 1318 1024" version="1.1" xmlns="http://www.w3.org/2000/svg" p-id="10520" xmlns:xlink="http://www.w3.org/1999/xlink" width="257.421875" height="200"><path d="M354.777943 270.455754s-132.087454-112.714627 31.700988-218.38459 195.959076 96.511899 195.959076 96.511899S589.36526 30.467527 660.516369 29.880472s322.058565 82.422571 138.075418 252.903444c0 0 169.776407-114.006149 182.574213 115.532493S798.709198 523.241787 798.709198 523.241787s182.809036 102.499864-20.546937 222.493977-195.724253-97.68601-195.724254-97.68601-5.870553 196.898364-210.987692 88.410536 11.506285-217.680124 11.506284-217.680124-181.400103 105.669963-207.817593-117.058836S354.777943 270.455754 354.777943 270.455754z" fill="#CCE187" p-id="10521"></path><path d="M577.154509 396.085598m-174.238028 0a174.238028 174.238028 0 1 0 348.476056 0 174.238028 174.238028 0 1 0-348.476056 0Z" fill="#FFFFFF" p-id="10522"></path><path d="M685.407515 772.505488c-7.396897 0-14.558973-0.587055-21.603637-1.878577-48.490772-8.571008-77.021662-45.907728-81.365871-106.022196-4.34421 59.997057-32.8751 97.451188-81.365871 106.022196-73.616741 13.032629-174.825083-45.438084-200.420697-115.649904-16.907194-46.259962 1.291522-89.702057 51.073816-123.516445-54.126503 26.182669-100.856109 20.194704-132.439687-17.494249-48.138539-57.296602-48.138539-174.120617 0-231.417219 31.700989-37.688953 78.313184-43.794329 132.439687-17.49425-49.782294-33.814388-67.981009-77.139073-51.073816-123.516445C326.247053 71.44399 427.337984 12.973277 501.072136 26.005906c48.490772 8.571008 77.021662 45.907728 81.365871 106.022196 4.34421-59.997057 32.8751-97.451188 81.365871-106.022196 73.616741-13.032629 174.825083 45.438084 200.420697 115.649904 16.907194 46.259962-1.291522 89.702057-51.073816 123.516446 54.126503-26.182669 100.738698-20.194704 132.439687 17.494249 48.138539 57.296602 48.138539 174.120617 0 231.417219-18.785771 22.308103-42.737629 33.579566-70.446642 33.579566-19.138004 0-39.919764-5.283498-62.110456-16.085317 49.782294 33.814388 67.981009 77.139073 51.073816 123.516446-23.01257 63.519389-108.135595 117.41107-178.699649 117.411069z m-103.556563-124.455734h1.17411c0 69.15512 28.765712 112.244983 81.013639 121.520458 73.147097 12.915218 173.650972-45.085851 199.129174-114.945438 18.198716-49.899705-4.813854-96.277077-64.693499-130.913343l0.587055-1.056699c59.879646 34.518855 111.657927 31.231345 145.707138-9.392886 47.786305-56.944369 47.786305-172.946506 0-229.890875-34.04921-40.62423-85.827492-44.029151-145.707138-9.392885l-0.587055-1.0567c59.879646-34.518855 82.892215-81.013638 64.693499-130.913343C837.689673 72.265868 737.185797 14.264799 664.038701 27.180017c-52.247926 9.158063-81.013638 52.365337-81.013639 121.520457h-1.17411c0-69.15512-28.765712-112.244983-81.013638-121.520457-73.147097-12.915218-173.650972 45.085851-199.129175 114.945437-18.198716 49.899705 4.813854 96.277077 64.6935 130.913343l-0.587056 1.0567c-59.879646-34.518855-111.657927-31.231345-145.707137 9.392885-47.786305 56.944369-47.786305 172.946506 0 229.890875 34.04921 40.62423 85.827492 44.029151 145.707137 9.392886l0.587056 1.056699c-59.879646 34.518855-82.892215 81.013638-64.6935 130.913343C327.186341 724.484361 427.690217 782.485429 500.837314 769.570212c52.247926-9.158063 81.013638-52.365337 81.013638-121.520458z m-7.044664-75.612729c-98.74271 0-179.169293-80.426583-179.169293-179.169292S476.063578 214.215851 574.806288 214.215851s179.169293 80.426583 179.169292 179.169293S673.548997 572.437025 574.806288 572.437025z m0-357.047063c-98.155654 0-177.995182 79.839528-177.995182 177.995182s79.839528 177.995182 177.995182 177.995182 177.995182-79.839528 177.995181-177.995182-79.839528-177.995182-177.995181-177.995182z" fill="#757575" p-id="10523"></path><path d="M582.438007 51.836342C558.838382 16.378198 524.202116 5.57638 505.298934 2.171459 420.058497-12.857158 307.461281 52.188575 277.873692 133.437035c-6.57502 18.081305-14.441562 53.539448 4.461621 91.698046-42.502807 2.700455-69.15512 27.239368-81.600694 42.033163-55.535436 66.219843-55.535436 196.311309 0 262.531152 12.445573 14.793795 39.097886 39.332708 81.600694 42.033163-18.903182 38.158598-11.036641 73.49933-4.461621 91.698045 29.58759 81.24846 142.184806 146.294193 227.307831 131.265577 19.020593-3.404921 53.656859-14.206739 77.139073-49.664883 23.599625 35.340732 58.235891 46.259962 77.139073 49.664883 85.123026 15.028617 197.720242-50.017116 227.307831-131.265577 6.57502-18.081305 14.441562-53.539448-4.461621-91.698045 42.502807-2.700455 69.15512-27.239368 81.600694-42.033163 27.826424-33.109922 41.68093-82.187749 41.68093-131.265576s-13.854506-98.155654-41.68093-131.265576c-12.445573-14.793795-39.097886-39.332708-81.600694-42.033163 18.903182-38.158598 11.036641-73.49933 4.461621-91.698046-29.352767-81.24846-141.949983-146.294193-227.19042-131.265576-18.903182 3.404921-53.539448 14.206739-77.139073 49.664883z m257.952121 98.507887c14.089328 38.628242-4.109387 72.794863-54.009093 101.677987-11.858518 6.809842-15.967906 22.073281-9.040652 33.931799 4.579032 7.983953 12.915218 12.445573 21.486226 12.445573 4.226799 0 8.453597-1.0567 12.328162-3.28751 49.899705-28.765712 88.645358-27.47419 115.062849 3.991977 40.506819 48.25595 40.506819 150.40358 0 198.776941-26.417491 31.466167-65.163144 32.8751-115.062849 3.991976-3.757154-2.23081-7.983953-3.28751-12.328162-3.28751-8.571008 0-16.907194 4.461621-21.486226 12.445574-6.809842 11.858518-2.817866 27.004546 9.040652 33.931799 49.899705 28.765712 68.098421 63.049745 54.009093 101.677986-21.603637 59.29259-110.014172 110.366406-172.124629 99.329766-40.506819-7.162075-61.053756-40.037175-61.053756-97.686011 0-13.737095-11.154052-24.773736-24.773736-24.773735s-24.773736 11.154052-24.773736 24.773735c0 57.648835-20.546937 90.523935-61.053756 97.686011-62.110456 10.919229-150.520992-40.154586-172.124628-99.329766-14.089328-38.628242 4.109387-72.794863 54.009092-101.677986 11.858518-6.809842 15.967906-22.073281 9.040652-33.931799-4.579032-7.983953-12.915218-12.445573-21.486226-12.445574-4.226799 0-8.453597 1.0567-12.328162 3.28751-49.899705 28.765712-88.645358 27.47419-115.062848-3.991976-40.506819-48.25595-40.506819-150.40358 0-198.776941 26.417491-31.466167 65.163144-32.8751 115.062848-3.991977 11.858518 6.809842 27.004546 2.817866 33.814388-9.040652 6.809842-11.858518 2.817866-27.004546-9.040652-33.931799-49.899705-28.765712-68.098421-63.049745-54.009092-101.677987C346.089523 91.16905 434.500059 40.095235 496.610515 51.131875c40.506819 7.162075 61.053756 40.037175 61.053756 97.68601 0 13.737095 11.154052 24.773736 24.773736 24.773736s24.773736-11.154052 24.773736-24.773736c0-57.648835 20.546937-90.523935 61.053756-97.68601 62.110456-11.036641 150.520992 40.037175 172.124629 99.212354z" fill="#2A9B74" p-id="10524"></path><path d="M371.450315 393.267733c0 112.127572 91.228401 203.355973 203.355973 203.355973s203.355973-91.228401 203.355973-203.355973S686.933859 189.91176 574.806288 189.91176 371.450315 281.140161 371.450315 393.267733z m357.164474 0c0 84.770792-69.037709 153.808502-153.808501 153.808501s-153.808502-69.037709-153.808502-153.808501 69.037709-153.808502 153.808502-153.808502 153.808502 69.037709 153.808501 153.808502z" fill="#2A9B74" p-id="10525"></path><path d="M616.604628 440.349572c0 22.660336-18.316127 40.976463-40.976463 40.976463S534.651702 463.009908 534.651702 440.349572h81.952926z" fill="#2A9B74" p-id="10526"></path><path d="M575.628165 493.067142c-29.117945 0-52.71757-23.717036-52.71757-52.71757 0-6.457609 5.283498-11.741107 11.741107-11.741107h81.952926c6.457609 0 11.741107 5.283498 11.741107 11.741107 0 29.000534-23.599625 52.71757-52.71757 52.71757z m-26.769724-40.976463c4.579032 10.332174 14.793795 17.494249 26.769724 17.494249 11.975929 0 22.308103-7.162075 26.769724-17.494249H548.858441z" fill="#2A9B74" p-id="10527"></path><path d="M583.729529 478.155936h-16.085317c-8.453597 0-15.263439-6.927253-15.263439-15.263439 0-8.453597 6.927253-15.263439 15.263439-15.263439h16.085317c8.453597 0 15.263439 6.927253 15.263439 15.263439s-6.927253 15.263439-15.263439 15.263439z" fill="#FFFFFF" p-id="10528"></path><path d="M587.13445 863.146834v137.370952" fill="#CCE187" p-id="10529"></path><path d="M587.13445 1024c-12.915218 0-23.482214-10.566996-23.482214-23.482214v-137.370952c0-12.915218 10.566996-23.482214 23.482214-23.482214s23.482214 10.566996 23.482214 23.482214v137.370952c0 12.915218-10.449585 23.482214-23.482214 23.482214z" fill="#2A9B74" p-id="10530"></path><path d="M499.663203 931.83231s-54.948381-117.998125-174.707672-42.267985c-0.117411 0 67.628776 126.803955 174.707672 42.267985z" fill="#CCE187" p-id="10531"></path><path d="M427.455395 984.432469c-7.63172 0-15.146028-0.821877-22.777748-2.348221-63.401978-13.267451-98.977532-78.665417-100.503875-81.365871-5.753142-10.801818-2.23081-24.304091 8.218774-30.879112 42.972452-27.239368 84.066326-35.340732 122.107513-24.18668 58.353302 17.142016 85.357848 73.968974 86.531959 76.434606 4.579032 9.86253 1.761166 21.603637-6.692431 28.296068-28.883123 22.542925-58.001069 34.04921-86.884192 34.04921z m-68.568065-86.649369c11.858518 14.676384 31.113934 33.344744 55.535436 38.39342 16.907194 3.522332 34.753677-0.234822 53.304626-10.91923-9.392886-12.445573-25.125969-28.413479-46.964428-34.753676-18.550949-5.400909-39.332708-2.935277-61.875634 7.279486z" fill="#2A9B74" p-id="10532"></path><path d="M665.212811 931.83231s54.948381-117.998125 174.707672-42.267985c0.117411 0-67.628776 126.803955-174.707672 42.267985z" fill="#CCE187" p-id="10533"></path><path d="M737.420619 984.432469c-28.883123 0-58.001069-11.388874-86.76678-34.166621-8.571008-6.692431-11.271463-18.433538-6.692431-28.296068 1.174111-2.465632 28.178657-59.29259 86.531958-76.434606 37.923776-11.154052 79.01765-2.935277 122.107513 24.18668 10.449585 6.57502 13.971917 20.077293 8.218775 30.879112-1.526344 2.817866-37.101898 68.215832-100.503876 81.365871-7.63172 1.643755-15.263439 2.465632-22.895159 2.465632z m-40.389408-59.175179c18.66836 10.801818 36.632254 14.441562 53.539448 10.91923 24.18668-5.048676 43.442096-23.599625 55.300614-38.39342-22.660336-10.214763-43.559507-12.680396-62.227867-7.162075-21.603637 6.340198-37.219309 22.190692-46.612195 34.636265z" fill="#2A9B74" p-id="10534"></path><path d="M493.675238 380.235104m-30.292056 0a30.292056 30.292056 0 1 0 60.584112 0 30.292056 30.292056 0 1 0-60.584112 0Z" fill="#2A9B74" p-id="10535"></path><path d="M656.28957 380.235104m-30.292056 0a30.292056 30.292056 0 1 0 60.584112 0 30.292056 30.292056 0 1 0-60.584112 0Z" fill="#2A9B74" p-id="10536"></path></svg>