<?xml version="1.0" standalone="no"?><!DOCTYPE svg PUBLIC "-//W3C//DTD SVG 1.1//EN" "http://www.w3.org/Graphics/SVG/1.1/DTD/svg11.dtd"><svg t="1783259939112" class="icon" viewBox="0 0 1024 1024" version="1.1" xmlns="http://www.w3.org/2000/svg" p-id="9231" xmlns:xlink="http://www.w3.org/1999/xlink" width="200" height="200"><path d="M574.2 519.6s135.7-62.7 130.2-97.8-16-51.8-16-51.8 62.4-55.5 46.3-93.4-51.1-30.5-51.1-30.5 22.9-108.7-60.3-119.8-100.9 66.7-85.8 107.4c-14.3-1.1-66.1-3-81.4 37.7-14 37.2 17.8 69.9 17.3 73.6-0.5 3.7-26.9 21.6-29.7 43.2-3.8 30 41.2 84 41.2 84l89.3 47.4z" fill="#43A860" p-id="9232"></path><path d="M607.7 125.2c4.9 0 10.1 0.3 15.5 1.1 83.3 11.1 60.3 119.8 60.3 119.8s2.8-0.6 7.1-0.6c11.1 0 32.4 3.8 44 31.1 16.1 38-46.3 93.4-46.3 93.4s10.4 16.7 16 51.8c5.6 35.1-130.2 97.8-130.2 97.8l-89.3-47.4s-44.9-54-41.2-84c2.7-21.7 29.1-39.6 29.7-43.2 0.5-3.7-31.3-36.4-17.3-73.6 12.6-33.4 49.8-38.1 70.6-38.1 4.5 0 8.3 0.2 10.8 0.4-14-38.1 0.4-108.5 70.3-108.5m0-18c-16.7 0-31.9 3.5-45 10.3-12.1 6.3-22.3 15.3-30.2 26.7-9.5 13.7-15.5 30.6-17.3 48.7-0.8 7.7-0.8 15.4 0 22.8-12.3 0.9-23.5 3.4-33.5 7.4-20.5 8.1-35.1 22.6-42.4 42-6.2 16.5-6.3 34.1-0.3 52.2 3.4 10.3 8.1 18.9 12.1 25.3-9.5 9.5-22.8 24.6-25.2 43.4-2.1 16.9 5 38.2 21.8 65 11.3 18.1 22.9 32.2 23.4 32.8 1.5 1.8 3.3 3.3 5.4 4.4l89.3 47.4c2.6 1.4 5.5 2.1 8.4 2.1 2.6 0 5.1-0.6 7.5-1.7 1.4-0.7 35.2-16.3 68.9-36.6 20.3-12.2 36.4-23.7 47.8-34 18.3-16.5 26-31.7 23.7-46.2-3.3-20.5-8.1-35.4-12-45 6.1-6.3 14.3-15.3 21.9-25.8 9-12.3 15.4-24.1 19.2-35.2 5.4-16 5.4-30.6-0.1-43.5-11.9-28.1-32.3-37.6-47.3-40.7 0.4-4.8 0.6-10.2 0.5-16-0.2-28.7-6.7-52.2-19.3-70.1-13.7-19.4-33.7-30.9-59.5-34.4-6-0.9-12-1.3-17.8-1.3z" fill="#1A1A1A" p-id="9233"></path><path d="M574.2 519.5s135.7-62.7 130.2-97.8-16-51.8-16-51.8 62.4-55.5 46.3-93.4c-16.1-38-51.1-30.5-51.1-30.5s22.9-108.7-60.3-119.8c36.2 26.3 43.4 88.3 39.6 127.7 21.2 22.8 27.5 23.3 16.6 69-3.9 16.4-23.7 53.2-23.7 53.2s20.6 23-3 60.4c-23.7 37.3-78.6 83-78.6 83z" fill="#269642" p-id="9234"></path><path d="M522.7 493.1l34 57.7s63.9 29.9 79.3 26.8c15.5-3.1 31.9-31.9 31.9-31.9s24.7 49.9 77.3 32.2 25.8-78.5 25.8-78.5 104.9 32 113.6-43.7c7.5-64.8-46.1-90-91-88.8 0 0-1-69.5-69-66.4s-81.4 49.4-81.4 49.4-2.3-40.4-45.5-19.8-57.5 74.4-59.5 86.7-15.5 76.3-15.5 76.3z" fill="#6EC950" p-id="9235"></path><path d="M728.9 300.4c63.7 0 64.7 66.5 64.7 66.5h3.1c44.2 0 95.2 25.5 87.9 88.8-4.7 41-37.7 50.4-66.9 50.4-24.7 0-46.8-6.7-46.8-6.7s26.8 60.8-25.8 78.5c-7.9 2.7-15.2 3.8-21.9 3.8-37.5 0-55.4-36-55.4-36s-16.5 28.8-31.9 31.9c-0.8 0.2-1.6 0.2-2.6 0.2-19 0-76.7-27-76.7-27l-34-57.7s13.4-63.9 15.5-76.2c2.1-12.4 16.3-66.1 59.5-86.7 8.8-4.2 15.9-5.9 21.6-5.9 22.5 0 23.9 25.6 23.9 25.6s13.4-46.4 81.4-49.4c1.6-0.1 3-0.1 4.4-0.1m0-18c-1.7 0-3.4 0-5.2 0.1-40.9 1.9-65.1 18-78.2 31.2-0.4 0.4-0.7 0.8-1.1 1.1-6.9-5.5-15.6-8.5-25.2-8.5-9 0-18.6 2.5-29.4 7.6-22 10.5-40 28.8-53.4 54.4-9.2 17.5-14.4 35.6-16.1 45.7-1.6 9.5-10.7 53.6-15.3 75.5-0.9 4.4-0.2 9 2.1 12.8l34 57.7c1.8 3.1 4.6 5.6 7.9 7.2 0.6 0.3 15.1 7 32.2 13.9 33 13.3 45.6 14.8 52.2 14.8 2.2 0 4.2-0.2 6.1-0.6 9.7-1.9 19.1-8.3 28.8-19.4 11.7 11.8 29.8 23.8 55 23.8 9 0 18.3-1.6 27.7-4.8 18.6-6.3 32.2-18 39.2-34 5.7-12.9 6.4-26.6 5.1-38.3 6.9 0.9 14.5 1.5 22.4 1.5 20.7 0 38.2-4.2 51.9-12.4 18.7-11.2 30.1-29.9 32.9-54 3.4-29.4-3.9-55.2-21.2-74.6-10.3-11.5-23.6-20.4-39.7-26.4-10.1-3.7-21-6.2-32.2-7.3-1.5-7-4-15.3-8.1-23.8-6.1-12.4-14.6-22.4-25.2-29.7-13-9-28.9-13.5-47.2-13.5z" fill="#1A1A1A" p-id="9236"></path><path d="M766.8 482.3c-16.6 7.8-12.6 47.1-34.6 56.6-7.5 3.2-34.2-11.3-65.4-10.2-24 0.9-65 23.1-65 23.1l11.3 26.8s22.8 5.3 38-10.6c10-10.6 16.8-22.3 16.8-22.3s24.7 49.9 77.3 32.2 25.8-78.5 25.8-78.5 104.9 32 113.6-43.7c4-35.2-9.9-58.7-30.7-72.6 7.7 27.8 15.7 45.6-7 73.8-16.6 20.3-63.5 17.6-80.1 25.4z" fill="#60BA3F" p-id="9237"></path><path d="M633.1 666.5c4.1 126.4-63 188-180.1 199.4-68.6 6.7-96.6-36.1-232.8 18 55.8-119.2-14.4-112.2-13.5-230.6 0.9-118.5 66.2-181.1 146-199.7 114.9-27 276.2 84.2 280.4 212.9z" fill="#EA4E69" p-id="9238"></path><path d="M632.3 749.2c-4.5-1.3-9.3 1.1-10.9 5.6C597.5 822.4 538.6 857.6 453 866c-5.2 0.5-10.2 0.7-15.1 0.7-33.1 0-58.2-10.5-96.7-10.5-29.4 0-66.5 6.1-121 27.8 55.8-119.2-14.4-112.2-13.5-230.6 0.9-118.5 66.2-181.1 146-199.7 11.7-2.7 23.9-4.1 36.4-4.1 109.8 0 240.3 101.5 244.1 217 0.5 14 0 27.3-1.2 39.7-0.4 4.2 2.1 8.1 6.2 9.4 0.1 0 0.1 0 0.2 0.1 5.4 1.7 11-1.9 11.5-7.5 1.4-13.4 1.8-27.5 1.3-42.3-1-30.7-9.9-61.3-26.6-90.9-15-26.7-36.5-52.4-62-74.1-24.7-21-53.3-38.5-82.7-50.5-30.4-12.4-61.8-19-90.7-19v18-18c-14.1 0-27.7 1.5-40.5 4.5-46.1 10.8-85 34.5-112.5 68.7-15 18.6-26.6 40.3-34.5 64.4-8.3 25.3-12.6 53.6-12.9 84-0.4 52.1 12.3 82.4 22.5 106.7 13.4 32 22.3 53.2-7.1 116.1-2.7 5.8-2.5 12.6 1 17.9 3.5 5.3 9.2 8.2 15.1 8.2 2.2 0 4.5-0.4 6.6-1.3 45.5-18.1 81.9-26.5 114.4-26.5 18.4 0 33.9 2.7 49 5.3 14.9 2.6 30.2 5.2 47.7 5.2 5.6 0 11.2-0.3 16.8-0.8 64.3-6.3 113.8-27.2 146.9-62.2 16.2-17.1 28.4-37.5 36.7-61 1.7-4.8-1-10.1-5.9-11.5h-0.2z" fill="#1A1A1A" p-id="9239"></path><path d="M406.4 502.6c-1.6 0-3.2-0.4-4.7-1.3l-61.8-38c-4.2-2.6-5.6-8.1-2.9-12.4 2.6-4.2 8.1-5.6 12.4-2.9l61.8 38c4.2 2.6 5.6 8.1 2.9 12.4-1.7 2.7-4.7 4.2-7.7 4.2zM355 515.5c-1.7 0-3.4-0.5-5-1.5l-55.8-37.2c-4.1-2.8-5.3-8.3-2.5-12.5 2.8-4.1 8.3-5.3 12.5-2.5L360 499c4.1 2.8 5.3 8.3 2.5 12.5-1.7 2.6-4.6 4-7.5 4z" fill="#1A1A1A" p-id="9240"></path><path d="M633.1 666.5c4.1 126.4-63 188-180.1 199.4-68.6 6.7-96.6-36.1-232.8 18 79-107.2 205.4-43.9 288.9-127.9 84.1-84.6 70.7-124.8 57-227.4 38.7 38.1 65.3 86.6 67 137.9z" fill="#E92546" p-id="9241"></path><path d="M574.2 515s77-85.5 169.8-83" fill="#6EC950" p-id="9242"></path><path d="M574.2 524c-2.1 0-4.3-0.8-6-2.3-3.7-3.3-4-9-0.7-12.7 0.8-0.9 20.3-22.4 51.7-43.9 41.9-28.6 85.2-43.2 125-42.2 5 0.1 8.9 4.3 8.8 9.2-0.1 5-4.3 8.9-9.2 8.8-87.6-2.3-162.1 79.2-162.8 80.1-1.9 2-4.3 3-6.8 3z" fill="#1A1A1A" p-id="9243"></path><path d="M299.2 812.8c-2.5 0-5-1-6.8-3.1-12.5-14.2-26.7-21.2-36.4-24.5-4.7-1.6-7.2-6.7-5.6-11.4 1.6-4.7 6.7-7.2 11.4-5.6 11.8 4 29 12.4 44.1 29.6 3.3 3.7 2.9 9.4-0.8 12.7-1.7 1.6-3.8 2.3-5.9 2.3zM322.9 850.6c-4 0-7.6-2.7-8.7-6.7-1.4-5.4-5.4-11.1-6.7-12.7-3.1-3.8-2.6-9.5 1.3-12.7 3.9-3.1 9.5-2.6 12.7 1.3 0.8 0.9 7.5 9.4 10.2 19.4 1.3 4.8-1.6 9.7-6.4 11-0.9 0.3-1.7 0.4-2.4 0.4zM322 778.3c-2.3 0-4.5-0.8-6.3-2.5-32.8-31.7-69.4-37.7-76.4-38.6-4.9-0.6-8.4-5.1-7.8-10 0.6-4.9 5.1-8.4 10-7.8 11.2 1.4 50.7 8.7 86.7 43.5 3.6 3.5 3.7 9.2 0.2 12.7-1.7 1.8-4 2.7-6.4 2.7zM358.5 819.6c-3.3 0-6.5-1.8-8.1-5-4-7.9-7.9-11.7-7.9-11.8-3.6-3.4-3.8-9.1-0.4-12.7 3.4-3.6 9.1-3.8 12.8-0.4 0.6 0.6 6.2 6 11.6 16.8 2.2 4.4 0.4 9.9-4 12.1-1.2 0.7-2.6 1-4 1z" fill="#1A1A1A" p-id="9244"></path></svg>