<?xml version="1.0" standalone="no"?><!DOCTYPE svg PUBLIC "-//W3C//DTD SVG 1.1//EN" "http://www.w3.org/Graphics/SVG/1.1/DTD/svg11.dtd"><svg t="1783593570751" class="icon" viewBox="0 0 1024 1024" version="1.1" xmlns="http://www.w3.org/2000/svg" p-id="2278" xmlns:xlink="http://www.w3.org/1999/xlink" width="200" height="200"><path d="M800 912H500.8c-83.2 0-152-68.8-152-152v-60.8c0-83.2 68.8-152 152-152H800c83.2 0 152 68.8 152 152v60.8c0 83.2-68.8 152-152 152z" fill="#96E8BA" p-id="2279"></path><path d="M297.6 851.2h-40c-12.8 0-22.4-9.6-22.4-22.4s9.6-22.4 22.4-22.4h40c12.8 0 22.4 9.6 22.4 22.4s-9.6 22.4-22.4 22.4z" fill="#103E26" p-id="2280"></path><path d="M809.6 851.2H374.4c-12.8 0-22.4-9.6-22.4-22.4s9.6-22.4 22.4-22.4h435.2c20.8 0 38.4-17.6 38.4-38.4v-30.4l-68.8-28.8c-8-3.2-14.4-12.8-14.4-20.8 0-9.6 6.4-17.6 14.4-20.8L848 640V403.2c0-20.8-17.6-38.4-38.4-38.4H126.4c-20.8 0-38.4 17.6-38.4 38.4V448l80 41.6c8 3.2 12.8 11.2 12.8 20.8 0 8-4.8 16-12.8 20.8l-80 41.6V768c0 20.8 17.6 38.4 38.4 38.4h60.8c12.8 0 22.4 9.6 22.4 22.4s-9.6 22.4-22.4 22.4H126.4c-46.4 0-83.2-36.8-83.2-83.2V558.4c0-8 4.8-16 12.8-20.8l54.4-27.2-54.4-27.2c-8-3.2-12.8-11.2-12.8-20.8v-57.6c0-46.4 36.8-83.2 83.2-83.2h683.2c46.4 0 83.2 36.8 83.2 83.2v249.6c0 9.6-6.4 17.6-14.4 20.8l-32 12.8 32 14.4c8 3.2 14.4 11.2 14.4 20.8V768c0 46.4-36.8 83.2-83.2 83.2z" fill="#103E26" p-id="2281"></path><path d="M667.2 366.4c-4.8 0-9.6-1.6-14.4-4.8L468.8 208l-174.4 153.6c-9.6 8-24 8-32-1.6s-8-24 1.6-32L454.4 158.4c8-8 20.8-8 30.4 0l198.4 166.4c9.6 8 11.2 22.4 3.2 32-6.4 6.4-12.8 9.6-19.2 9.6z" fill="#103E26" p-id="2282"></path><path d="M267.2 419.2m-30.4 0a30.4 30.4 0 1 0 60.8 0 30.4 30.4 0 1 0-60.8 0Z" fill="#0F3E26" p-id="2283"></path><path d="M668.8 419.2m-30.4 0a30.4 30.4 0 1 0 60.8 0 30.4 30.4 0 1 0-60.8 0Z" fill="#0F3E26" p-id="2284"></path><path d="M371.2 616h209.6c6.4 0 8 3.2 8 9.6 0 6.4-3.2 8-8 8H512v62.4c-1.6 9.6 3.2 14.4 14.4 12.8h28.8c12.8 1.6 17.6-8 14.4-28.8 0-6.4 3.2-8 11.2-8 6.4 0 9.6 3.2 11.2 8 1.6 33.6-8 49.6-32 48h-38.4c-19.2 0-28.8-9.6-28.8-27.2v-68.8H448c1.6 49.6-20.8 81.6-68.8 94.4-6.4 1.6-12.8 0-14.4-6.4-1.6-6.4 0-9.6 6.4-12.8 40-9.6 59.2-33.6 57.6-75.2h-57.6c-6.4 0-8-3.2-8-8s3.2-8 8-8z m196.8-89.6c20.8 3.2 24 19.2 12.8 48-3.2 6.4-8 8-14.4 6.4-4.8-3.2-6.4-8-3.2-14.4 3.2-12.8 3.2-19.2-1.6-19.2H392c-4.8 0-8 3.2-6.4 8v19.2c0 6.4-3.2 9.6-9.6 11.2-6.4 0-9.6-4.8-9.6-11.2V544c0-11.2 6.4-17.6 17.6-17.6h80c-3.2-4.8-4.8-9.6-8-12.8-3.2-4.8-1.6-9.6 3.2-12.8 6.4-3.2 11.2-1.6 14.4 3.2 4.8 8 8 14.4 12.8 22.4h81.6z m-27.2 44.8c6.4 0 8 3.2 8 9.6 0 6.4-3.2 9.6-8 9.6h-134.4c-6.4 0-8-3.2-8-9.6 0-6.4 3.2-9.6 8-9.6h134.4z" fill="#0F3D25" p-id="2285"></path></svg>