<?xml version="1.0" standalone="no"?><!DOCTYPE svg PUBLIC "-//W3C//DTD SVG 1.1//EN" "http://www.w3.org/Graphics/SVG/1.1/DTD/svg11.dtd"><svg t="1783593340459" class="icon" viewBox="0 0 1024 1024" version="1.1" xmlns="http://www.w3.org/2000/svg" p-id="1809" xmlns:xlink="http://www.w3.org/1999/xlink" width="200" height="200"><path d="M809.6 896H499.2c-86.4 0-158.4-70.4-158.4-158.4v-62.4c0-86.4 70.4-158.4 158.4-158.4h312c86.4 0 158.4 70.4 158.4 158.4v62.4c-1.6 88-72 158.4-160 158.4z" fill="#96E8BA" p-id="1810"></path><path d="M326.4 793.6h-48c-12.8 0-22.4-9.6-22.4-22.4s9.6-22.4 22.4-22.4h48c12.8 0 22.4 9.6 22.4 22.4s-9.6 22.4-22.4 22.4z" fill="#103E26" p-id="1811"></path><path d="M744 793.6H406.4c-12.8 0-22.4-9.6-22.4-22.4s9.6-22.4 22.4-22.4h337.6c57.6 0 105.6-46.4 105.6-105.6v-272c0-57.6-46.4-105.6-105.6-105.6h-544c-57.6 0-105.6 46.4-105.6 105.6v272c0 57.6 46.4 105.6 105.6 105.6 12.8 0 22.4 9.6 22.4 22.4s-9.6 22.4-22.4 22.4c-83.2 0-150.4-67.2-150.4-150.4v-272c0-83.2 67.2-150.4 150.4-150.4h544c83.2 0 150.4 67.2 150.4 150.4v272c0 83.2-67.2 150.4-150.4 150.4z" fill="#103E26" p-id="1812"></path><path d="M472 691.2C369.6 691.2 288 608 288 507.2s83.2-184 184-184c102.4 0 184 83.2 184 184s-81.6 184-184 184z m0-336c-83.2 0-152 67.2-152 152 0 83.2 67.2 152 152 152S624 592 624 507.2s-68.8-152-152-152zM776 364.8H720c-4.8 0-8-3.2-8-8s3.2-8 8-8h56c4.8 0 8 3.2 8 8s-3.2 8-8 8z" fill="#103E26" p-id="1813"></path><path d="M748.8 392c-4.8 0-8-3.2-8-8v-56c0-4.8 3.2-8 8-8s8 3.2 8 8V384c0 4.8-4.8 8-8 8zM339.2 259.2c-4.8 0-11.2-3.2-14.4-6.4-3.2-4.8-4.8-9.6-3.2-16L352 139.2c1.6-8 9.6-12.8 16-12.8h192c8 0 14.4 4.8 16 11.2l32 96c1.6 4.8 1.6 11.2-1.6 16-3.2 4.8-8 6.4-14.4 8l-252.8 1.6z m41.6-97.6l-19.2 64 206.4-1.6-20.8-62.4H380.8z" fill="#103E26" p-id="1814"></path><path d="M472 504m-40 0a40 40 0 1 0 80 0 40 40 0 1 0-80 0Z" fill="#103E26" p-id="1815"></path></svg>