<?xml version="1.0" standalone="no"?><!DOCTYPE svg PUBLIC "-//W3C//DTD SVG 1.1//EN" "http://www.w3.org/Graphics/SVG/1.1/DTD/svg11.dtd"><svg t="1783593900818" class="icon" viewBox="0 0 1024 1024" version="1.1" xmlns="http://www.w3.org/2000/svg" p-id="4392" xmlns:xlink="http://www.w3.org/1999/xlink" width="200" height="200"><path d="M555.52 943.616C339.456 943.616 163.84 768 163.84 552.448s175.616-391.68 391.68-391.68S947.2 336.384 947.2 552.448s-176.128 391.168-391.68 391.168z" fill="#38CEB1" p-id="4393"></path><path d="M815.616 820.224m-20.48 0a20.48 20.48 0 1 0 40.96 0 20.48 20.48 0 1 0-40.96 0Z" fill="#231815" p-id="4394"></path><path d="M512 61.952c-248.32 0-450.56 202.24-450.56 450.56s202.24 450.56 450.56 450.56c93.184 0 182.272-28.16 258.048-81.408 9.216-6.656 11.264-19.456 5.12-28.672-6.656-9.216-19.456-11.264-28.672-5.12-69.12 48.128-150.016 73.728-235.008 73.728-225.792 0-409.6-183.808-409.6-409.6s183.808-409.6 409.6-409.6 409.6 183.808 409.6 409.6c0 87.552-27.136 171.008-78.848 241.152-6.656 9.216-4.608 22.016 4.608 28.672 9.216 6.656 22.016 4.608 28.672-4.608 56.832-77.312 86.528-169.472 86.528-265.728 0.512-247.296-201.728-449.536-450.048-449.536z" fill="#231815" p-id="4395"></path><path d="M641.536 267.776c-8.192-8.192-20.992-8.192-29.184 0L389.632 491.008c-5.632 5.632-9.216 13.312-9.216 21.504s3.072 15.872 9.216 21.504l223.232 223.232c4.096 4.096 9.216 6.144 14.336 6.144s10.24-2.048 14.336-6.144c8.192-8.192 8.192-20.992 0-29.184L425.472 512l216.064-216.064c8.192-7.168 8.192-20.48 0-28.16z" fill="#231815" p-id="4396"></path></svg>