<svg width="1024" height="1024" viewBox="0 0 1024 1024" version="1.1" xmlns="http://www.w3.org/2000/svg"><path d="M856.746667 546.133333h-682.666667c-18.773333 0-34.133333-15.36-34.133333-34.133333s15.36-34.133333 34.133333-34.133333h682.666667c18.773333 0 34.133333 15.36 34.133333 34.133333s-15.36 34.133333-34.133333 34.133333z" fill="#3793DF" /><path d="M455.68 836.266667c-8.533333 0-17.066667-3.413333-23.893333-10.24l-288.426667-290.133334c-13.653333-13.653333-13.653333-34.133333 0-47.786666l288.426667-290.133334c13.653333-13.653333 34.133333-13.653333 47.786666 0 13.653333 13.653333 13.653333 34.133333 0 47.786667L215.04 512l264.533333 266.24c13.653333 13.653333 13.653333 34.133333 0 47.786667-6.826667 6.826667-15.36 10.24-23.893333 10.24z" fill="#EB4AF4" /></svg>
