<svg width="1024" height="1024" viewBox="100 160 824 700" xmlns="http://www.w3.org/2000/svg">
  <path d="M512 803.84c-192.96 0-349.44-58.88-349.44-131.52S319.04 540.8 512 540.8s349.44 58.88 349.44 131.52S704.96 803.84 512 803.84z" fill="#FFF7DF"/>
  <path d="M512 833.92c-104.96 0-204.16-16-279.04-45.12-84.48-32.96-131.04-74.24-131.04-116.48s46.56-83.52 131.04-116.48c74.88-29.12 174.08-45.12 279.04-45.12s204.16 16 279.04 45.12c84.48 32.96 131.04 74.24 131.04 116.48s-46.56 83.52-131.04 116.48c-74.88 29.12-174.08 45.12-279.04 45.12z m0-262.88c-95.68 0-185.28 14.08-252.16 40.32-66.56 25.92-97.28 54.24-97.28 60.96s30.72 35.04 97.28 60.96c66.88 26.24 156.48 40.32 252.16 40.32s185.28-14.08 252.16-40.32c66.56-25.92 97.28-54.24 97.28-60.96s-30.72-35.04-97.28-60.96c-66.88-26.24-156.48-40.32-252.16-40.32z" fill="#26353A"/>
  <path d="M512 704c-86.08 0-168.32-10.88-231.36-30.72-14.4-4.48-22.4-19.84-17.92-34.24s19.84-22.4 34.24-17.92c57.6 18.24 134.08 28.16 215.04 28.16s157.44-9.92 215.04-28.16c14.4-4.48 29.76 3.52 34.24 17.92s-3.52 29.76-17.92 34.24C680.32 693.12 598.08 704 512 704z" fill="#8CCB8F"/>
  <path d="M334.72 469.12c-13.44 0-25.28-9.92-27.2-23.68-8.96-65.6 5.12-125.44 40.64-173.12 38.72-51.84 101.44-82.88 167.68-82.88 66.56 0 126.72 27.2 165.12 74.56 34.24 42.24 48 96.96 38.72 154.24-2.56 14.72-16.64 24.96-31.68 22.4-14.72-2.56-24.96-16.64-22.4-31.68 6.72-41.28-2.88-80.32-27.2-110.08-28.16-34.88-72.96-54.88-122.56-54.88-49.28 0-95.68 22.72-123.84 60.48-26.56 35.52-36.8 81.6-29.76 133.44 2.24 15.04-8.32 28.8-23.36 30.72-1.28 0.32-2.88 0.48-4.16 0.48z" fill="#26353A"/>
  <path d="M389.76 457.92c-13.76 0-25.6-10.24-27.2-24.32-7.04-62.08 10.88-117.76 50.56-156.48 10.88-10.56 28.16-10.24 38.72 0.32 10.56 10.88 10.24 28.16-0.32 38.72-27.52 26.88-39.68 66.56-34.56 111.36 1.6 15.04-9.28 28.48-24.32 30.08-0.96 0.16-1.92 0.32-2.88 0.32z" fill="#F4B75E"/>
</svg>
