<?xml version="1.0" standalone="no"?><!DOCTYPE svg PUBLIC "-//W3C//DTD SVG 1.1//EN" "http://www.w3.org/Graphics/SVG/1.1/DTD/svg11.dtd"><svg t="1783613207613" class="icon" viewBox="0 0 1024 1024" version="1.1" xmlns="http://www.w3.org/2000/svg" p-id="6028" xmlns:xlink="http://www.w3.org/1999/xlink" width="200" height="200"><path d="M512 512m-452 0a452 452 0 1 0 904 0 452 452 0 1 0-904 0Z" fill="#228328" p-id="6029" data-spm-anchor-id="a313x.search_index.0.i3.bcdd3a81qrMMPK" class=""></path><path d="M326.226 492.894l372.146 3.318c9.586-0.066 17.413 7.644 17.48 17.23 0.004 0.184 0 0.368-0.004 0.552 0.173 9.483-7.375 17.31-16.858 17.487-0.305 0.007-0.614 0-0.92-0.007l-372.146-3.318c-9.737 0.081-17.693-7.739-17.778-17.48v-0.302c0.324-9.748 8.325-17.487 18.08-17.48z" fill="#ffffff" p-id="6030" data-spm-anchor-id="a313x.search_index.0.i6.bcdd3a81qrMMPK" class="selected"></path><path d="M570.607 358.199l139.819 142.228c6.989 7.158 6.857 18.627-0.298 25.616-7.158 6.989-18.627 6.857-25.616-0.302L544.994 383.514c-7.633-6.437-8.604-17.848-2.167-25.477 6.441-7.636 17.844-8.6 25.48-2.163a17.547 17.547 0 0 1 2.3 2.325z" fill="#ffffff" p-id="6031" data-spm-anchor-id="a313x.search_index.0.i4.bcdd3a81qrMMPK" class="selected"></path><path d="M568.198 667.066l141.927-139.514c7.158-6.989 7.294-18.458 0.305-25.616-6.993-7.158-18.458-7.291-25.616-0.302L542.585 641.45c-6.978 6.945-7.11 18.201-0.302 25.315 6.882 7.239 18.326 7.526 25.561 0.64 0.118-0.11 0.235-0.221 0.349-0.338h0.005z" fill="#ffffff" p-id="6032" data-spm-anchor-id="a313x.search_index.0.i5.bcdd3a81qrMMPK" class="selected"></path></svg>