<svg width="200" height="200" viewBox="0 0 1024 1024" version="1.1" xmlns="http://www.w3.org/2000/svg"><path d="M772.1984 815.1552H304.64c-82.5856 0-188.5696-70.1952-188.5696-156.7744h844.8c-0.1024 86.5792-105.8304 156.7744-188.672 156.7744z" fill="#FFC31A" /><path d="M874.2912 625.9712a95.6416 95.6416 0 0 0-139.008-85.3504A75.3152 75.3152 0 0 0 619.52 482.6624v-0.7168a81.92 81.92 0 0 0-156.0576-35.84 95.6928 95.6928 0 0 0-172.6976 56.9856 94.2592 94.2592 0 0 0 3.2256 24.1664h-0.9728a95.6928 95.6928 0 0 0-88.8832 131.1744h340.4288v50.3808a38.6048 38.6048 0 0 0 77.2096 0v-50.3808h88.4736v112.64a38.6048 38.6048 0 1 0 77.1584 0v-112.64h81.1008a94.6688 94.6688 0 0 0 5.7856-32.4608z" fill="#FFE8D2" /><path d="M707.328 813.3632c-0.4096 0.6144-0.768 1.2288-1.1776 1.792h66.048c82.5856 0 188.5696-70.1952 188.5696-156.7744h-66.9696c-17.8688 48.4864-64.3584 119.8592-186.4704 154.9824z" fill="#F48806" /><path d="M778.5472 530.2272a95.1296 95.1296 0 0 0-43.264 10.24A75.3152 75.3152 0 0 0 619.52 482.6624v-0.7168c0-1.9968 0-3.9936-0.3072-5.9904-2.304 7.5264-3.84 12.3392-3.84 12.3392s74.6496 20.48 87.6544 91.0336c55.552 1.0752 126.5664-12.7488 124.2112 79.0528h41.3184a94.6688 94.6688 0 0 0 5.7856-32.4096 95.744 95.744 0 0 0-95.7952-95.744z" fill="#E8AD80" /><path d="M322.56 815.1552l35.84 52.5824a39.1168 39.1168 0 0 0 35.1744 22.0672h300.8512a39.0144 39.0144 0 0 0 33.4336-18.8416l33.8432-55.808z" fill="#FFE8D2" /><path d="M696.32 815.1552c-13.4144 20.0704-32.8704 49.92-48.9472 74.6496h47.2576a39.0144 39.0144 0 0 0 33.4336-18.8416l33.8432-55.808z" fill="#E8AD80" /><path d="M252.0576 602.2144h-24.8832a20.48 20.48 0 0 1 0-40.96h24.8832a20.48 20.48 0 0 1 0 40.96zM310.8864 557.312a20.48 20.48 0 0 1-12.3392-36.864l19.2512-14.4384a20.48 20.48 0 1 1 24.576 32.768l-19.2512 14.4384a20.48 20.48 0 0 1-12.2368 4.096zM437.248 522.8032h-2.2528l-20.48-2.304a20.48 20.48 0 0 1 4.4544-40.96l20.48 2.2528a20.48 20.48 0 0 1-2.2016 40.96zM362.5984 611.0208a20.48 20.48 0 0 1-12.9536-36.4032l18.1248-14.6944a20.48 20.48 0 0 1 25.6 31.7952l-18.0736 14.6944a20.48 20.48 0 0 1-12.6976 4.608zM505.088 600.832a20.48 20.48 0 0 1-6.0928-0.9216l-30.0032-9.3184a20.48 20.48 0 1 1 12.288-39.1168l29.952 9.3184a20.48 20.48 0 0 1-6.0416 40.0384zM565.5552 568.0128a20.48 20.48 0 0 1-12.9536-36.352l18.3808-14.9504a20.48 20.48 0 0 1 25.9072 31.744L578.56 563.2a20.48 20.48 0 0 1-13.0048 4.8128zM678.3488 605.0816a20.8384 20.8384 0 0 1-8.4992-1.8432l-22.3232-10.24a20.48 20.48 0 1 1 16.9984-37.2736l22.3232 10.24a20.48 20.48 0 0 1-8.4992 39.1168z" fill="#293E40" /><path d="M403.5072 731.1872H276.48a20.48 20.48 0 1 1 0-40.96h127.0272a20.48 20.48 0 0 1 0 40.96zM217.4976 731.1872h-14.4896a20.48 20.48 0 0 1 0-40.96h14.4896a20.48 20.48 0 0 1 0 40.96z" fill="#FFFFFF" /><path d="M241.7152 457.472a20.48 20.48 0 0 0 27.904-7.8336 75.3152 75.3152 0 0 1 65.6384-38.4 74.496 74.496 0 0 1 60.416 30.72 20.48 20.48 0 0 0 34.8672-3.2768A61.44 61.44 0 0 1 547.84 464.896a10.24 10.24 0 0 0 0 1.1776 20.48 20.48 0 0 0 40.96 0.8192v-1.4848a102.7072 102.7072 0 0 0-179.2-68.3008 116.0704 116.0704 0 0 0-175.7184 32.4608 20.48 20.48 0 0 0 7.8336 27.904zM628.5824 435.6096a20.48 20.48 0 0 0-8.3968 40.0896 55.0912 55.0912 0 0 1 43.4176 49.8176 20.48 20.48 0 0 0 10.24 16.3328 20.48 20.48 0 0 0 19.3536 0.4608 74.3936 74.3936 0 0 1 33.9456-8.192 75.4176 75.4176 0 0 1 66.048 39.1168 20.48 20.48 0 0 0 17.9712 10.5984 20.0704 20.0704 0 0 0 9.8304-2.5088 20.48 20.48 0 0 0 8.0896-27.8016A116.2752 116.2752 0 0 0 727.04 493.1584a114.4832 114.4832 0 0 0-28.3648 3.5328 96.0512 96.0512 0 0 0-70.0928-61.0816zM374.4256 322.56a19.968 19.968 0 0 0 9.3696 2.304 20.48 20.48 0 0 0 9.4208-38.7072c-22.6816-11.6736-29.44-19.0464-31.3344-21.76 5.4272-7.168 29.5936-19.0464 44.3904-26.2656l5.12-2.4576c22.784-11.2128 28.672-27.1872 29.6448-38.656 2.9696-35.1232-39.0144-67.2768-47.5136-73.3696a20.48 20.48 0 0 0-23.9616 33.2288c16.384 11.8784 31.2832 29.7472 30.72 36.7616 0 0.6144-1.8432 2.7648-6.9632 5.12l-5.12 2.4064C353.28 218.5216 320.6656 234.5984 320.4096 264.0384c-0.3072 27.136 28.7232 45.6192 54.016 58.5216zM645.8368 348.16a20.736 20.736 0 0 0 9.3696 2.304 20.48 20.48 0 0 0 9.4208-38.7072c-22.6816-11.7248-29.44-19.0464-31.3344-21.8112 5.4272-7.168 29.5936-18.9952 44.3904-26.2144l5.12-2.4576c22.784-11.2128 28.7232-27.1872 29.6448-38.656 2.9696-35.1232-39.0144-67.2768-47.4624-73.3696a20.48 20.48 0 1 0-23.9616 33.2288c16.0256 11.5712 31.232 29.7472 30.72 36.7104 0 0.6656-1.792 2.816-6.912 5.12l-5.12 2.4064c-34.7648 17.0496-67.5328 33.1264-67.84 62.5152-0.3584 27.5456 28.672 46.0288 53.9648 58.9312zM527.8208 206.5408l-6.0416 2.9696c-43.3152 21.248-80.6912 39.5776-81.0496 72.9088-0.3072 30.72 34.0992 52.6848 64.1024 68.1472a20.48 20.48 0 1 0 18.7392-36.4032c-39.8848-20.48-41.8816-31.1808-41.8816-31.1808 1.8944-9.1136 38.4512-27.0336 58.112-36.6592l6.0928-3.0208c26.112-12.8512 32.8704-30.72 33.9456-43.776 3.4304-40.96-46.5408-79.0016-56.6272-86.272a20.48 20.48 0 0 0-23.9616 33.2288c19.6096 14.1824 40.96 38.0928 39.7824 49.6128-0.3584 4.2496-6.2976 8.0384-11.2128 10.4448zM909.5168 621.312h-87.8592a55.9104 55.9104 0 0 0-55.8592 55.8592v105.5232a16.2816 16.2816 0 0 1-14.6432 16.64 14.848 14.848 0 0 1-11.008-4.2496 15.0528 15.0528 0 0 1-4.608-10.9056V690.688a69.4272 69.4272 0 0 0-138.8032 0v26.112a16.2816 16.2816 0 0 1-14.6432 16.64 15.36 15.36 0 0 1-15.36-15.36v-27.392a69.4784 69.4784 0 0 0-69.376-69.376H168.0896a73.4208 73.4208 0 0 1-1.5872-14.9504 75.3664 75.3664 0 0 1 74.752-75.264h1.4848a20.48 20.48 0 0 0 0.8704-40.96h-1.8432a116.3264 116.3264 0 0 0-116.224 116.224 112.64 112.64 0 0 0 1.1264 14.9504H64.8192a20.48 20.48 0 0 0-20.48 20.48 144.9984 144.9984 0 0 0 31.7952 87.808 20.48 20.48 0 1 0 32.5632-24.832 114.3808 114.3808 0 0 1-20.992-42.496h409.6a28.4672 28.4672 0 0 1 28.416 28.416v27.4944a56.32 56.32 0 0 0 57.8048 56.064A57.2416 57.2416 0 0 0 637.696 716.8v-26.112a28.4672 28.4672 0 0 1 56.8832 0V778.24H253.3888a187.6992 187.6992 0 0 1-88.2176-25.6 20.48 20.48 0 1 0-20.1216 35.84 225.8944 225.8944 0 0 0 108.3392 30.72h7.2704l28.8256 42.496a60.0064 60.0064 0 0 0 52.8896 32.1024h300.8512a59.9552 59.9552 0 0 0 51.2-28.672l22.1184-36.5056a55.7056 55.7056 0 0 0 34.3552 11.776h1.7408a56.7808 56.7808 0 0 0 51.2-39.4752h0.512c57.9584-24.8832 125.6448-81.408 125.6448-158.72a20.48 20.48 0 0 0-20.48-20.8896z m-250.368 222.464a18.7904 18.7904 0 0 1-15.9232 8.96H342.3744a18.688 18.688 0 0 1-16.7424-10.496 25.6 25.6 0 0 0-1.4848-2.56l-13.9776-20.48h363.9296z m147.6096-89.8048v-76.8a14.9504 14.9504 0 0 1 14.8992-14.8992h64.9216c-9.1136 38.5024-42.8032 71.3216-79.8208 91.6992z" fill="#293E40" /></svg>
