<svg width="200" height="200" viewBox="0 0 1024 1024" version="1.1" xmlns="http://www.w3.org/2000/svg"><path d="M476.75166566 243.165281L447.00558066 537.490244h182.418759l-70.781345-294.324963zM376.85141166 851.078485l-26.072622 134.574153 393.32925-6.809345-60.477732-144.967363zM260.91335966 576.464783s33.59874 201.05486 243.344474 257.32155c213.240003-44.26074 238.506256-29.118908 352.204393-259.382273-10.12442-33.59874-595.548867 2.060723-595.548867 2.060723z" fill="#74B5DB" /><path d="M505.69137966 875.717561c-98.466707 0-192.184793-33.419547-263.951701-94.076473-70.781346-59.940152-111.45822-140.756322-111.458221-221.751684 0-13.618689 11.020387-24.639076 24.639076-24.639076s24.639076 11.020387 24.639076 24.639076c0 66.39111 34.225917 133.498994 93.986876 184.031499 62.807245 53.130808 145.236154 82.428909 232.055298 82.428909s169.248053-29.298101 232.055298-82.428909c59.850556-50.532505 94.076472-117.550792 94.076472-184.031499 0-13.618689 11.020387-24.639076 24.639076-24.639076s24.639076 11.020387 24.639076 24.639076c0 80.995363-40.587278 161.721935-111.45822 221.662088-71.677312 60.746522-165.395398 94.166069-263.862106 94.166069z" fill="#333333" /><path d="M162.35705466 584.080497c-13.618689 0-24.639076-11.020387-24.639076-24.639076s11.020387-24.639076 24.639076-24.728673l686.66865-0.806369c13.618689 0 24.639076 11.020387 24.639076 24.639076s-11.020387 24.639076-24.639076 24.728672l-686.66865 0.80637z" fill="#333333" /><path d="M627.63240766 574.852043H383.75035266c-11.647563 0-22.847143-4.838219-30.821244-13.170706-7.884504-8.332488-12.00595-19.800857-11.378773-31.358824l0.089596-1.88153L404.26798366 240.029399c2.150319-19.621664 19.621664-34.6739 40.856068-34.6739h122.209817c21.234404 0 38.705749 15.052236 40.856068 34.763497L669.47403866 528.53058l0.089596 1.88153c0.716773 11.557967-3.404672 23.026337-11.378773 31.358824-7.705311 8.242891-18.904891 13.081109-30.552454 13.081109z m-234.743197-49.367749h225.693936l-57.61064-270.940239h-109.307901l-58.775395 270.940239zM143.54176066 637.480094H75.00033066c-13.618689 0-24.639076-11.020387-24.639076-24.639076s11.020387-24.639076 24.639076-24.639076h68.54143c13.618689 0 24.639076 11.020387 24.639076 24.639076s-11.020387 24.639076-24.639076 24.639076zM933.87372366 636.225742h-68.54143c-13.618689 0-24.639076-11.020387-24.639076-24.639076s11.020387-24.639076 24.639076-24.639077h68.54143c13.618689 0 24.639076 11.020387 24.639076 24.639077 0 13.529093-11.020387 24.639076-24.639076 24.639076zM733.44603966 1024H277.93672066c-11.020387 0-21.144807-4.927815-27.864555-13.618689-7.794908-10.034824-10.214017-23.74311-6.719748-37.630589l0.26879-0.985563 57.252253-168.26249c4.390235-12.901916 18.367311-19.800857 31.269228-15.410622 12.901916 4.390235 19.800857 18.367311 15.410622 31.269227l-52.862018 155.270977h422.000175l-52.862018-155.18138c-4.390235-12.901916 2.508706-26.878992 15.410622-31.269228 12.901916-4.390235 26.878992 2.508706 31.269228 15.410622L767.76155266 971.765159l0.26879 0.985563c3.494269 13.887479 1.07516 27.685362-6.719748 37.630589-6.719748 8.690874-16.844168 13.618689-27.864555 13.618689z" fill="#333333" /><path d="M458.74274066 174.623852c-6.271765 0-11.378773-5.017412-11.378773-11.109984 0-16.396185 6.719748-25.087059 12.095546-32.075597 4.479832-5.823782 7.526118-9.676437 7.526118-18.725698 0-8.959664-2.956689-12.81232-7.526118-18.725698-5.375798-6.988538-12.095546-15.679412-12.095546-32.075597s6.719748-25.087059 12.095546-32.075597c4.479832-5.823782 7.526118-9.676437 7.526118-18.725698 0-6.092572 5.107008-11.109983 11.378773-11.109983s11.378773 5.017412 11.378774 11.109983c0 16.396185-6.719748 25.087059-12.095547 32.075598-4.479832 5.823782-7.526118 9.676437-7.526118 18.725697s2.956689 12.81232 7.526118 18.725698c5.375798 6.988538 12.095546 15.679412 12.095547 32.075597 0 16.396185-6.719748 25.087059-12.095547 32.075597-4.479832 5.823782-7.526118 9.676437-7.526118 18.725698 0 6.092572-5.107008 11.109983-11.378773 11.109984zM544.21793566 174.623852c-6.271765 0-11.378773-5.017412-11.378774-11.109984 0-16.396185 6.719748-25.087059 12.095547-32.075597 4.479832-5.823782 7.526118-9.676437 7.526118-18.725698 0-8.959664-2.956689-12.81232-7.526118-18.725698-5.375798-6.988538-12.095546-15.679412-12.095547-32.075597s6.719748-25.087059 12.095547-32.075597c4.479832-5.823782 7.526118-9.676437 7.526118-18.725698 0-6.092572 5.107008-11.109983 11.378773-11.109983 6.271765 0 11.378773 5.017412 11.378773 11.109983 0 16.396185-6.719748 25.087059-12.095546 32.075598-4.479832 5.823782-7.526118 9.676437-7.526118 18.725697s2.956689 12.81232 7.526118 18.725698C568.49862466 87.715111 575.12877666 96.405985 575.12877666 112.80217c0 16.396185-6.719748 25.087059-12.095547 32.075597-4.479832 5.823782-7.526118 9.676437-7.526118 18.725698 0.089597 6.002975-5.017412 11.020387-11.289176 11.020387z" fill="#333333" /></svg>
