<svg overflow="hidden" viewBox="0 0 1024 1024" version="1.1" xmlns="http://www.w3.org/2000/svg"><path d="M546.863981 250.463863C556.159976 190.743896 597.487953 159.999913 656.255921 159.999913a72.055961 72.055961 0 0 0 0-144.111922C566.39997 15.895991 512 98.935946 512 247.439865v20.639988h33.383982l1.471999-17.62399z" fill="#6CF5C5" /><path d="M477.136019 250.463863C467.840024 190.743896 426.512047 159.999913 367.736079 159.999913a72.055961 72.055961 0 0 1 0-144.111922C457.60003 15.895991 512 98.935946 512 247.439865v20.639988h-33.391982l-1.471999-17.62399z" fill="#46C79C" /><path d="M512 247.439865c-134.119927 0-242.847867 108.735941-242.847867 242.855867 0 120.455934 91.31995 412.367774 163.99191 485.119735a111.103939 111.103939 0 0 0 78.847957 32.687982c30.775983 0 58.639968-12.479993 78.815957-32.639982 72.67196-72.67996 164.03191-364.687801 164.03191-485.167735 0-134.119927-108.719941-242.847867-242.839867-242.847867z" fill="#FFB446" /><path d="M370.432077 453.935752m-28.783984 0a28.783984 28.783984 0 1 0 57.567969 0 28.783984 28.783984 0 1 0-57.567969 0Z" fill="#3F4963" /><path d="M401.224061 546.039701h-61.575967a15.895991 15.895991 0 0 1 0-31.783982h61.575967a15.895991 15.895991 0 0 1 0 31.791982z" fill="#FF6376" /><path d="M653.567923 453.935752m-28.783985 0a28.783984 28.783984 0 1 0 57.567969 0 28.783984 28.783984 0 1 0-57.567969 0Z" fill="#3F4963" /><path d="M684.359906 546.039701h-61.575967a15.895991 15.895991 0 1 1 0-31.783982h61.575967a15.895991 15.895991 0 1 1 0 31.791982z" fill="#FF6376" /><path d="M483.392016 521.559715a44.559976 44.559976 0 0 1-44.503976-44.503976 15.895991 15.895991 0 0 1 31.783983 0c0 7.007996 5.703997 12.719993 12.719993 12.719993 7.015996 0 12.719993-5.711997 12.719993-12.719993a15.895991 15.895991 0 0 1 31.783982 0 44.551976 44.551976 0 0 1-44.503975 44.503976z" fill="#3F4963" /><path d="M540.615984 521.559715a44.559976 44.559976 0 0 1-44.503975-44.503976 15.895991 15.895991 0 0 1 31.783982 0c0 7.007996 5.703997 12.719993 12.719993 12.719993 7.007996 0 12.719993-5.711997 12.719993-12.719993a15.895991 15.895991 0 1 1 31.783983 0 44.551976 44.551976 0 0 1-44.503976 44.503976z" fill="#3F4963" /><path d="M563.975972 301.167835H664.319917a242.895867 242.895867 0 0 0-51.359972-31.791982h-48.983973a15.895991 15.895991 0 1 0 0 31.791982zM422.512049 704.663615c0-8.775995-7.111996-15.895991-15.887991-15.895992H305.000113c2.975998 10.567994 6.095997 21.183988 9.335995 31.791983h92.28795c8.775995 0 15.887991-7.119996 15.887991-15.895991z m-19.751989-366.6398c0-8.775995-7.119996-15.887991-15.887992-15.887991H336.800096A243.839867 243.839867 0 0 0 311.04011 353.919806h75.831958c8.775995 0 15.887991-7.119996 15.887992-15.887991z m196.719892 464.127746c0 8.775995 7.119996 15.895991 15.895991 15.895992h60.719967c4.015998-10.399994 7.975996-21.015989 11.823994-31.791983h-72.543961c-8.775995 0-15.887991 7.119996-15.887991 15.895991z m-120.799934 98.551946H384.13607a519.119716 519.119716 0 0 0 17.35999 31.783983h77.183958a15.895991 15.895991 0 0 0 0-31.791983z m211.767884-274.447849c0-8.783995-7.111996-15.895991-15.887991-15.895992H540.615984a15.895991 15.895991 0 1 0 0 31.783983H674.559911c8.775995 0 15.887991-7.119996 15.887991-15.895991z" fill="#CF9945" /><path d="M566.07997 237.25587c11.839994-39.711978 43.327976-61.359966 90.183951-61.359966 48.487973 0 87.943952-39.447978 87.943952-87.943952S704.751895 0 656.255921 0C606.119949 0 564.879971 23.335987 536.991986 67.495963c-10.239994 16.231991-18.58399 34.975981-24.991986 56.127969-6.407996-21.151988-14.743992-39.895978-24.991986-56.127969C459.120029 23.335987 417.888051 0 367.736079 0 319.240105 0 279.784127 39.455978 279.784127 87.951952c0 48.495973 39.455978 87.951952 87.951952 87.951952 46.855974 0 78.343957 21.639988 90.175951 61.351966C341.120093 262.191857 253.256142 366.1598 253.256142 490.295732c0 59.447967 21.279988 161.143912 55.535969 265.407855 52.023972 158.319913 96.431947 214.247883 113.103938 230.943873A126.495931 126.495931 0 0 0 512 1023.99944c34.015981 0 65.999964-13.247993 90.047951-37.30398 16.679991-16.679991 61.087967-72.56796 113.135938-230.927873 34.263981-104.287943 55.55197-206.007887 55.55197-265.471855 0-124.127932-87.855952-228.103875-204.655889-253.039862zM656.263921 31.791983c30.959983 0 56.159969 25.191986 56.159969 56.159969 0 30.967983-25.199986 56.159969-56.159969 56.159969-33.015982 0-61.783966 9.111995-83.223954 26.343986-18.67199 15.015992-31.839983 36.28798-38.639979 62.079966-2.079999-0.184-4.175998-0.336-6.279997-0.464 3.407998-127.51993 49.671973-200.27989 128.13593-200.27989zM450.944033 170.447907c-21.431988-17.231991-50.207973-26.335986-83.215954-26.335986a56.223969 56.223969 0 0 1-56.159969-56.159969c0-30.967983 25.191986-56.159969 56.159969-56.159969 78.471957 0 124.727932 72.75996 128.13593 200.27989-2.095999 0.128-4.191998 0.28-6.279997 0.464-6.799996-25.791986-19.959989-47.071974-38.639979-62.079966z m128.61593 793.767566a94.927948 94.927948 0 0 1-67.567963 27.999984 94.919948 94.919948 0 0 1-67.607963-28.039984C375.600075 895.32751 285.040124 606.935668 285.040124 490.295732c0-125.143932 101.807944-226.959876 226.943876-226.959876 125.143932 0 226.959876 101.815944 226.959876 226.959876 0 116.695936-90.58395 405.127778-159.383913 473.919741z m73.99996-539.063706a28.783984 28.783984 0 1 0 0 57.567969 28.783984 28.783984 0 0 0 0-57.567969z m-283.127846 0a28.783984 28.783984 0 1 0 0 57.567969 28.783984 28.783984 0 0 0 0-57.567969z m198.783892 36.007981c-8.775995 0-15.887991 7.119996-15.887992 15.895991 0 7.007996-5.711997 12.719993-12.719993 12.719993-7.015996 0-12.719993-5.711997-12.719993-12.719993a15.895991 15.895991 0 1 0-31.783982 0c0 7.007996-5.703997 12.719993-12.719993 12.719993-7.007996 0-12.711993-5.711997-12.711993-12.719993a15.895991 15.895991 0 0 0-31.791983 0 44.559976 44.559976 0 0 0 44.511976 44.503976 44.279976 44.279976 0 0 0 28.607984-10.463995 44.287976 44.287976 0 0 0 28.607984 10.463995 44.559976 44.559976 0 0 0 44.511976-44.503976c-0.008-8.775995-7.119996-15.895991-15.903991-15.895991z" fill="#000000" /></svg>