<svg overflow="hidden" viewBox="0 0 1024 1024" version="1.1" xmlns="http://www.w3.org/2000/svg"><path d="M987.464 369.808c-11.448-38.176-35.072-40.16-49.88-33.384L571.888 487.904c-16.024 6.64-27.504 5.856-34.08-0.704-6.56-6.576-7.336-18.048-0.704-34.08l151.48-365.696c6.776-14.816 4.8-38.432-33.376-49.88-169.056-50.64-359.792-9.208-493.328 124.32-193.648 193.656-193.648 507.616 0 701.264 193.648 193.64 507.608 193.648 701.256 0 133.536-133.536 174.96-324.28 124.328-493.32z" fill="#FFD553" /><path d="M278.184 535.768m-30.296 0a30.296 30.296 0 1 0 60.592 0 30.296 30.296 0 1 0-60.592 0Z" fill="#3F4963" /><path d="M745.824 535.768m-30.296 0a30.296 30.296 0 1 0 60.592 0 30.296 30.296 0 1 0-60.592 0Z" fill="#3F4963" /><path d="M310.592 641.04H245.76a16.104 16.104 0 1 1 0-32.216h64.824a16.104 16.104 0 1 1 0 32.208zM778.24 641.04h-64.832a16.104 16.104 0 1 1 0-32.216h64.824a16.104 16.104 0 1 1 0 32.208z" fill="#FF6376" /><path d="M474.064 620.096a54.096 54.096 0 0 1-54.04-54.04 16.104 16.104 0 1 1 32.208 0 21.856 21.856 0 0 0 21.84 21.84 21.856 21.856 0 0 0 21.824-21.84 16.104 16.104 0 1 1 32.208 0 54.104 54.104 0 0 1-54.04 54.04z" fill="#3F4963" /><path d="M549.936 620.096a54.096 54.096 0 0 1-54.04-54.04 16.104 16.104 0 1 1 32.208 0 21.856 21.856 0 0 0 21.84 21.84 21.856 21.856 0 0 0 21.832-21.84 16.104 16.104 0 1 1 32.208 0 54.104 54.104 0 0 1-54.048 54.04z" fill="#3F4963" /><path d="M38.112 363.616a498.12 498.12 0 0 0-15.96 228.184 114.12 114.12 0 0 0 86.2-33.384c44.68-44.68 44.68-117.12 0-161.792a113.96 113.96 0 0 0-70.24-33.008zM228.8 159.176a73.64 73.64 0 0 0-43.552-21.128A498.72 498.72 0 0 0 104.4 228.216a73.992 73.992 0 0 0 124.4 35.608 74 74 0 0 0 0-104.648z m133.552 559.048c-81.328 0-147.256 65.928-147.256 147.256 0 17.664 3.12 34.6 8.824 50.296a493.048 493.048 0 0 0 198.176 84.288c51.544-22.92 87.504-74.536 87.504-134.584 0-81.328-65.92-147.256-147.248-147.256z m132.12-569.76c35.944-35.936 42.944-89.84 21.064-132.808a496.168 496.168 0 0 0-216.256 47.52 114.08 114.08 0 0 0 33.408 85.288c44.672 44.68 117.112 44.68 161.784 0z m355.016 448.704c-44.68 44.672-44.68 117.12 0 161.792a113.896 113.896 0 0 0 70.96 33.056 493.264 493.264 0 0 0 80.928-203.648c-44.912-35.632-110.376-32.72-151.888 8.8z m32.664-239.224l-164.944 68.32a89.016 89.016 0 0 0 20.128 30.88c34.864 34.864 91.4 34.864 126.272 0 26.824-26.816 32.992-66.456 18.544-99.2zM465.384 233.968c-44.672 44.68-44.672 117.12 0 161.8a114.024 114.024 0 0 0 80.16 33.488l81.104-195.792c-44.72-44.152-116.76-44-161.264 0.504z m203.624 667.56c-22.928 22.92-27.648 57.136-14.192 84.728a492.576 492.576 0 0 0 133.704-63.448 74.008 74.008 0 0 0-119.52-21.28z" fill="#3F4963" opacity=".2" /><path d="M587.336 549.44a16.104 16.104 0 0 0-16.104 16.112 21.856 21.856 0 0 1-21.84 21.832 21.856 21.856 0 0 1-21.832-21.84 16.104 16.104 0 1 0-32.2 0 21.856 21.856 0 0 1-21.84 21.84 21.856 21.856 0 0 1-21.832-21.84 16.104 16.104 0 1 0-32.208 0 54.096 54.096 0 0 0 54.04 54.04 53.864 53.864 0 0 0 37.936-15.6 53.864 53.864 0 0 0 37.936 15.6 54.096 54.096 0 0 0 54.04-54.032c0-8.896-7.2-16.104-16.096-16.104z m-309.696-44.48a30.296 30.296 0 1 0 0 60.6 30.296 30.296 0 0 0 0-60.6z m467.64 0a30.296 30.296 0 1 0 0 60.6 30.296 30.296 0 0 0 0-60.6z m257.072-140.288c-12.96-43.232-40.48-47.896-51.712-47.896-6.744 0-13.656 1.504-20 4.36L565.184 472.512c-6.76 2.8-11.04 3.392-13.456 3.392-1.704 0-2.776-0.312-3.072-0.6-0.56-0.576-1.864-5.304 2.784-16.528l151.376-365.464c5.656-12.56 5.784-26.624 0.352-38.624-6.928-15.296-21.696-26.424-43.888-33.08A513.248 513.248 0 0 0 511.92 0.04c-136.736 0-265.28 53.248-361.976 149.928C53.256 246.672 0 375.24 0 512c0 136.744 53.256 265.312 149.952 362.016 96.696 96.696 225.264 149.944 362.016 149.952 0.008 0 0 0 0 0 136.744 0 265.328-53.264 362.016-149.96 133.344-133.336 182.536-328.504 128.368-509.328z m-151.136 486.56c-90.616 90.616-211.096 140.52-339.248 140.52-128.144 0-248.624-49.904-339.24-140.52C82.112 760.616 32.208 640.136 32.208 511.992c0-128.152 49.904-248.632 140.52-339.248C263.328 82.144 383.792 32.248 511.92 32.248c46.88 0 93.344 6.8 138.104 20.208 12.512 3.752 20.96 9.264 23.792 15.52 2.24 4.936 0.696 9.784-0.424 12.24l-0.24 0.528L521.68 446.456c-12.08 29.168-2.56 44.856 4.208 51.624 6.56 6.56 15.504 10.032 25.84 10.032 7.752 0 16.424-1.96 25.776-5.84L943.2 350.8c0.184-0.08 0.368-0.152 0.544-0.24 1.568-0.712 4.04-1.568 6.888-1.568 11.648 0 18.072 15.624 20.864 24.936 50.768 169.456 4.68 352.352-120.28 477.312z" fill="#000000" /></svg>