<svg overflow="hidden" viewBox="0 0 1024 1024" version="1.1" xmlns="http://www.w3.org/2000/svg"><path d="M276.5 627.3c81.7-21.3 141-152.6 289.4-83.3s166.7 60.3 222.5 40.3S919 519.9 919 519.9s44.8 146.7 31.7 191.2c-13.2 44.5-137.3 178-137.3 178S503.5 978.7 447 938.4s-251-53.7-306.7-132c-63.1-88.7-63.1-224.7-63.1-224.7s106.2 69.8 199.3 45.6z" fill="#FFD885" /><path d="M509 966.4c-130.4 0-242.7-27.1-324.7-78.5C92.6 830.5 44.1 745.8 44.1 642.8c0-37.3 6.3-75.8 18.8-114.4 12.1-37.4 29.6-74.1 52.2-109 45-69.7 106.2-127.6 177.3-167.6 3.7-5.4 8.6-9.7 13.1-13.7 1.4-1.3 2.9-2.5 4.2-3.8 3.5-8.3 11.9-27.6 22.3-47.4 22.3-42.4 40-61.6 59.3-64.2 11.8-1.6 22.9 3.2 30.6 13.2 3.9 5.1 7.7 9.6 11.4 13.5 1-4 2.1-8.1 3.2-12.3 11.4-41 25-64.8 42.8-74.9 11-6.3 23.5-7 35.2-2.2 28.2 11.6 43.8 29.7 53.2 48.2 9.5-12.9 19.9-24.9 36.3-24.9h0.4c11.8 0.1 22.1 6.6 30.7 19.3 5.2 7.7 12.7 19.9 22.2 35.4 24.6 40.1 61.7 100.6 86.2 124.4C881.5 348.2 974 500.7 974 642.8c0 102.9-48.5 187.7-140.2 245.1-82.1 51.4-194.4 78.5-324.8 78.5zM331.7 276.1l-1.1 7-9.9 5.4c-135.9 74-230.8 219.7-230.8 354.4 0 87.5 39.9 156.9 118.7 206.2 74.8 46.8 178.7 71.5 300.4 71.5 121.8 0 225.6-24.7 300.4-71.5 78.8-49.3 118.7-118.7 118.7-206.2 0-127.8-84.9-265.7-211.3-343.1l-4.2-2.6-1.9-2.7c-28.6-28.2-65.4-88.3-92.5-132.5-5.7-9.4-11-17.9-15.2-24.6-0.6 0.8-1.2 1.6-1.7 2.3-6.8 9.4-15.2 21.1-26.5 31.6l-28.4 26.1L537 160c-6.8-27.4-12.9-45.2-37-56.3-3.3 3.7-11 15-19.6 45.9-6.6 23.7-9.9 45.8-10 46.1l-5 33.6-29.2-17.2c-2.3-1.4-21-12.8-42.6-38-5 6.2-12.9 17.8-23.9 39.3-11.2 21.9-19.5 42.3-19.6 42.5l-1.5 3.7-2.6 3c-3.4 3.8-7.1 7.1-10.4 10-1 0.9-2.7 2.3-3.9 3.5z m-1.5 1.5z m-20.5-9.3z" fill="#333333" /><path d="M413.8 318.8c-6.1 11.2-12 22.3-17.4 33.4-1.4 2.8-2.7 5.5-4 8.3-1.3 2.8-2.6 5.5-3.8 8.3-1.3 2.7-2.5 5.5-3.7 8.2l-1.8 4.1-1.7 4.1c-2.3 5.4-3.5 11.4-4.8 17-0.4 1.4-0.7 2.8-1.1 4.1-0.4 1.3-1 2.6-1.5 3.9-0.5 1.2-1.2 2.5-1.9 3.6-0.7 1.2-1.4 2.3-2.3 3.4-3.2 4.5-7.1 8.8-11.6 13.2-4.6 4.4-9.6 9-16.8 14.4l-0.1 0.1c-1.4 1-3.4 0.8-4.5-0.5-5.9-7-8.6-14.7-10-22.3-1.3-7.6-0.9-15.1 0.5-22.1 1.4-7.1 4.6-13.4 9-18.8 1.1-1.3 2.3-2.7 3.4-4l3.6-3.8 3.5-3.8c1.1-1.3 2.2-2.6 3.3-3.8l3.3-3.8 3.3-3.7c2.3-2.4 4.6-4.8 6.9-7.1 2.4-2.3 4.8-4.6 7.2-6.8 2.5-2.2 5-4.3 7.5-6.4 5.1-4.2 10.2-8.2 15.6-11.9 5.3-3.8 10.8-7.3 16.6-10.5 1.1-0.6 2.6-0.2 3.2 0.9 0.6 0.7 0.5 1.5 0.1 2.3zM498.7 298.5c3.4 4.7 6.6 9.4 9.6 14.3 3 4.8 5.9 9.8 8.6 14.8l4 7.5c1.3 2.5 2.6 5.1 3.8 7.6 1.2 2.6 2.4 5.2 3.5 7.8 1.1 2.6 2.2 5.2 3.3 7.9 1.1 2.6 2.3 5.3 3.7 7.9 1.3 2.6 2.8 5.3 4 8 1.2 2.7 2.1 5.5 2.7 8.4 0.2 1.4 0.4 2.9 0.4 4.4 0 1.5 0 3-0.2 4.5-0.6 6.1-2.1 12.3-5.1 18.5-0.4 0.8-0.8 1.6-1.2 2.3-0.4 0.8-0.8 1.5-1.3 2.3-0.9 1.5-2 3.1-3.1 4.5-1.2 1.5-2.5 2.9-3.9 4.3-0.7 0.7-1.5 1.4-2.3 2-0.9 0.6-1.7 1.3-2.6 1.8-1.4 0.9-3.2 0.6-4.4-0.5l-0.2-0.2c-0.8-0.8-1.4-1.5-2.2-2.2-0.6-0.7-1.2-1.4-1.9-2-1.3-1.4-2.4-2.6-3.5-3.9-1.1-1.3-2.1-2.5-3.1-3.6-0.5-0.6-1-1.2-1.4-1.8-0.4-0.6-0.9-1.2-1.3-1.8-3.4-4.7-6-9.3-8-14.1-0.5-1.2-0.9-2.4-1.2-3.6-0.4-1.2-0.6-2.4-0.8-3.7-0.4-2.5-0.3-5.1-0.1-7.7 0.2-2.6 0.6-5.4 0.9-8.1 0.3-2.7 0.4-5.4 0.3-8.1l-0.6-16.2-0.4-16.5c-0.2-11.1-0.5-22.3-0.4-33.7 0-1.3 1.1-2.4 2.4-2.4 0.8 0.3 1.5 0.7 2 1.3zM603.1 292.6c-1.9-0.6-3.8-1.2-5.5-1.6-0.4-0.1-0.8-0.2-1.1-0.2-0.1 0-0.3 0 0 0.1H597.4s0.2 0 0.4-0.1c0.4-0.1 0.8-0.3 1.1-0.5 0.1-0.1 0.4-0.3 0.6-0.5 0.2-0.2 0.4-0.5 0.6-0.7 0.2-0.3 0.3-0.6 0.4-0.8 0.1-0.2 0.1-0.3 0.1-0.5 0.1-0.4 0.1-0.7 0-1.1 0-0.3-0.1-0.5-0.1-0.8 0-0.1 0-0.2-0.1-0.3v-0.1c0.1 0 0.2 0.1 0.3 0.2l1 0.7c2.9 2 6.4 4.2 9.7 6.2 6.7 4.1 13.5 8.3 20.2 12.6l10.1 6.5 10 6.6c3.3 2.3 6.6 4.5 9.8 6.9l9.7 7.1c3.2 2.4 6.6 4.7 10 6.9 3.4 2.2 6.9 4.4 10.3 6.8 3.4 2.4 6.6 5 9.4 7.9 2.9 2.9 5.5 6.2 7.8 9.8 4.6 7.1 8.6 15 11.2 24.1 0.6 2.3 1.2 4.6 1.6 7 0.4 2.4 0.7 4.9 0.8 7.5 0.1 2.6 0 5.3-0.5 8.1-0.5 2.7-1.4 5.7-3.2 8.1-0.9 1.2-2.6 1.4-3.8 0.4-0.1 0-0.1-0.1-0.2-0.1l-0.6-0.6c-1.7-1.6-3.4-2.5-5.1-3.5-1.7-0.9-3.4-1.8-5.2-2.7l-5.1-2.6c-1.7-0.9-3.4-1.8-5-2.7-6.6-3.7-12.9-7.7-18.8-12.3-3-2.3-5.7-4.7-8.3-7.5-2.6-2.7-4.9-5.7-7.1-8.9-2.2-3.2-4.3-6.5-6.5-9.7-2.2-3.2-4.5-6.4-7-9.4l-15-18.1-7.4-9.2-7.4-9.3c-4.9-6.3-9.9-12.5-14.7-19.1l-3.6-5c-1.2-1.7-2.4-3.4-3.6-5.3-0.3-0.5-0.6-1-0.9-1.6-0.2-0.3-0.3-0.6-0.5-1l-0.2-0.4-0.2-0.4c-0.1-0.2-0.1-0.3-0.2-0.6-0.1-0.4-0.2-0.7-0.2-1.1 0-0.4 0-0.8 0.1-1.3 0-0.2 0.1-0.4 0.1-0.6 0.1-0.3 0.2-0.6 0.4-0.9 0.2-0.3 0.4-0.6 0.6-0.8 0.2-0.3 0.5-0.4 0.7-0.5 0.4-0.3 0.8-0.5 1.3-0.6 0.2-0.1 0.5-0.1 0.5-0.1H597l0.3 0.1c0.8 0.2 1.1 0.4 1.4 0.5 0.6 0.4 1.1 0.7 1.6 1 1.8 1.3 3.3 2.7 4.8 4.1 0.9 0.9 1 2.4 0.1 3.3-0.3 0.7-1.2 0.9-2.1 0.6z" fill="#333333" /></svg>
