<svg width="1024" height="1024" viewBox="0 0 1024 1024" version="1.1" xmlns="http://www.w3.org/2000/svg"><path d="M591 808.5c0-72.9 43.4-132.1 97-132.1 12.5 0 24.5 3.2 35.5 9.1 27.6-78.8 44.7-161.5 44.7-227.9 0-185.2-27.3-336.2-256.6-335.6-230.8 0.6-255.6 150.4-255.6 335.6s132.6 496.6 256 496.6c34 0 68.6-23.6 101.1-61.7-13.8-22.8-22.1-52-22.1-84z" fill="#D6000F" /><path d="M517.2 112.2C442.6 109.9 192 194.8 192 206s72.8-34.6 139 57c4.8-12.7 75-27 113-90 42.9 0.3 91 97.6 117 98 3-57 70.7-99.6 77-89 66.1 112 134.6 3.5 185.5 18.5-35.7-45.4-225.4-65.1-306.3-88.3z" fill="#009145" /><path d="M397 342.9c0 10.5-5.8 36.6-12.9 36.6s-12.9-26.1-12.9-36.6 5.8-19.1 12.9-19.1c7.1 0.1 12.9 8.6 12.9 19.1zM422.9 272.8c0 10.5-5.8 36.6-12.9 36.6s-12.9-26.1-12.9-36.6 5.8-19.1 12.9-19.1c7.1 0 12.9 8.6 12.9 19.1zM454.1 411.6c0 10.5-5.8 36.6-12.9 36.6s-12.9-26.1-12.9-36.6 5.8-19.1 12.9-19.1 12.9 8.5 12.9 19.1z" fill="" /><path d="M467 403.1c0 10.5-5.8 36.6-12.9 36.6s-12.9-26.1-12.9-36.6S447 384 454.1 384s12.9 8.6 12.9 19.1zM688 300.7c0 10.5-5.8 36.6-12.9 36.6-7.1 0-12.9-26.1-12.9-36.6s5.8-19.1 12.9-19.1c7.2 0 12.9 8.5 12.9 19.1zM528.1 300.7c0 10.5-5.8 36.6-12.9 36.6-7.1 0-12.9-26.1-12.9-36.6s5.8-19.1 12.9-19.1c7.1 0 12.9 8.5 12.9 19.1zM640.1 231.1c0 10.5-5.8 36.6-12.9 36.6s-12.9-26.1-12.9-36.6 5.8-19.1 12.9-19.1 12.9 8.5 12.9 19.1zM473.9 203.2c0 10.5-5.8 36.6-12.9 36.6s-12.9-26.1-12.9-36.6 5.8-19.1 12.9-19.1 12.9 8.6 12.9 19.1zM492.9 582.2c0 10.5-5.8 36.6-12.9 36.6s-12.9-26.1-12.9-36.6 5.8-19.1 12.9-19.1c7.1 0 12.9 8.6 12.9 19.1zM326.2 516.2c0 10.5-5.8 36.6-12.9 36.6s-12.9-26.1-12.9-36.6 5.8-19.1 12.9-19.1 12.9 8.6 12.9 19.1zM434.3 716.9c0 10.5-5.5 36.6-12.2 36.6s-12.2-26.1-12.2-36.6 5.5-19.1 12.2-19.1 12.2 8.5 12.2 19.1zM508.1 764.5c0 10.5-5.5 36.6-12.2 36.6s-12.2-26.1-12.2-36.6 5.5-19.1 12.2-19.1 12.2 8.5 12.2 19.1zM479.2 854.9c0 10.5-5.5 36.6-12.2 36.6s-12.2-26.1-12.2-36.6 5.5-19.1 12.2-19.1 12.2 8.6 12.2 19.1zM364.3 689c0 10.5-5.5 36.6-12.2 36.6s-12.2-26.1-12.2-36.6 5.5-19.1 12.2-19.1 12.2 8.6 12.2 19.1zM582.9 858.6c0 10.5-5.5 36.6-12.2 36.6s-12.2-26.1-12.2-36.6 5.5-19.1 12.2-19.1 12.2 8.6 12.2 19.1zM541 439.4c0 10.5-5.8 36.6-12.9 36.6-7.1 0-12.9-26.1-12.9-36.6s5.8-19.1 12.9-19.1 12.9 8.6 12.9 19.1zM554 541.6c0 10.5-5.8 36.6-12.9 36.6-7.1 0-12.9-26.1-12.9-36.6s5.8-19.1 12.9-19.1 12.9 8.6 12.9 19.1zM289 328.5c0 10.5-5.8 36.6-12.9 36.6s-12.9-26.1-12.9-36.6 5.8-19.1 12.9-19.1S289 318 289 328.5zM312.9 253.2c0 10.5-5.8 36.6-12.9 36.6s-12.9-26.1-12.9-36.6 5.8-19.1 12.9-19.1 12.9 8.5 12.9 19.1zM429 497.9c0 10.5-5.8 36.6-12.9 36.6s-12.9-26.1-12.9-36.6 5.8-19.1 12.9-19.1 12.9 8.5 12.9 19.1zM642 513.7c0 10.5-5.8 36.6-12.9 36.6-7.1 0-12.9-26.1-12.9-36.6s5.8-19.1 12.9-19.1c7.1 0.1 12.9 8.6 12.9 19.1zM765 343.1c0 10.5-5.8 36.6-12.9 36.6-7.1 0-12.9-26.1-12.9-36.6S745 324 752.1 324s12.9 8.6 12.9 19.1zM745.5 516.2c0 10.5-5.8 36.6-12.9 36.6-7.1 0-12.9-26.1-12.9-36.6s5.8-19.1 12.9-19.1 12.9 8.6 12.9 19.1z" fill="" /><path d="M512.2 512.7m-173.3 0a173.3 173.3 0 1 0 346.6 0 173.3 173.3 0 1 0-346.6 0Z" fill="#D66C79" /><path d="M513.5 576.7m-22.5 0a22.5 22.5 0 1 0 45 0 22.5 22.5 0 1 0-45 0Z" fill="" /></svg>
