<svg overflow="hidden" style="width: 1em;height: 1em;vertical-align: middle;fill: #57A773;overflow: hidden;" viewBox="0 0 1024 1024" version="1.1" xmlns="http://www.w3.org/2000/svg"><path d="M512.5 54c70.013 0 120.161 25.442 152.187 73.488 13.178 19.77 22.974 42.799 30.543 69.838l0.543 1.959c0.09 0.327 0.18 0.654 0.268 0.982l0.53 1.97 0.262 0.99 0.517 1.985 0.256 0.997 0.506 2.002 0.498 2.015 0.491 2.03c0.082 0.339 0.163 0.679 0.243 1.02l0.481 2.052 0.475 2.069 0.469 2.087 0.463 2.106 0.458 2.126 0.452 2.147 0.448 2.17 0.223 1.093 0.44 2.205 0.438 2.231 0.217 1.125 0.432 2.27 0.429 2.299 0.425 2.328 0.423 2.357 0.421 2.39 0.419 2.421 0.417 2.456 0.416 2.49 0.414 2.526 0.414 2.563 0.62 3.917 0.414 2.66 0.413 2.702 0.414 2.743 0.9 6.05 3.214 22.555 1.062 7.44 0.62 4.269 0.608 4.13 0.597 3.992 0.588 3.861 0.58 3.734 0.572 3.61 0.377 2.34 0.562 3.412 0.372 2.213 0.37 2.163 0.552 3.157 0.367 2.048 0.366 2.003 0.365 1.96 0.366 1.917 0.366 1.877 0.366 1.838 0.367 1.8 0.368 1.762 0.37 1.727 0.371 1.692 0.374 1.66 0.187 0.817 0.377 1.611 0.38 1.582 0.383 1.552 0.193 0.766 0.388 1.511 0.196 0.746 0.394 1.473 0.198 0.727 0.401 1.438 0.406 1.416 0.41 1.394 0.417 1.375 0.422 1.357 0.428 1.34 0.216 0.663 0.438 1.316 0.444 1.302 0.225 0.646 0.456 1.284 0.463 1.272 0.234 0.633 0.475 1.258 0.483 1.25 0.492 1.244c8.894 22.24 19.137 42.583 32.61 65.79l0.994 1.696 2.135 3.595 23.585 39.257 3.712 6.227 2.775 4.707 1.254 2.16 1.733 3.045c12.5 22.128 21.33 41.165 27.891 61.51C838.883 607.058 843 633.077 843 661.776c0 99.7-39.608 180.467-109.43 235.684C672.994 945.366 592.609 971 512.5 971s-160.493-25.634-221.07-73.54C221.607 842.241 182 761.474 182 661.774c0-46.84 7.826-88.427 22.943-128.57l0.696-1.835 1.05-2.727 0.353-0.903 0.71-1.799 0.714-1.788 0.72-1.78 0.728-1.77 0.734-1.765 0.742-1.759 0.374-0.878 0.753-1.752 0.763-1.75 0.771-1.747 0.781-1.746 0.792-1.747 0.802-1.748 0.813-1.75 0.824-1.754 0.837-1.758 0.423-0.881 0.856-1.767 0.432-0.886 0.876-1.778 0.89-1.787 0.45-0.897 0.912-1.803 0.927-1.813 1.42-2.745 0.967-1.847 0.983-1.862 1.002-1.88 1.019-1.895 0.516-0.955 1.578-2.894 1.075-1.955 1.096-1.977 1.681-3.007 1.729-3.063 1.777-3.122 1.828-3.183 1.88-3.25 1.935-3.318 1.32-2.253 2.027-3.442 2.794-4.714 2.902-4.863 6.266-10.453 4.311-7.211 3.5-5.89 3.216-5.46 2.608-4.469 1.757-3.037 1.676-2.924 1.604-2.824 1.236-2.197 1.198-2.15 1.164-2.109 1.691-3.102 1.097-2.038 1.075-2.021 0.915-1.738 0.905-1.736a519.61 519.61 0 0 0 3.798-7.47l0.45-0.926 0.221-0.467 0.44-0.947 0.216-0.479 0.43-0.969 0.212-0.49 0.42-0.994c0.07-0.167 0.14-0.335 0.208-0.504l0.412-1.02c0.136-0.344 0.272-0.69 0.407-1.04l0.4-1.06 0.397-1.08 0.392-1.102 0.388-1.124 0.192-0.571 0.381-1.16c0.127-0.391 0.253-0.786 0.378-1.185l0.374-1.21 0.186-0.616 0.37-1.25 0.183-0.636 0.365-1.293 0.182-0.658 0.361-1.337 0.36-1.368 0.357-1.4 0.356-1.431 0.355-1.465 0.353-1.5 0.353-1.534 0.176-0.78 0.352-1.589 0.527-2.453 0.352-1.684 0.352-1.723 0.353-1.764 0.354-1.805 0.532-2.787 0.357-1.913 0.36-1.956 0.36-2.003 0.363-2.048 0.366-2.096 0.553-3.234 0.561-3.346 0.76-4.638 0.386-2.398 0.785-4.957 0.601-3.862 2.669-17.351 1.389-8.839 0.539-3.354 0.529-3.24 0.694-4.168 0.344-2.031 0.516-2.994 0.517-2.944 0.515-2.87 0.518-2.83 0.523-2.794 0.528-2.757 0.265-1.365 0.536-2.705 0.54-2.67 0.548-2.639 0.276-1.307 0.557-2.59a498.17 498.17 0 0 1 1.135-5.092l0.58-2.503c0.389-1.66 0.783-3.3 1.184-4.925l0.605-2.423c2.338-9.244 4.882-17.95 7.732-26.371 8.143-24.06 18.553-44.81 32.145-62.56C398.526 76.319 446.91 54 512.5 54z m0 394.512c-44.622 0-85.712 25.434-116.143 66.383-27.296 36.729-43.786 83.36-43.786 125.555 0 88.337 71.602 159.95 159.929 159.95s159.929-71.613 159.929-159.95c0-42.196-16.49-88.826-43.786-125.555-30.431-40.949-71.521-66.382-116.143-66.382z" /></svg>