<svg overflow="hidden" viewBox="0 0 1024 1024" version="1.1" xmlns="http://www.w3.org/2000/svg"><path d="M900.079939 596.320067c0-214.327967-173.743973-273.151957-388.079939-273.151957-214.335967 0-388.079939 58.823991-388.079939 273.151957 0 214.335967 173.743973 388.079939 388.079939 388.079939 214.335967 0 388.079939-173.743973 388.079939-388.079939z" fill="#866539" /><path d="M919.679936 617.440064c2.248-11.615998-5.599999-21.119997-17.423997-21.119997H121.752061c-11.839998 0-19.679997 9.503999-17.439997 21.119997l71.391989 369.519942c2.24 11.607998 13.751998 21.119997 25.583996 21.119996H822.719951c11.831998 0 23.343996-9.511999 25.583996-21.119996l71.375989-369.519942z" fill="#FDBA55" /><path d="M289.480035 741.416044m-28.831996 0a28.831995 28.831995 0 1 0 57.663991 0 28.831995 28.831995 0 1 0-57.663991 0Z" fill="#3F4963" /><path d="M320.33603 842.176028H258.64004a15.919998 15.919998 0 0 1 0-31.839995h61.67999a15.919998 15.919998 0 0 1 0 31.839995zM765.35996 842.176028h-61.68799a15.919998 15.919998 0 0 1 0-31.839995h61.67999a15.919998 15.919998 0 0 1 0 31.839995z" fill="#FF6376" /><path d="M475.896006 822.256032a52.079992 52.079992 0 0 1-52.023992-52.023992 15.919998 15.919998 0 0 1 31.847995 0 20.199997 20.199997 0 0 0 20.175997 20.175996 20.199997 20.199997 0 0 0 20.183996-20.175996 15.919998 15.919998 0 0 1 31.839996 0 52.079992 52.079992 0 0 1-52.023992 52.023992z" fill="#3F4963" /><path d="M548.103994 822.256032a52.079992 52.079992 0 0 1-52.023992-52.023992 15.919998 15.919998 0 0 1 31.839996 0 20.199997 20.199997 0 0 0 20.183996 20.175996 20.199997 20.199997 0 0 0 20.175997-20.175996 15.919998 15.919998 0 0 1 31.847995 0 52.079992 52.079992 0 0 1-52.023992 52.023992zM763.343961 772.296039a15.919998 15.919998 0 0 1-15.919998-15.919997c0-7.119999-5.791999-12.911998-12.911998-12.911998-7.119999 0-12.911998 5.791999-12.911998 12.911998a15.919998 15.919998 0 0 1-31.839995 0 44.807993 44.807993 0 0 1 44.751993-44.759993 44.807993 44.807993 0 0 1 44.759993 44.759993c0 8.799999-7.127999 15.919998-15.919997 15.919997z" fill="#3F4963" /><path d="M158.224055 866.128025c-1.96 0-3.895999 0.112-5.815999 0.272l23.287997 120.559981c1.232 6.375999 5.271999 12.111998 10.615998 15.991997a71.295989 71.295989 0 0 0-28.079996-136.823978zM181.368052 702.29605a71.295989 71.295989 0 0 0-74.415989-71.215989l26.751996 138.479979a71.311989 71.311989 0 0 0 47.663993-67.26399zM808.703954 901.128019a71.295989 71.295989 0 0 0-61.735991 106.943983h75.743988c11.831998 0 23.343996-9.503999 25.591996-21.119996l12.255999-63.42399a71.063989 71.063989 0 0 0-51.855992-22.399997zM900.079939 653.792058a71.295989 71.295989 0 0 0-14.671997 141.063978l27.039995-139.975978a71.519989 71.519989 0 0 0-12.359998-1.088zM440.704011 596.320067a71.295989 71.295989 0 0 0 71.295989 71.295989 71.295989 71.295989 0 0 0 71.295989-71.295989H440.704011zM583.295989 1008.080002a71.295989 71.295989 0 0 0-71.295989-71.303988 71.295989 71.295989 0 0 0-71.295989 71.303988h142.591978z" fill="#FFD553" /><path d="M841.727948 303.192113h-3.119999c2.608-9.135999 4.031999-18.759997 4.031999-28.727996 0-46.807993-30.743995-86.423986-73.127988-99.791984 0.896-57.159991-44.367993-130.16798-61.071991-146.871977a40.543994 40.543994 0 0 0-69.215989 28.671995c0 15.775998-29.359995 113.359982-153.031976 113.359982H286.000035c-57.783991 0-104.631984 46.847993-104.631983 104.631984 0 9.959998 1.424 19.599997 4.031999 28.719996h-3.119999c-57.783991 0-104.623984 46.847993-104.623984 104.631983 0 57.783991 46.839993 104.623984 104.623984 104.623984h659.439896c57.783991 0 104.623984-46.847993 104.623984-104.623984 0-57.783991-46.839993-104.623984-104.623984-104.623983z" fill="#FF9596" /><path d="M194.67205 463.048088a15.927998 15.927998 0 0 1-11.263999-27.183996l44.191993-44.191993a15.927998 15.927998 0 0 1 22.527997 22.527996l-44.191993 44.183993a15.879998 15.879998 0 0 1-11.263998 4.664zM628.479982 207.856128a15.919998 15.919998 0 0 1-11.255998-27.183996l44.175993-44.183993a15.927998 15.927998 0 0 1 22.527996 22.511996L639.74398 203.200128a15.887998 15.887998 0 0 1-11.263998 4.664z" fill="#FFFFFF" /><path d="M810.799953 463.048088c-4.071999 0-8.143999-1.552-11.255998-4.664l-44.183993-44.183993a15.919998 15.919998 0 0 1 22.519996-22.527996l44.183994 44.191993a15.927998 15.927998 0 0 1-11.255999 27.183996zM315.808031 341.208107c-4.079999 0-8.159999-1.552-11.263999-4.664l-44.183993-44.183993a15.919998 15.919998 0 0 1 22.519997-22.527996l44.183993 44.191993a15.927998 15.927998 0 0 1-11.263998 27.183996z" fill="#FF6376" /><path d="M398.552018 431.984093a15.919998 15.919998 0 0 1-11.255999-27.183996l44.175994-44.183993a15.927998 15.927998 0 0 1 22.527996 22.519996l-44.191993 44.183993a15.879998 15.879998 0 0 1-11.255998 4.664z" fill="#866539" /><path d="M403.096017 290.384115a15.927998 15.927998 0 0 1-11.263998-27.183996l44.183993-44.183993a15.927998 15.927998 0 0 1 22.527996 22.519996l-44.183993 44.183993a15.879998 15.879998 0 0 1-11.263998 4.664z" fill="#FFD553" /><path d="M583.295989 334.576108c-4.079999 0-8.151999-1.56-11.263998-4.672l-44.183993-44.183993a15.919998 15.919998 0 0 1 22.519996-22.519996l44.191993 44.183993a15.927998 15.927998 0 0 1-11.263998 27.183996z" fill="#FF6376" /><path d="M759.503961 312.480111c-4.079999 0-8.159999-1.552-11.263998-4.663999l-44.183993-44.183993a15.919998 15.919998 0 0 1 22.519996-22.527997l44.183994 44.191993a15.919998 15.919998 0 0 1-11.255999 27.183996z" fill="#FFFFFF" /><path d="M568.799991 463.048088a15.927998 15.927998 0 0 1-11.255998-27.183996l44.175993-44.191993a15.927998 15.927998 0 0 1 22.527996 22.527996l-44.191993 44.183993a15.879998 15.879998 0 0 1-11.263998 4.664z" fill="#FFD553" /><path d="M584.199989 754.304042c-8.791999 0-15.919998 7.135999-15.919998 15.919998a20.199997 20.199997 0 0 1-20.175997 20.183996 20.199997 20.199997 0 0 1-20.183996-20.175996 15.919998 15.919998 0 1 0-31.839996 0 20.199997 20.199997 0 0 1-20.183996 20.175996 20.199997 20.199997 0 0 1-20.175997-20.175996 15.919998 15.919998 0 0 0-31.847995 0 52.079992 52.079992 0 0 0 52.023992 52.023992 51.839992 51.839992 0 0 0 36.103994-14.615998 51.839992 51.839992 0 0 0 36.103994 14.615998 52.079992 52.079992 0 0 0 52.023992-52.023992c0-8.799999-7.127999-15.919998-15.919997-15.919998z m-294.711954-41.727993a28.831995 28.831995 0 1 0 0 57.663991 28.831995 28.831995 0 0 0 0-57.671991z m445.02393-0.96a44.807993 44.807993 0 0 0-44.759993 44.759993 15.919998 15.919998 0 0 0 31.847995 0c0-7.119999 5.791999-12.911998 12.911998-12.911998 7.119999 0 12.911998 5.791999 12.911998 12.911998a15.919998 15.919998 0 1 0 31.839995 0 44.799993 44.799993 0 0 0-44.751993-44.759993z m181.279972-128.52798c-0.88-26.079996-4.399999-50.503992-10.455998-72.943989 34.151995-21.303997 56.935991-59.199991 56.935991-102.327984 0-61.03999-45.599993-111.623983-104.519984-119.487981 0.536-4.599999 0.8-9.231999 0.8-13.863998a120.031981 120.031981 0 0 0-73.463989-111.015983c-4.327999-60.663991-47.999993-129.51998-65.391989-146.911977A56.079991 56.079991 0 0 0 679.759974 0.00016a56.095991 56.095991 0 0 0-39.927994 16.535997 56.055991 56.055991 0 0 0-16.543997 39.887994c-0.096 3.567999-5.463999 28.479996-26.759996 52.799992-25.951996 29.655995-63.07999 44.687993-110.343983 44.687993H286.000035c-66.47999 0-120.559981 54.079992-120.559981 120.551981 0 4.639999 0.272 9.263999 0.808 13.863998C107.328063 296.184114 61.72807 346.776106 61.72807 407.816096c0 43.127993 22.783996 81.023987 56.935991 102.327984-6.055999 22.439996-9.575999 46.863993-10.447998 72.943989a32.503995 32.503995 0 0 0-12.743998 9.303998c-6.287999 7.615999-8.759999 17.847997-6.791999 28.071996l71.383989 369.519942c3.679999 19.071997 21.791997 34.015995 41.223994 34.015995H822.719951c19.423997 0 37.535994-14.943998 41.223994-34.023995l71.375989-369.519942c1.976-10.215998-0.496-20.447997-6.791999-28.063996a32.559995 32.559995 0 0 0-12.743998-9.303998z m-11.743998 31.327995l-71.375989 369.519942c-0.8 4.143999-5.727999 8.215999-9.959999 8.215999H201.296049c-4.223999 0-9.151999-4.071999-9.959999-8.215999l-71.375989-369.519942c-0.192-0.984-0.048-1.584 0.08-1.76 0.144-0.16 0.72-0.408 1.72-0.408h780.503878c1.008 0 1.576 0.24 1.712 0.416 0.136 0.16 0.272 0.768 0.08 1.76zM140.232058 580.400069c0.904-20.287997 3.559999-39.343994 7.919999-56.983991 10.831998 3.2 22.271997 4.951999 34.127995 4.951999h659.439896c11.847998 0 23.295996-1.752 34.119995-4.951999 4.367999 17.639997 7.023999 36.695994 7.919999 56.983991H140.240058z m701.49589-83.879987H182.280052c-48.911992 0-88.703986-39.791994-88.703987-88.695986 0-48.911992 39.791994-88.695986 88.703987-88.695986h3.119999c0.328 0 0.656-0.04 0.984-0.064 0.376 0.032 0.752 0.064 1.136 0.064h29.247995a15.919998 15.919998 0 0 0 0-31.855995H198.240049a88.543986 88.543986 0 0 1-0.952-12.799998c0-48.911992 39.791994-88.695986 88.703986-88.695986h200.191969c71.319989 0 112.743982-30.607995 134.943979-56.279991 25.703996-29.727995 34.015995-62.03199 34.015995-73.015989 0-6.575999 2.56-12.759998 7.215999-17.407997a24.455996 24.455996 0 0 1 17.399997-7.207999c6.583999 0 12.759998 2.56 17.407997 7.199999 13.343998 13.343998 49.047992 71.087989 55.423991 119.687981h-10.223998a15.919998 15.919998 0 0 0 0 31.855995h24.527996a88.319986 88.319986 0 0 1 59.807991 83.863987c0 4.279999-0.328 8.559999-0.952 12.799998h-17.055997a15.919998 15.919998 0 0 0 0 31.847995h27.119995c0.504 0 1.008-0.024 1.496-0.072 0.424 0.04 0.856 0.08 1.288 0.08h3.119999c48.903992 0 88.695986 39.791994 88.695987 88.695986 0.008 48.903992-39.783994 88.695986-88.695987 88.695986z" fill="#000000" /></svg>
