<svg overflow="hidden" style="width: 1em;height: 1em;vertical-align: middle;fill: #F8C85F;overflow: hidden;" viewBox="0 0 1024 1024" version="1.1" xmlns="http://www.w3.org/2000/svg"><path d="M690.666 56.354c19.273-2.147 38.861-1.665 58.277 0.812 42.555 5.427 67.484 48.574 50.9 88.14-7.564 18.046-16.942 35.24-28.44 50.848-14.527 19.717-31.767 35.96-52.05 47.662-17.247 9.949-36.24 16.353-56.511 19.714 24.688 21.543 47.466 48.073 67.008 78.18l1.198 1.857c40.637 63.342 64.154 137.646 64.154 209.563s-23.517 146.221-64.154 209.563c-38.996 60.784-91.16 107.24-145.746 127.965l-0.139 0.051-0.302 0.351-0.387 0.467-0.417 0.518-0.22 0.279-0.46 0.596-0.46 0.613-0.636 0.868-0.642 0.9-0.656 0.94-0.675 0.993-0.879 1.325-0.74 1.14-0.981 1.543-0.837 1.337-1.357 2.203-1.237 2.036-1.92 3.193-4.423 7.433-0.845 1.416-2.023 3.361-1.156 1.9-1.48 2.408-1.422 2.274-1.03 1.625-0.674 1.048-0.99 1.521-0.65 0.983-0.641 0.96-0.636 0.937-0.63 0.917-0.625 0.897-0.622 0.88-0.62 0.864c-0.103 0.143-0.206 0.285-0.31 0.426l-0.618 0.842c-0.103 0.14-0.206 0.278-0.31 0.416l-0.619 0.824-0.622 0.813-0.625 0.803-0.629 0.796-0.954 1.183-0.644 0.782c-4.637 5.588-9.411 10.224-14.797 13.95-7.887 5.457-16.78 8.73-26.661 8.73-9.882 0-18.774-3.273-26.66-8.73-5.387-3.726-10.16-8.362-14.798-13.95-0.216-0.26-0.43-0.52-0.644-0.782l-0.954-1.183-0.63-0.796-0.624-0.803-0.622-0.813-0.62-0.824-0.928-1.258-0.62-0.856-0.62-0.872-0.624-0.89-0.628-0.907-0.951-1.399-0.642-0.96-0.65-0.983-0.991-1.522-0.674-1.049-0.684-1.077-1.052-1.671-1.082-1.744-1.119-1.821-1.157-1.903-1.61-2.672-2.553-4.283-1.277-2.149-2.414-4.046-1.855-3.076-1.197-1.96-0.89-1.441-0.837-1.338-0.981-1.542-0.92-1.414-0.7-1.052-0.508-0.75-0.822-1.183-0.642-0.9-0.636-0.868-0.532-0.706-0.499-0.644-0.237-0.299-0.448-0.55a32.4 32.4 0 0 0-0.41-0.487l-0.121-0.138-1.759-0.674c-53.44-20.806-104.453-66.211-142.928-125.485l-1.197-1.857C242.516 699.351 219 625.047 219 553.13s23.516-146.22 64.154-209.563c37.802-58.923 87.978-104.382 140.74-125.989l0.084-0.035 58.755-69.024c12.778-15.011 35.958-15.011 48.735 0l15.504 18.213c6.777-14.642 14.828-28.617 24.326-41.509 14.528-19.717 31.769-35.959 52.05-47.659 20.278-11.7 42.971-18.497 67.318-21.21z m49.203 64.175c-32.236-3.969-61.967-0.551-84.54 12.471-22.796 13.151-40.748 37.517-53.448 67.812l0.003-0.01 0.03-0.07 0.92 0.116c0.957 0.118 1.912 0.23 2.865 0.334l1.902 0.201 1.896 0.183c29.334 2.702 56.276-0.987 77.189-12.795l0.686-0.392c22.795-13.152 40.747-37.518 53.447-67.813l-0.033 0.077z" /></svg>