<svg overflow="hidden" viewBox="0 0 1024 1024" version="1.1" xmlns="http://www.w3.org/2000/svg"><path d="M277.824 16.096h453.664v989.816H277.824z" fill="#FF6376" /><path d="M830.536 412.016c47.6-54.432 47.6-143.52 0-197.96-37.456-42.832-45.44-107.12-23.944-159.104 15.92-38.512-12.816-38.856-33.336-38.856H654.84c-47.6 54.44-47.6 143.52 0 197.96s47.6 143.52 0 197.96-47.6 143.528 0 197.968 47.6 143.528 0 197.968-47.6 143.52 0 197.96h139.856c13.736 0 29.84-3.88 18.2-25.544-28.968-53.904-23.088-125.84 17.648-172.416 47.6-54.44 47.6-143.528 0-197.968-47.608-54.44-47.608-143.52 0-197.968zM368.048 412.016c47.6-54.432 47.6-143.52 0-197.96-47.6-54.432-47.6-143.52 0-197.96H220.336c-20.88 0-32.816 2.536-44.544 23.568C145.6 93.76 151.12 166.912 192.352 214.056c47.6 54.44 47.6 143.52 0 197.96s-47.6 143.528 0 197.968 47.6 143.528 0 197.968c-41.256 47.184-46.76 120.392-16.504 174.504 12 21.48 27.448 23.456 46.32 23.456h145.88c-47.6-54.44-47.6-143.52 0-197.96s47.6-143.528 0-197.968-47.6-143.52 0-197.968z" fill="#FF9596" /><path d="M270.152 273.072a30.456 30.28 0 1 0 60.912 0 30.456 30.28 0 1 0-60.912 0Z" fill="#3F4963" /><path d="M740.248 273.072a30.456 30.28 0 1 0 60.912 0 30.456 30.28 0 1 0-60.912 0Z" fill="#3F4963" /><path d="M333.184 378.264h-65.16c-8.944 0-16.184-7.2-16.184-16.088 0-8.896 7.24-16.096 16.184-16.096h65.16c8.944 0 16.192 7.2 16.192 16.096a16.136 16.136 0 0 1-16.192 16.088zM803.28 378.264h-65.16c-8.944 0-16.192-7.2-16.192-16.088 0-8.896 7.248-16.096 16.192-16.096h65.16c8.944 0 16.184 7.2 16.184 16.096a16.136 16.136 0 0 1-16.184 16.088z" fill="#FF6376" /><path d="M497.52 357.344c-29.96 0-54.328-24.224-54.328-54 0-8.896 7.248-16.096 16.184-16.096 8.944 0 16.192 7.2 16.192 16.088a21.912 21.912 0 0 0 21.944 21.824 21.912 21.912 0 0 0 21.952-21.824c0-8.88 7.248-16.088 16.184-16.088 8.944 0 16.192 7.2 16.192 16.088 0 29.784-24.368 54.008-54.32 54.008z" fill="#3F4963" /><path d="M573.784 357.344c-29.952 0-54.32-24.224-54.32-54 0-8.896 7.248-16.096 16.184-16.096 8.944 0 16.192 7.2 16.192 16.088a21.904 21.904 0 0 0 21.944 21.824 21.912 21.912 0 0 0 21.952-21.824c0-8.88 7.24-16.088 16.184-16.088s16.184 7.2 16.184 16.088c0 29.784-24.368 54.008-54.32 54.008z" fill="#3F4963" /><path d="M300.608 242.784c-16.824 0-30.456 13.56-30.456 30.28 0 16.728 13.632 30.288 30.456 30.288 16.816 0 30.456-13.56 30.456-30.288 0-16.72-13.632-30.28-30.456-30.28z m311.312 44.464c-8.944 0-16.184 7.2-16.184 16.088a21.912 21.912 0 0 1-21.952 21.824 21.912 21.912 0 0 1-21.944-21.824 16.136 16.136 0 0 0-16.192-16.088c-8.936 0-16.184 7.2-16.184 16.088a21.912 21.912 0 0 1-21.952 21.824 21.912 21.912 0 0 1-21.944-21.824 16.136 16.136 0 0 0-16.192-16.088c-8.936 0-16.184 7.2-16.184 16.088 0 29.784 24.368 54.008 54.32 54.008 14.856 0 28.32-5.96 38.144-15.592a54.304 54.304 0 0 0 38.128 15.592c29.96 0 54.328-24.232 54.328-54 0-8.888-7.248-16.096-16.192-16.096z m189.24-14.176c0-16.72-13.64-30.28-30.456-30.28-16.824 0-30.456 13.56-30.456 30.28s13.632 30.28 30.456 30.28c16.816 0 30.456-13.56 30.456-30.28z m41.6 326.36c-20.464-23.408-31.736-54.808-31.736-88.432 0-33.616 11.272-65.024 31.728-88.424 52.808-60.4 52.808-158.672 0-219.08-32.52-37.192-41.04-94.424-21.184-142.424 7.72-18.68 7.816-33.2 0.288-44.36C810.584 0 788.12 0 773.256 0H220.336C198.76 0 178.04 2.44 161.632 31.864c-33.864 60.704-26.08 141.76 18.496 192.752 20.464 23.4 31.728 54.8 31.728 88.424 0 33.624-11.264 65.024-31.728 88.424-52.816 60.4-52.816 158.68 0 219.08 20.464 23.4 31.728 54.8 31.728 88.424 0 33.624-11.264 65.024-31.728 88.424-44.624 51.04-52.376 132.16-18.432 192.88 16.368 29.28 39.8 31.728 60.48 31.728h572.512c17 0 28.64-5.024 34.64-14.952 5.696-9.464 4.976-20.984-2.16-34.264-26.32-48.976-19.76-113.856 15.584-154.28 52.816-60.4 52.816-158.672 0-219.072z m-44.144 388.52c0.32 0.592 0.584 1.136 0.816 1.624-1.216 0.144-2.776 0.24-4.744 0.24H222.168c-16.832 0-24.456-1.368-32.168-15.176-27.56-49.296-21.44-114.96 14.56-156.128 52.816-60.4 52.816-158.68 0-219.088-20.456-23.4-31.728-54.8-31.728-88.424 0-33.616 11.28-65.024 31.736-88.424 52.808-60.4 52.808-158.672 0-219.08-35.968-41.12-42.12-106.744-14.624-156.032 7.736-13.864 12.664-15.28 30.392-15.28h552.92c4.592 0 18.36 0 21.648 2.464 0.176 0.864 0.584 4.832-3.28 14.184-24.4 58.984-13.664 129.624 26.696 175.784 20.456 23.4 31.728 54.8 31.728 88.424 0 33.624-11.272 65.024-31.728 88.424-52.816 60.4-52.816 158.68 0 219.08 20.456 23.4 31.728 54.8 31.728 88.424 0 33.624-11.272 65.024-31.728 88.424-44.528 50.928-52.64 129.28-19.704 190.56z" fill="#000000" /></svg>