<svg style="width: 1em;height: 1em;vertical-align: middle;fill: #CF9945;overflow: hidden;" viewBox="0 0 1024 1024" version="1.1" xmlns="http://www.w3.org/2000/svg"><path d="M970.22 78.976c3.84 17.07-6.738 34.022-23.68 38.123l-0.516 0.12L715.1 169.178V480.5L939 480.5c17.496 0 31.713 14.042 31.996 31.47l0.004 0.53c0 127.715-39.532 241.222-115.087 323.26C775.173 923.425 657.653 971 512.5 971c-145.153 0-262.674-47.575-343.413-135.24C93.532 753.722 54 640.215 54 512.5c0-17.673 14.327-32 32-32h53.3V298.731l-46.276 10.413c-17.242 3.879-34.364-6.954-38.244-24.196-3.84-17.07 6.738-34.022 23.68-38.123l0.516-0.12 60.323-13.574 0.001-19.182c0-17.673 14.327-32 32-32 17.496 0 31.713 14.042 31.996 31.47l0.004 0.53v4.782l106.6-23.985V171.3c0-17.673 14.327-32 32-32 17.496 0 31.713 14.042 31.996 31.47l0.004 0.53v9.047l106.6-23.985V128.65c0-17.673 14.327-32 32-32 17.496 0 31.713 14.042 31.996 31.47l0.004 0.53v13.312l106.6-23.985V86c0-17.673 14.327-32 32-32 17.496 0 31.713 14.042 31.996 31.47l0.004 0.53v17.577L931.975 54.78c17.242-3.879 34.364 6.954 38.244 24.196zM309.9 260.347l-106.6 23.985V480.5h106.6V260.347z m170.6-38.385l-106.6 23.985V480.5h106.6V221.962z m170.6-38.385l-106.6 23.985V480.5h106.6V183.577z" /></svg>