<svg width="1024" height="1024" viewBox="0 0 1024 1024" version="1.1" xmlns="http://www.w3.org/2000/svg"><path d="M620.8 166.4c49.4848 0 89.6 40.1152 89.6 89.6l-0.0128 0.6208c3.1488-0.4096 6.3552-0.6208 9.6128-0.6208 30.8224 0 57.216 18.944 68.1792 45.824a51.1872 51.1872 0 0 0-10.2208-1.024l-214.9952 0.0128A108.5632 108.5632 0 0 0 480 262.4c-3.8272 0-7.616 0.192-11.3408 0.5824a51.232 51.232 0 0 1 67.3088-35.8912C547.9872 191.7952 581.4272 166.4 620.8 166.4z" fill="#00C7FE" /><path d="M620.8 166.4c49.4848 0 89.6 40.1152 89.6 89.6l-0.0128 0.6208c3.1488-0.4096 6.3552-0.6208 9.6128-0.6208 30.8224 0 57.216 18.944 68.1792 45.824a51.1872 51.1872 0 0 0-10.2208-1.024h-4.3968a60.7872 60.7872 0 0 0-61.5168-31.488l-14.7328 1.92 0.2816-14.848L697.6 256c0-41.1072-32.3008-74.6752-72.9088-76.704l-1.9392-0.0704L620.8 179.2c-33.1264 0-62.208 21.1648-72.7168 52.0192l-4.2176 12.384-12.288-4.4864a38.4128 38.4128 0 0 0-49.3952 23.3024 110.3744 110.3744 0 0 0-13.5232 0.5632 51.232 51.232 0 0 1 67.3088-35.8912C547.9872 191.7952 581.4272 166.4 620.8 166.4z" fill="#000000" /><path d="M203.4176 747.8848l-67.328 46.6816h752.1856l-66.0032-46.6816z" fill="#FE506C" /><path d="M777.9584 300.8a51.2 51.2 0 0 1 51.2 51.2v402.4896H196.736V352a51.2 51.2 0 0 1 51.2-51.2l149.1072-0.0064a109.1456 109.1456 0 0 0-9.3632 12.8L247.936 313.6a38.4 38.4 0 0 0-38.4 38.4v389.6832h606.816V352a38.4 38.4 0 0 0-36.9664-38.3744l-1.4336-0.0256H572.3136c-2.816-4.5056-5.9456-8.7808-9.3632-12.8064l215.008 0.0064z" fill="#000000" /><path d="M781.0368 342.0416v384.9536H244.8576V342.0416l80.4096-0.0128a64.32 64.32 0 0 0-15.1936 12.8128h-52.416v359.3472h510.5728V354.8416H587.584a108.1856 108.1856 0 0 0-2.7328-12.8h196.192z" fill="#000000" /><path d="M128 788.864h769.8944V844.8a12.8 12.8 0 0 1-12.8 12.8H140.8a12.8 12.8 0 0 1-12.8-12.8v-55.936z" fill="#FFDD33" /><path d="M897.8944 787.2v55.936a12.8 12.8 0 0 1-12.8 12.8H140.8a12.8 12.8 0 0 1-12.8-12.8V787.2h769.8944z m-12.8 12.8H140.8v43.136h744.2944V800z" fill="#000000" /><path d="M199.9232 742.496l6.9824 10.7264-71.744 46.7072-6.9888-10.7264zM825.7664 742.528l71.6288 46.72-6.9952 10.7264-71.6288-46.7328zM480 262.4c60.0896 0 108.8 48.7104 108.8 108.8l-0.0128 0.9088A90.3616 90.3616 0 0 1 601.6 371.2c49.4848 0 89.6 40.1152 89.6 89.6s-40.1152 89.6-89.6 89.6H326.4c-35.3472 0-64-28.6528-64-64 0-26.7328 16.3904-49.6384 39.6736-59.2128A63.5904 63.5904 0 0 1 294.4 396.8c0-35.3472 28.6528-64 64-64 6.528 0 12.832 0.9792 18.7648 2.7968C391.9104 292.992 432.384 262.4 480 262.4z m0 12.8c-41.2352 0-77.472 26.24-90.7392 64.576l-4.0384 11.6736-11.808-3.616A51.1872 51.1872 0 0 0 358.4 345.6a51.2 51.2 0 0 0-45.0752 75.488l6.784 12.5184-13.1712 5.4208A51.2128 51.2128 0 0 0 326.4 537.6h275.2c42.4128 0 76.8-34.3872 76.8-76.8s-34.3872-76.8-76.8-76.8c-3.712 0-7.3792 0.256-10.9952 0.7808l-14.8096 2.1184 0.192-14.9568L576 371.2c0-53.0176-42.9824-96-96-96z" fill="#000000" /><path d="M587.2128 500.1792a6.4 6.4 0 0 1 8.8256 2.016A120.3008 120.3008 0 0 1 614.4 566.3744C614.4 631.7376 562.8672 684.8 499.2 684.8a6.4 6.4 0 1 1 0-12.8c56.512 0 102.4-47.2512 102.4-105.6256 0-20.6592-5.7536-40.416-16.4032-57.3696a6.4 6.4 0 0 1 2.016-8.8256zM505.6 454.4a6.4 6.4 0 0 1 0 12.8c-56.544 0-102.4 46.1888-102.4 103.1936 0 21.344 9.7728 46.2272 24.4736 65.7536a6.4 6.4 0 1 1-10.2208 7.7056C401.1904 622.2528 390.4 594.7776 390.4 570.3936 390.4 506.3424 441.9648 454.4 505.6 454.4z" fill="#000000" /><path d="M433.856 574.72a6.4 6.4 0 0 1 6.4 6.4v75.9552H358.2208a6.4 6.4 0 1 1 0-12.8h69.216l0.0064-63.1616a6.4 6.4 0 0 1 5.6576-6.3552l0.7424-0.0448zM579.0336 487.84l6.1824 1.664 73.0432 19.5648a6.4 6.4 0 0 1-3.3152 12.3648l-66.8608-17.92-16.3456 61.0112a6.4 6.4 0 0 1-7.104 4.6784l-0.736-0.1536a6.4 6.4 0 0 1-4.5248-7.8336l18.0032-67.1936 1.6576-6.1824z" fill="#000000" /><path d="M435.2 819.2h153.6v12.8H435.2z" fill="#000000" /></svg>
