<?xml version="1.0" standalone="no"?><!DOCTYPE svg PUBLIC "-//W3C//DTD SVG 1.1//EN" "http://www.w3.org/Graphics/SVG/1.1/DTD/svg11.dtd"><svg t="1783259835547" class="icon" viewBox="0 0 1024 1024" version="1.1" xmlns="http://www.w3.org/2000/svg" p-id="3968" xmlns:xlink="http://www.w3.org/1999/xlink" width="200" height="200"><path d="M537.8 539.5m-283.5 0a283.5 283.5 0 1 0 567 0 283.5 283.5 0 1 0-567 0Z" fill="#2AA88D" p-id="3969"></path><path d="M516.5 864.9c-47 0-92.5-9.2-135.5-27.4-41.4-17.5-78.7-42.6-110.6-74.6-32-32-57-69.2-74.6-110.6-18.2-42.9-27.4-88.5-27.4-135.5s9.2-92.5 27.4-135.5c17.5-41.4 42.6-78.7 74.6-110.6 32-32 69.2-57 110.6-74.6 42.9-18.2 88.5-27.4 135.5-27.4s92.5 9.2 135.5 27.4c41.4 17.5 78.7 42.6 110.6 74.6 32 32 57 69.2 74.6 110.6 18.2 42.9 27.4 88.5 27.4 135.5s-9.2 92.5-27.4 135.5c-17.5 41.4-42.6 78.7-74.6 110.6-32 32-69.2 57-110.6 74.6-43 18.2-88.5 27.4-135.5 27.4z m0-657c-170.4 0-309 138.6-309 309s138.6 309 309 309 309-138.6 309-309-138.6-309-309-309z" fill="#666767" p-id="3970"></path><path d="M333.3 489.2h366.4v55.4H333.3z" fill="#585857" p-id="3971"></path><path d="M487.28 700.1V333.7h58.4v366.4z" fill="#585857" p-id="3972"></path></svg>